solid OpenSCAD_Model
  facet normal 1 -0 0
    outer loop
      vertex 28.8 1 27.7
      vertex 28.8 42.8 26
      vertex 28.8 42.8 27.7
    endloop
  endfacet
  facet normal 1 0 0
    outer loop
      vertex 28.8 42.8 26
      vertex 28.8 1 27.7
      vertex 28.8 1 26
    endloop
  endfacet
  facet normal 0 0 1
    outer loop
      vertex 28.8 42.8 27.7
      vertex 27.7 41.7 27.7
      vertex 28.8 1 27.7
    endloop
  endfacet
  facet normal 0 0 1
    outer loop
      vertex 28.8 42.8 27.7
      vertex 2.1 41.7 27.7
      vertex 27.7 41.7 27.7
    endloop
  endfacet
  facet normal 0 0 1
    outer loop
      vertex 2.1 41.7 27.7
      vertex 1 42.8 27.7
      vertex 2.1 2.1 27.7
    endloop
  endfacet
  facet normal -0 0 1
    outer loop
      vertex 1 42.8 27.7
      vertex 2.1 41.7 27.7
      vertex 28.8 42.8 27.7
    endloop
  endfacet
  facet normal -0 0 1
    outer loop
      vertex 27.7 2.1 27.7
      vertex 28.8 1 27.7
      vertex 27.7 41.7 27.7
    endloop
  endfacet
  facet normal -0 0 1
    outer loop
      vertex 2.1 2.1 27.7
      vertex 28.8 1 27.7
      vertex 27.7 2.1 27.7
    endloop
  endfacet
  facet normal 0 0 1
    outer loop
      vertex 2.1 2.1 27.7
      vertex 1 1 27.7
      vertex 28.8 1 27.7
    endloop
  endfacet
  facet normal 0 0 1
    outer loop
      vertex 1 1 27.7
      vertex 2.1 2.1 27.7
      vertex 1 42.8 27.7
    endloop
  endfacet
  facet normal 0 0 -1
    outer loop
      vertex 17.3756 21.8 26
      vertex 28.8 42.8 26
      vertex 28.8 1 26
    endloop
  endfacet
  facet normal 0 0 -1
    outer loop
      vertex 28.8 42.8 26
      vertex 19.2028 35.2837 26
      vertex 19.2537 35.8 26
    endloop
  endfacet
  facet normal 0 0 -1
    outer loop
      vertex 28.8 42.8 26
      vertex 19.17 34.9506 26
      vertex 19.2028 35.2837 26
    endloop
  endfacet
  facet normal 0 0 -1
    outer loop
      vertex 28.8 42.8 26
      vertex 19.0194 34.4542 26
      vertex 19.17 34.9506 26
    endloop
  endfacet
  facet normal 0 0 -1
    outer loop
      vertex 28.8 42.8 26
      vertex 18.9223 34.1339 26
      vertex 19.0194 34.4542 26
    endloop
  endfacet
  facet normal 0 0 -1
    outer loop
      vertex 17.3538 22.0213 26
      vertex 28.8 42.8 26
      vertex 17.3756 21.8 26
    endloop
  endfacet
  facet normal 0 0 -1
    outer loop
      vertex 17.328 22.283 26
      vertex 28.8 42.8 26
      vertex 17.3538 22.0213 26
    endloop
  endfacet
  facet normal 0 0 -1
    outer loop
      vertex 18.9223 34.1339 26
      vertex 17.328 22.283 26
      vertex 18.7645 33.8388 26
    endloop
  endfacet
  facet normal 0 0 -1
    outer loop
      vertex 17.2517 22.5346 26
      vertex 18.5199 33.3812 26
      vertex 17.328 22.283 26
    endloop
  endfacet
  facet normal 0 0 -1
    outer loop
      vertex 17.1872 22.7474 26
      vertex 18.5199 33.3812 26
      vertex 17.2517 22.5346 26
    endloop
  endfacet
  facet normal 0 0 -1
    outer loop
      vertex 28.8 42.8 26
      vertex 17.328 22.283 26
      vertex 18.9223 34.1339 26
    endloop
  endfacet
  facet normal 0 0 -1
    outer loop
      vertex 28.8 1 26
      vertex 17.3538 21.5787 26
      vertex 17.3756 21.8 26
    endloop
  endfacet
  facet normal 0 0 -1
    outer loop
      vertex 28.8 1 26
      vertex 17.328 21.317 26
      vertex 17.3538 21.5787 26
    endloop
  endfacet
  facet normal 0 0 -1
    outer loop
      vertex 28.8 1 26
      vertex 17.2635 21.1043 26
      vertex 17.328 21.317 26
    endloop
  endfacet
  facet normal 0 0 -1
    outer loop
      vertex 28.8 1 26
      vertex 17.1872 20.8526 26
      vertex 17.2635 21.1043 26
    endloop
  endfacet
  facet normal 0 0 -1
    outer loop
      vertex 28.8 1 26
      vertex 17.0632 20.6207 26
      vertex 17.1872 20.8526 26
    endloop
  endfacet
  facet normal 0 0 -1
    outer loop
      vertex 28.8 1 26
      vertex 16.9584 20.4246 26
      vertex 17.0632 20.6207 26
    endloop
  endfacet
  facet normal 0 0 -1
    outer loop
      vertex 28.8 1 26
      vertex 16.8173 20.2528 26
      vertex 16.9584 20.4246 26
    endloop
  endfacet
  facet normal 0 0 -1
    outer loop
      vertex 28.8 1 26
      vertex 16.6505 20.0495 26
      vertex 16.8173 20.2528 26
    endloop
  endfacet
  facet normal 0 0 -1
    outer loop
      vertex 28.8 1 26
      vertex 16.4472 19.8827 26
      vertex 16.6505 20.0495 26
    endloop
  endfacet
  facet normal 0 0 -1
    outer loop
      vertex 28.8 1 26
      vertex 16.2754 19.7416 26
      vertex 16.4472 19.8827 26
    endloop
  endfacet
  facet normal 0 0 -1
    outer loop
      vertex 28.8 1 26
      vertex 16.0793 19.6368 26
      vertex 16.2754 19.7416 26
    endloop
  endfacet
  facet normal 0 0 -1
    outer loop
      vertex 28.8 1 26
      vertex 15.8474 19.5128 26
      vertex 16.0793 19.6368 26
    endloop
  endfacet
  facet normal 0 0 -1
    outer loop
      vertex 28.8 1 26
      vertex 15.5957 19.4365 26
      vertex 15.8474 19.5128 26
    endloop
  endfacet
  facet normal 0 0 -1
    outer loop
      vertex 28.8 1 26
      vertex 15.383 19.372 26
      vertex 15.5957 19.4365 26
    endloop
  endfacet
  facet normal 0 0 -1
    outer loop
      vertex 28.8 1 26
      vertex 15.1213 19.3462 26
      vertex 15.383 19.372 26
    endloop
  endfacet
  facet normal 0 0 -1
    outer loop
      vertex 28.8 1 26
      vertex 14.9 19.3244 26
      vertex 15.1213 19.3462 26
    endloop
  endfacet
  facet normal 0 0 -1
    outer loop
      vertex 1 1 26
      vertex 14.9 19.3244 26
      vertex 28.8 1 26
    endloop
  endfacet
  facet normal -0 0 -1
    outer loop
      vertex 14.9 19.3244 26
      vertex 1 1 26
      vertex 14.6787 19.3462 26
    endloop
  endfacet
  facet normal -0 0 -1
    outer loop
      vertex 14.6787 19.3462 26
      vertex 1 1 26
      vertex 14.417 19.372 26
    endloop
  endfacet
  facet normal -0 0 -1
    outer loop
      vertex 14.417 19.372 26
      vertex 1 1 26
      vertex 14.1654 19.4483 26
    endloop
  endfacet
  facet normal -0 0 -1
    outer loop
      vertex 14.1654 19.4483 26
      vertex 1 1 26
      vertex 13.9526 19.5128 26
    endloop
  endfacet
  facet normal -0 0 -1
    outer loop
      vertex 13.9526 19.5128 26
      vertex 1 1 26
      vertex 13.7207 19.6368 26
    endloop
  endfacet
  facet normal -0 0 -1
    outer loop
      vertex 13.7207 19.6368 26
      vertex 1 1 26
      vertex 13.5246 19.7416 26
    endloop
  endfacet
  facet normal -0 0 -1
    outer loop
      vertex 13.5246 19.7416 26
      vertex 1 1 26
      vertex 13.3528 19.8827 26
    endloop
  endfacet
  facet normal 0 0 -1
    outer loop
      vertex 1 1 26
      vertex 12.9827 20.2528 26
      vertex 13.1495 20.0495 26
    endloop
  endfacet
  facet normal 0 0 -1
    outer loop
      vertex 1 1 26
      vertex 12.5365 21.1043 26
      vertex 12.6128 20.8526 26
    endloop
  endfacet
  facet normal 0 0 -1
    outer loop
      vertex 1 1 26
      vertex 12.4502 21.5383 26
      vertex 12.472 21.317 26
    endloop
  endfacet
  facet normal 0 0 -1
    outer loop
      vertex 12.8416 23.1754 26
      vertex 11.8215 32.7215 26
      vertex 12.2225 32.3924 26
    endloop
  endfacet
  facet normal 0 0 -1
    outer loop
      vertex 12.4462 22.0213 26
      vertex 11.4924 33.1225 26
      vertex 11.8215 32.7215 26
    endloop
  endfacet
  facet normal 0 0 -1
    outer loop
      vertex 12.4462 22.0213 26
      vertex 11.2801 33.3812 26
      vertex 11.4924 33.1225 26
    endloop
  endfacet
  facet normal -0 0 -1
    outer loop
      vertex 12.4502 21.5383 26
      vertex 1 1 26
      vertex 12.4244 21.8 26
    endloop
  endfacet
  facet normal 0 0 -1
    outer loop
      vertex 12.4462 22.0213 26
      vertex 11.0355 33.8388 26
      vertex 11.2801 33.3812 26
    endloop
  endfacet
  facet normal 0 0 -1
    outer loop
      vertex 12.4462 22.0213 26
      vertex 10.8777 34.1339 26
      vertex 11.0355 33.8388 26
    endloop
  endfacet
  facet normal 0 0 -1
    outer loop
      vertex 12.4462 22.0213 26
      vertex 1 42.8 26
      vertex 10.8777 34.1339 26
    endloop
  endfacet
  facet normal 0 0 -1
    outer loop
      vertex 10.8777 34.1339 26
      vertex 1 42.8 26
      vertex 10.7806 34.4542 26
    endloop
  endfacet
  facet normal 0 0 -1
    outer loop
      vertex 1 42.8 26
      vertex 10.5972 35.2837 26
      vertex 10.63 34.9506 26
    endloop
  endfacet
  facet normal 0 0 -1
    outer loop
      vertex 10.7806 34.4542 26
      vertex 1 42.8 26
      vertex 10.63 34.9506 26
    endloop
  endfacet
  facet normal -0 0 -1
    outer loop
      vertex 12.4244 21.8 26
      vertex 1 1 26
      vertex 1 42.8 26
    endloop
  endfacet
  facet normal -0 0 -1
    outer loop
      vertex 12.5365 21.1043 26
      vertex 1 1 26
      vertex 12.472 21.317 26
    endloop
  endfacet
  facet normal -0 0 -1
    outer loop
      vertex 12.7176 20.6565 26
      vertex 1 1 26
      vertex 12.6128 20.8526 26
    endloop
  endfacet
  facet normal -0 0 -1
    outer loop
      vertex 12.8416 20.4246 26
      vertex 1 1 26
      vertex 12.7176 20.6565 26
    endloop
  endfacet
  facet normal -0 0 -1
    outer loop
      vertex 12.9827 20.2528 26
      vertex 1 1 26
      vertex 12.8416 20.4246 26
    endloop
  endfacet
  facet normal -0 0 -1
    outer loop
      vertex 13.3528 19.8827 26
      vertex 1 1 26
      vertex 13.1495 20.0495 26
    endloop
  endfacet
  facet normal 0 0 -1
    outer loop
      vertex 19.2028 36.3163 26
      vertex 28.8 42.8 26
      vertex 19.2537 35.8 26
    endloop
  endfacet
  facet normal 0 0 -1
    outer loop
      vertex 19.17 36.6494 26
      vertex 28.8 42.8 26
      vertex 19.2028 36.3163 26
    endloop
  endfacet
  facet normal 0 0 -1
    outer loop
      vertex 19.0194 37.1458 26
      vertex 28.8 42.8 26
      vertex 19.17 36.6494 26
    endloop
  endfacet
  facet normal 0 0 -1
    outer loop
      vertex 18.9223 37.4661 26
      vertex 28.8 42.8 26
      vertex 19.0194 37.1458 26
    endloop
  endfacet
  facet normal 0 0 -1
    outer loop
      vertex 18.7645 37.7612 26
      vertex 28.8 42.8 26
      vertex 18.9223 37.4661 26
    endloop
  endfacet
  facet normal 0 0 -1
    outer loop
      vertex 18.5199 38.2188 26
      vertex 28.8 42.8 26
      vertex 18.7645 37.7612 26
    endloop
  endfacet
  facet normal 0 0 -1
    outer loop
      vertex 18.3076 38.4775 26
      vertex 28.8 42.8 26
      vertex 18.5199 38.2188 26
    endloop
  endfacet
  facet normal 0 0 -1
    outer loop
      vertex 17.9785 38.8785 26
      vertex 28.8 42.8 26
      vertex 18.3076 38.4775 26
    endloop
  endfacet
  facet normal 0 0 -1
    outer loop
      vertex 17.7198 39.0908 26
      vertex 28.8 42.8 26
      vertex 17.9785 38.8785 26
    endloop
  endfacet
  facet normal 0 0 -1
    outer loop
      vertex 17.3188 39.4199 26
      vertex 28.8 42.8 26
      vertex 17.7198 39.0908 26
    endloop
  endfacet
  facet normal 0 0 -1
    outer loop
      vertex 17.0236 39.5777 26
      vertex 28.8 42.8 26
      vertex 17.3188 39.4199 26
    endloop
  endfacet
  facet normal 0 0 -1
    outer loop
      vertex 16.5661 39.8223 26
      vertex 28.8 42.8 26
      vertex 17.0236 39.5777 26
    endloop
  endfacet
  facet normal 0 0 -1
    outer loop
      vertex 16.0696 39.9728 26
      vertex 28.8 42.8 26
      vertex 16.5661 39.8223 26
    endloop
  endfacet
  facet normal 0 0 -1
    outer loop
      vertex 15.7494 40.07 26
      vertex 28.8 42.8 26
      vertex 16.0696 39.9728 26
    endloop
  endfacet
  facet normal 0 0 -1
    outer loop
      vertex 15.4163 40.1028 26
      vertex 28.8 42.8 26
      vertex 15.7494 40.07 26
    endloop
  endfacet
  facet normal 0 0 -1
    outer loop
      vertex 14.9 40.1537 26
      vertex 28.8 42.8 26
      vertex 15.4163 40.1028 26
    endloop
  endfacet
  facet normal 0 0 -1
    outer loop
      vertex 1 42.8 26
      vertex 14.9 40.1537 26
      vertex 14.3837 40.1028 26
    endloop
  endfacet
  facet normal 0 0 -1
    outer loop
      vertex 1 42.8 26
      vertex 14.3837 40.1028 26
      vertex 14.0506 40.07 26
    endloop
  endfacet
  facet normal 0 0 -1
    outer loop
      vertex 1 42.8 26
      vertex 10.7806 37.1458 26
      vertex 10.63 36.6494 26
    endloop
  endfacet
  facet normal 0 0 -1
    outer loop
      vertex 1 42.8 26
      vertex 10.5972 36.3163 26
      vertex 10.5463 35.8 26
    endloop
  endfacet
  facet normal 0 0 -1
    outer loop
      vertex 10.5972 35.2837 26
      vertex 1 42.8 26
      vertex 10.5463 35.8 26
    endloop
  endfacet
  facet normal 0 0 -1
    outer loop
      vertex 14.9 40.1537 26
      vertex 1 42.8 26
      vertex 28.8 42.8 26
    endloop
  endfacet
  facet normal 0 0 -1
    outer loop
      vertex 13.7304 39.9728 26
      vertex 1 42.8 26
      vertex 14.0506 40.07 26
    endloop
  endfacet
  facet normal 0 0 -1
    outer loop
      vertex 13.2339 39.8223 26
      vertex 1 42.8 26
      vertex 13.7304 39.9728 26
    endloop
  endfacet
  facet normal 0 0 -1
    outer loop
      vertex 12.7764 39.5777 26
      vertex 1 42.8 26
      vertex 13.2339 39.8223 26
    endloop
  endfacet
  facet normal 0 0 -1
    outer loop
      vertex 12.4812 39.4199 26
      vertex 1 42.8 26
      vertex 12.7764 39.5777 26
    endloop
  endfacet
  facet normal 0 0 -1
    outer loop
      vertex 12.2225 39.2076 26
      vertex 1 42.8 26
      vertex 12.4812 39.4199 26
    endloop
  endfacet
  facet normal 0 0 -1
    outer loop
      vertex 11.8215 38.8785 26
      vertex 1 42.8 26
      vertex 12.2225 39.2076 26
    endloop
  endfacet
  facet normal 0 0 -1
    outer loop
      vertex 11.4924 38.4775 26
      vertex 1 42.8 26
      vertex 11.8215 38.8785 26
    endloop
  endfacet
  facet normal 0 0 -1
    outer loop
      vertex 11.2801 38.2188 26
      vertex 1 42.8 26
      vertex 11.4924 38.4775 26
    endloop
  endfacet
  facet normal 0 0 -1
    outer loop
      vertex 11.0355 37.7612 26
      vertex 1 42.8 26
      vertex 11.2801 38.2188 26
    endloop
  endfacet
  facet normal 0 0 -1
    outer loop
      vertex 10.8777 37.4661 26
      vertex 1 42.8 26
      vertex 11.0355 37.7612 26
    endloop
  endfacet
  facet normal 0 0 -1
    outer loop
      vertex 10.7806 37.1458 26
      vertex 1 42.8 26
      vertex 10.8777 37.4661 26
    endloop
  endfacet
  facet normal 0 0 -1
    outer loop
      vertex 10.5972 36.3163 26
      vertex 1 42.8 26
      vertex 10.63 36.6494 26
    endloop
  endfacet
  facet normal 0 0 -1
    outer loop
      vertex 18.7645 33.8388 26
      vertex 17.328 22.283 26
      vertex 18.5199 33.3812 26
    endloop
  endfacet
  facet normal 0 0 -1
    outer loop
      vertex 18.5199 33.3812 26
      vertex 17.1872 22.7474 26
      vertex 18.3076 33.1225 26
    endloop
  endfacet
  facet normal 0 0 -1
    outer loop
      vertex 18.3076 33.1225 26
      vertex 17.1872 22.7474 26
      vertex 17.9785 32.7215 26
    endloop
  endfacet
  facet normal 0 0 -1
    outer loop
      vertex 17.0824 22.9435 26
      vertex 17.9785 32.7215 26
      vertex 17.1872 22.7474 26
    endloop
  endfacet
  facet normal 0 0 -1
    outer loop
      vertex 16.9584 23.1754 26
      vertex 17.9785 32.7215 26
      vertex 17.0824 22.9435 26
    endloop
  endfacet
  facet normal 0 0 -1
    outer loop
      vertex 17.9785 32.7215 26
      vertex 16.9584 23.1754 26
      vertex 17.7198 32.5092 26
    endloop
  endfacet
  facet normal 0 0 -1
    outer loop
      vertex 16.7916 23.3787 26
      vertex 17.7198 32.5092 26
      vertex 16.9584 23.1754 26
    endloop
  endfacet
  facet normal 0 0 -1
    outer loop
      vertex 16.6505 23.5505 26
      vertex 17.7198 32.5092 26
      vertex 16.7916 23.3787 26
    endloop
  endfacet
  facet normal 0 0 -1
    outer loop
      vertex 17.7198 32.5092 26
      vertex 16.6505 23.5505 26
      vertex 17.3188 32.1801 26
    endloop
  endfacet
  facet normal 0 0 -1
    outer loop
      vertex 16.4472 23.7173 26
      vertex 17.3188 32.1801 26
      vertex 16.6505 23.5505 26
    endloop
  endfacet
  facet normal 0 0 -1
    outer loop
      vertex 17.3188 32.1801 26
      vertex 16.4472 23.7173 26
      vertex 17.0236 32.0223 26
    endloop
  endfacet
  facet normal 0 0 -1
    outer loop
      vertex 16.2754 23.8584 26
      vertex 17.0236 32.0223 26
      vertex 16.4472 23.7173 26
    endloop
  endfacet
  facet normal 0 0 -1
    outer loop
      vertex 17.0236 32.0223 26
      vertex 16.2754 23.8584 26
      vertex 16.5661 31.7777 26
    endloop
  endfacet
  facet normal 0 0 -1
    outer loop
      vertex 16.0435 23.9824 26
      vertex 16.5661 31.7777 26
      vertex 16.2754 23.8584 26
    endloop
  endfacet
  facet normal 0 0 -1
    outer loop
      vertex 15.8474 24.0872 26
      vertex 16.5661 31.7777 26
      vertex 16.0435 23.9824 26
    endloop
  endfacet
  facet normal 0 0 -1
    outer loop
      vertex 16.5661 31.7777 26
      vertex 15.8474 24.0872 26
      vertex 16.0696 31.6272 26
    endloop
  endfacet
  facet normal 0 0 -1
    outer loop
      vertex 15.8474 24.0872 26
      vertex 15.7494 31.53 26
      vertex 16.0696 31.6272 26
    endloop
  endfacet
  facet normal 0 0 -1
    outer loop
      vertex 15.5957 24.1635 26
      vertex 15.7494 31.53 26
      vertex 15.8474 24.0872 26
    endloop
  endfacet
  facet normal 0 0 -1
    outer loop
      vertex 15.383 24.228 26
      vertex 15.7494 31.53 26
      vertex 15.5957 24.1635 26
    endloop
  endfacet
  facet normal 0 0 -1
    outer loop
      vertex 15.383 24.228 26
      vertex 15.2331 31.4791 26
      vertex 15.7494 31.53 26
    endloop
  endfacet
  facet normal 0 0 -1
    outer loop
      vertex 15.1617 24.2498 26
      vertex 15.2331 31.4791 26
      vertex 15.383 24.228 26
    endloop
  endfacet
  facet normal 0 0 -1
    outer loop
      vertex 14.9 24.2756 26
      vertex 15.2331 31.4791 26
      vertex 15.1617 24.2498 26
    endloop
  endfacet
  facet normal 0 0 -1
    outer loop
      vertex 14.9 24.2756 26
      vertex 14.9 31.4463 26
      vertex 15.2331 31.4791 26
    endloop
  endfacet
  facet normal 0 0 -1
    outer loop
      vertex 14.6787 24.2538 26
      vertex 14.9 31.4463 26
      vertex 14.9 24.2756 26
    endloop
  endfacet
  facet normal 0 0 -1
    outer loop
      vertex 14.6787 24.2538 26
      vertex 14.5669 31.4791 26
      vertex 14.9 31.4463 26
    endloop
  endfacet
  facet normal 0 0 -1
    outer loop
      vertex 14.417 24.228 26
      vertex 14.5669 31.4791 26
      vertex 14.6787 24.2538 26
    endloop
  endfacet
  facet normal 0 0 -1
    outer loop
      vertex 14.0506 31.53 26
      vertex 14.417 24.228 26
      vertex 14.1654 24.1517 26
    endloop
  endfacet
  facet normal 0 0 -1
    outer loop
      vertex 14.417 24.228 26
      vertex 14.0506 31.53 26
      vertex 14.5669 31.4791 26
    endloop
  endfacet
  facet normal 0 0 -1
    outer loop
      vertex 13.9526 24.0872 26
      vertex 14.0506 31.53 26
      vertex 14.1654 24.1517 26
    endloop
  endfacet
  facet normal 0 0 -1
    outer loop
      vertex 13.2339 31.7777 26
      vertex 13.9526 24.0872 26
      vertex 13.7565 23.9824 26
    endloop
  endfacet
  facet normal 0 0 -1
    outer loop
      vertex 13.9526 24.0872 26
      vertex 13.7304 31.6272 26
      vertex 14.0506 31.53 26
    endloop
  endfacet
  facet normal 0 0 -1
    outer loop
      vertex 13.2339 31.7777 26
      vertex 13.7565 23.9824 26
      vertex 13.5246 23.8584 26
    endloop
  endfacet
  facet normal 0 0 -1
    outer loop
      vertex 12.7764 32.0223 26
      vertex 13.5246 23.8584 26
      vertex 13.3213 23.6916 26
    endloop
  endfacet
  facet normal 0 0 -1
    outer loop
      vertex 13.9526 24.0872 26
      vertex 13.2339 31.7777 26
      vertex 13.7304 31.6272 26
    endloop
  endfacet
  facet normal 0 0 -1
    outer loop
      vertex 12.4812 32.1801 26
      vertex 13.3213 23.6916 26
      vertex 13.1495 23.5505 26
    endloop
  endfacet
  facet normal 0 0 -1
    outer loop
      vertex 12.2225 32.3924 26
      vertex 13.1495 23.5505 26
      vertex 13.0084 23.3787 26
    endloop
  endfacet
  facet normal 0 0 -1
    outer loop
      vertex 12.2225 32.3924 26
      vertex 13.0084 23.3787 26
      vertex 12.8416 23.1754 26
    endloop
  endfacet
  facet normal 0 0 -1
    outer loop
      vertex 13.5246 23.8584 26
      vertex 12.7764 32.0223 26
      vertex 13.2339 31.7777 26
    endloop
  endfacet
  facet normal 0 0 -1
    outer loop
      vertex 11.8215 32.7215 26
      vertex 12.8416 23.1754 26
      vertex 12.7176 22.9435 26
    endloop
  endfacet
  facet normal 0 0 -1
    outer loop
      vertex 11.8215 32.7215 26
      vertex 12.7176 22.9435 26
      vertex 12.6128 22.7474 26
    endloop
  endfacet
  facet normal 0 0 -1
    outer loop
      vertex 11.8215 32.7215 26
      vertex 12.6128 22.7474 26
      vertex 12.5483 22.5346 26
    endloop
  endfacet
  facet normal 0 0 -1
    outer loop
      vertex 13.3213 23.6916 26
      vertex 12.4812 32.1801 26
      vertex 12.7764 32.0223 26
    endloop
  endfacet
  facet normal 0 0 -1
    outer loop
      vertex 11.8215 32.7215 26
      vertex 12.5483 22.5346 26
      vertex 12.472 22.283 26
    endloop
  endfacet
  facet normal 0 0 -1
    outer loop
      vertex 11.8215 32.7215 26
      vertex 12.472 22.283 26
      vertex 12.4462 22.0213 26
    endloop
  endfacet
  facet normal 0 0 -1
    outer loop
      vertex 1 42.8 26
      vertex 12.4462 22.0213 26
      vertex 12.4244 21.8 26
    endloop
  endfacet
  facet normal 0 0 -1
    outer loop
      vertex 13.1495 23.5505 26
      vertex 12.2225 32.3924 26
      vertex 12.4812 32.1801 26
    endloop
  endfacet
  facet normal -1 0 0
    outer loop
      vertex 1 1 26
      vertex 1 42.8 27.7
      vertex 1 42.8 26
    endloop
  endfacet
  facet normal -1 -0 0
    outer loop
      vertex 1 42.8 27.7
      vertex 1 1 26
      vertex 1 1 27.7
    endloop
  endfacet
  facet normal 0 1 -0
    outer loop
      vertex 28.8 42.8 26
      vertex 1 42.8 27.7
      vertex 28.8 42.8 27.7
    endloop
  endfacet
  facet normal 0 1 0
    outer loop
      vertex 1 42.8 27.7
      vertex 28.8 42.8 26
      vertex 1 42.8 26
    endloop
  endfacet
  facet normal 0 -1 0
    outer loop
      vertex 1 1 26
      vertex 28.8 1 27.7
      vertex 1 1 27.7
    endloop
  endfacet
  facet normal 0 -1 -0
    outer loop
      vertex 28.8 1 27.7
      vertex 1 1 26
      vertex 28.8 1 26
    endloop
  endfacet
  facet normal 1 -0 0
    outer loop
      vertex 27.7 2.1 29
      vertex 27.7 41.7 27.7
      vertex 27.7 41.7 29
    endloop
  endfacet
  facet normal 1 0 0
    outer loop
      vertex 27.7 41.7 27.7
      vertex 27.7 2.1 29
      vertex 27.7 2.1 27.7
    endloop
  endfacet
  facet normal 0 0 1
    outer loop
      vertex 2.1 41.7 29
      vertex 8.12309 37.165 29
      vertex 8.51171 38.4461 29
    endloop
  endfacet
  facet normal 0 0 1
    outer loop
      vertex 7.98701 35.8167 29
      vertex 2.1 41.7 29
      vertex 7.98536 35.8 29
    endloop
  endfacet
  facet normal 0 0 1
    outer loop
      vertex 8.11823 37.149 29
      vertex 2.1 41.7 29
      vertex 7.98701 35.8167 29
    endloop
  endfacet
  facet normal 0 0 1
    outer loop
      vertex 8.12309 37.165 29
      vertex 2.1 41.7 29
      vertex 8.11823 37.149 29
    endloop
  endfacet
  facet normal 0 0 1
    outer loop
      vertex 9.1428 39.6268 29
      vertex 2.1 41.7 29
      vertex 8.51171 38.4461 29
    endloop
  endfacet
  facet normal 0 0 1
    outer loop
      vertex 9.15069 39.6416 29
      vertex 2.1 41.7 29
      vertex 9.1428 39.6268 29
    endloop
  endfacet
  facet normal 0 0 1
    outer loop
      vertex 10 40.6764 29
      vertex 2.1 41.7 29
      vertex 9.15069 39.6416 29
    endloop
  endfacet
  facet normal 0 0 1
    outer loop
      vertex 10.0106 40.6894 29
      vertex 2.1 41.7 29
      vertex 10 40.6764 29
    endloop
  endfacet
  facet normal 0 0 1
    outer loop
      vertex 10.0236 40.7 29
      vertex 2.1 41.7 29
      vertex 10.0106 40.6894 29
    endloop
  endfacet
  facet normal 0 0 1
    outer loop
      vertex 11.0584 41.5493 29
      vertex 2.1 41.7 29
      vertex 10.0236 40.7 29
    endloop
  endfacet
  facet normal -0 0 1
    outer loop
      vertex 2.1 41.7 29
      vertex 11.0584 41.5493 29
      vertex 11.3404 41.7 29
    endloop
  endfacet
  facet normal 0 0 1
    outer loop
      vertex 27.7 41.7 29
      vertex 20.3017 21.8071 29
      vertex 20.3024 21.8 29
    endloop
  endfacet
  facet normal 0 0 1
    outer loop
      vertex 20.6572 31.9732 29
      vertex 20.1986 22.854 29
      vertex 20.3017 21.8071 29
    endloop
  endfacet
  facet normal 0 0 1
    outer loop
      vertex 20.6572 31.9732 29
      vertex 19.8933 23.8606 29
      vertex 20.1986 22.854 29
    endloop
  endfacet
  facet normal 0 0 1
    outer loop
      vertex 20.6493 31.9584 29
      vertex 19.8912 23.8674 29
      vertex 19.8933 23.8606 29
    endloop
  endfacet
  facet normal 0 0 1
    outer loop
      vertex 20.6493 31.9584 29
      vertex 19.8878 23.8737 29
      vertex 19.8912 23.8674 29
    endloop
  endfacet
  facet normal 0 0 1
    outer loop
      vertex 19.392 24.8014 29
      vertex 20.6493 31.9584 29
      vertex 19.8 30.9235 29
    endloop
  endfacet
  facet normal 0 0 1
    outer loop
      vertex 19.392 24.8014 29
      vertex 19.8 30.9235 29
      vertex 19.7894 30.9106 29
    endloop
  endfacet
  facet normal 0 0 1
    outer loop
      vertex 20.6493 31.9584 29
      vertex 19.392 24.8014 29
      vertex 19.8878 23.8737 29
    endloop
  endfacet
  facet normal 0 0 1
    outer loop
      vertex 18.7247 25.6146 29
      vertex 19.7894 30.9106 29
      vertex 18.7545 30.0613 29
    endloop
  endfacet
  facet normal 0 0 1
    outer loop
      vertex 18.7201 25.6201 29
      vertex 18.7545 30.0613 29
      vertex 18.7416 30.0507 29
    endloop
  endfacet
  facet normal 0 0 1
    outer loop
      vertex 19.7894 30.9106 29
      vertex 18.7247 25.6146 29
      vertex 19.392 24.8014 29
    endloop
  endfacet
  facet normal 0 0 1
    outer loop
      vertex 18.7545 30.0613 29
      vertex 18.7201 25.6201 29
      vertex 18.7247 25.6146 29
    endloop
  endfacet
  facet normal 0 0 1
    outer loop
      vertex 18.7416 30.0507 29
      vertex 17.907 26.2874 29
      vertex 18.7201 25.6201 29
    endloop
  endfacet
  facet normal 0 0 1
    outer loop
      vertex 18.7416 30.0507 29
      vertex 17.9014 26.292 29
      vertex 17.907 26.2874 29
    endloop
  endfacet
  facet normal -0 0 1
    outer loop
      vertex 17.5609 29.4196 29
      vertex 17.9014 26.292 29
      vertex 18.7416 30.0507 29
    endloop
  endfacet
  facet normal -0 0 1
    outer loop
      vertex 17.5461 29.4117 29
      vertex 17.9014 26.292 29
      vertex 17.5609 29.4196 29
    endloop
  endfacet
  facet normal 0 0 1
    outer loop
      vertex 16.9737 26.7878 29
      vertex 17.5461 29.4117 29
      vertex 17.5301 29.4069 29
    endloop
  endfacet
  facet normal 0 0 1
    outer loop
      vertex 17.5461 29.4117 29
      vertex 16.9737 26.7878 29
      vertex 17.9014 26.292 29
    endloop
  endfacet
  facet normal 0 0 1
    outer loop
      vertex 17.5301 29.4069 29
      vertex 16.9674 26.7912 29
      vertex 16.9737 26.7878 29
    endloop
  endfacet
  facet normal -0 0 1
    outer loop
      vertex 16.249 29.0182 29
      vertex 16.9674 26.7912 29
      vertex 17.5301 29.4069 29
    endloop
  endfacet
  facet normal 0 0 1
    outer loop
      vertex 15.9608 27.0966 29
      vertex 16.249 29.0182 29
      vertex 16.2323 29.0166 29
    endloop
  endfacet
  facet normal 0 0 1
    outer loop
      vertex 16.249 29.0182 29
      vertex 15.9608 27.0966 29
      vertex 16.9674 26.7912 29
    endloop
  endfacet
  facet normal 0 0 1
    outer loop
      vertex 16.2323 29.0166 29
      vertex 15.954 27.0986 29
      vertex 15.9608 27.0966 29
    endloop
  endfacet
  facet normal 0 0 1
    outer loop
      vertex 16.2323 29.0166 29
      vertex 15.9468 27.0993 29
      vertex 15.954 27.0986 29
    endloop
  endfacet
  facet normal -0 0 1
    outer loop
      vertex 14.9 28.8854 29
      vertex 15.9468 27.0993 29
      vertex 16.2323 29.0166 29
    endloop
  endfacet
  facet normal 0 0 1
    outer loop
      vertex 14.9 28.8854 29
      vertex 14.9 27.2024 29
      vertex 15.9468 27.0993 29
    endloop
  endfacet
  facet normal 0 0 1
    outer loop
      vertex 14.9 28.8854 29
      vertex 14.8929 27.2017 29
      vertex 14.9 27.2024 29
    endloop
  endfacet
  facet normal 0 0 1
    outer loop
      vertex 14.9 28.8854 29
      vertex 13.846 27.0986 29
      vertex 14.8929 27.2017 29
    endloop
  endfacet
  facet normal 0 0 1
    outer loop
      vertex 13.5677 29.0166 29
      vertex 13.846 27.0986 29
      vertex 14.9 28.8854 29
    endloop
  endfacet
  facet normal 0 0 1
    outer loop
      vertex 13.551 29.0182 29
      vertex 13.846 27.0986 29
      vertex 13.5677 29.0166 29
    endloop
  endfacet
  facet normal 0 0 1
    outer loop
      vertex 13.551 29.0182 29
      vertex 12.8394 26.7933 29
      vertex 13.846 27.0986 29
    endloop
  endfacet
  facet normal 0 0 1
    outer loop
      vertex 12.2699 29.4069 29
      vertex 12.8394 26.7933 29
      vertex 13.551 29.0182 29
    endloop
  endfacet
  facet normal 0 0 1
    outer loop
      vertex 12.8394 26.7933 29
      vertex 12.2699 29.4069 29
      vertex 12.8326 26.7912 29
    endloop
  endfacet
  facet normal 0 0 1
    outer loop
      vertex 12.8326 26.7912 29
      vertex 12.2699 29.4069 29
      vertex 12.8263 26.7878 29
    endloop
  endfacet
  facet normal 0 0 1
    outer loop
      vertex 12.2539 29.4117 29
      vertex 12.8263 26.7878 29
      vertex 12.2699 29.4069 29
    endloop
  endfacet
  facet normal 0 0 1
    outer loop
      vertex 11.8986 26.292 29
      vertex 12.2539 29.4117 29
      vertex 12.2391 29.4196 29
    endloop
  endfacet
  facet normal 0 0 1
    outer loop
      vertex 12.2539 29.4117 29
      vertex 11.8986 26.292 29
      vertex 12.8263 26.7878 29
    endloop
  endfacet
  facet normal 0 0 1
    outer loop
      vertex 11.0584 30.0507 29
      vertex 11.8986 26.292 29
      vertex 12.2391 29.4196 29
    endloop
  endfacet
  facet normal 0 0 1
    outer loop
      vertex 11.8986 26.292 29
      vertex 11.0584 30.0507 29
      vertex 11.0854 25.6247 29
    endloop
  endfacet
  facet normal 0 0 1
    outer loop
      vertex 11.0854 25.6247 29
      vertex 11.0584 30.0507 29
      vertex 11.0799 25.6201 29
    endloop
  endfacet
  facet normal 0 0 1
    outer loop
      vertex 11.0799 25.6201 29
      vertex 11.0584 30.0507 29
      vertex 11.0753 25.6146 29
    endloop
  endfacet
  facet normal 0 0 1
    outer loop
      vertex 10.0236 30.9 29
      vertex 11.0753 25.6146 29
      vertex 11.0584 30.0507 29
    endloop
  endfacet
  facet normal 0 0 1
    outer loop
      vertex 11.0753 25.6146 29
      vertex 10.0236 30.9 29
      vertex 10.408 24.8014 29
    endloop
  endfacet
  facet normal 0 0 1
    outer loop
      vertex 10.0106 30.9106 29
      vertex 10.408 24.8014 29
      vertex 10.0236 30.9 29
    endloop
  endfacet
  facet normal 0 0 1
    outer loop
      vertex 10 30.9235 29
      vertex 10.408 24.8014 29
      vertex 10.0106 30.9106 29
    endloop
  endfacet
  facet normal 0 0 1
    outer loop
      vertex 9.15069 31.9584 29
      vertex 10.408 24.8014 29
      vertex 10 30.9235 29
    endloop
  endfacet
  facet normal 0 0 1
    outer loop
      vertex 10.408 24.8014 29
      vertex 9.15069 31.9584 29
      vertex 9.91218 23.8737 29
    endloop
  endfacet
  facet normal 0 0 1
    outer loop
      vertex 9.91218 23.8737 29
      vertex 9.15069 31.9584 29
      vertex 9.9088 23.8674 29
    endloop
  endfacet
  facet normal 0 0 1
    outer loop
      vertex 9.9088 23.8674 29
      vertex 9.15069 31.9584 29
      vertex 9.90671 23.8606 29
    endloop
  endfacet
  facet normal 0 0 1
    outer loop
      vertex 9.1428 31.9732 29
      vertex 9.90671 23.8606 29
      vertex 9.15069 31.9584 29
    endloop
  endfacet
  facet normal 0 0 1
    outer loop
      vertex 9.90671 23.8606 29
      vertex 9.1428 31.9732 29
      vertex 9.60137 22.854 29
    endloop
  endfacet
  facet normal 0 0 1
    outer loop
      vertex 8.51171 33.1539 29
      vertex 9.60137 22.854 29
      vertex 9.1428 31.9732 29
    endloop
  endfacet
  facet normal 0 0 1
    outer loop
      vertex 21.813 35.7833 29
      vertex 27.7 41.7 29
      vertex 21.8146 35.8 29
    endloop
  endfacet
  facet normal 0 0 1
    outer loop
      vertex 27.7 41.7 29
      vertex 21.813 35.8167 29
      vertex 21.8146 35.8 29
    endloop
  endfacet
  facet normal 0 0 1
    outer loop
      vertex 27.7 41.7 29
      vertex 21.6818 37.149 29
      vertex 21.813 35.8167 29
    endloop
  endfacet
  facet normal 0 0 1
    outer loop
      vertex 27.7 41.7 29
      vertex 21.6769 37.165 29
      vertex 21.6818 37.149 29
    endloop
  endfacet
  facet normal 0 0 1
    outer loop
      vertex 27.7 41.7 29
      vertex 21.2883 38.4461 29
      vertex 21.6769 37.165 29
    endloop
  endfacet
  facet normal 0 0 1
    outer loop
      vertex 27.7 41.7 29
      vertex 20.6572 39.6268 29
      vertex 21.2883 38.4461 29
    endloop
  endfacet
  facet normal 0 0 1
    outer loop
      vertex 27.7 41.7 29
      vertex 20.6493 39.6416 29
      vertex 20.6572 39.6268 29
    endloop
  endfacet
  facet normal 0 0 1
    outer loop
      vertex 27.7 41.7 29
      vertex 19.8 40.6764 29
      vertex 20.6493 39.6416 29
    endloop
  endfacet
  facet normal 0 0 1
    outer loop
      vertex 27.7 41.7 29
      vertex 19.7894 40.6894 29
      vertex 19.8 40.6764 29
    endloop
  endfacet
  facet normal 0 0 1
    outer loop
      vertex 27.7 41.7 29
      vertex 18.7545 41.5387 29
      vertex 19.7894 40.6894 29
    endloop
  endfacet
  facet normal 0 0 1
    outer loop
      vertex 27.7 41.7 29
      vertex 18.7416 41.5493 29
      vertex 18.7545 41.5387 29
    endloop
  endfacet
  facet normal 0 -0 1
    outer loop
      vertex 18.7416 41.5493 29
      vertex 27.7 41.7 29
      vertex 18.4596 41.7 29
    endloop
  endfacet
  facet normal 0 0 1
    outer loop
      vertex 21.6818 34.451 29
      vertex 27.7 41.7 29
      vertex 21.813 35.7833 29
    endloop
  endfacet
  facet normal 0 0 1
    outer loop
      vertex 21.6769 34.435 29
      vertex 27.7 41.7 29
      vertex 21.6818 34.451 29
    endloop
  endfacet
  facet normal 0 0 1
    outer loop
      vertex 21.2883 33.1539 29
      vertex 27.7 41.7 29
      vertex 21.6769 34.435 29
    endloop
  endfacet
  facet normal 0 0 1
    outer loop
      vertex 20.3017 21.8071 29
      vertex 27.7 41.7 29
      vertex 21.2883 33.1539 29
    endloop
  endfacet
  facet normal 0 0 1
    outer loop
      vertex 20.3017 21.8071 29
      vertex 21.2883 33.1539 29
      vertex 20.6572 31.9732 29
    endloop
  endfacet
  facet normal 0 0 1
    outer loop
      vertex 19.8933 23.8606 29
      vertex 20.6572 31.9732 29
      vertex 20.6493 31.9584 29
    endloop
  endfacet
  facet normal 0 0 1
    outer loop
      vertex 27.7 41.7 29
      vertex 20.3024 21.8 29
      vertex 27.7 2.1 29
    endloop
  endfacet
  facet normal -0 0 1
    outer loop
      vertex 20.3017 21.7929 29
      vertex 27.7 2.1 29
      vertex 20.3024 21.8 29
    endloop
  endfacet
  facet normal -0 0 1
    outer loop
      vertex 20.1986 20.746 29
      vertex 27.7 2.1 29
      vertex 20.3017 21.7929 29
    endloop
  endfacet
  facet normal -0 0 1
    outer loop
      vertex 20.1966 20.7392 29
      vertex 27.7 2.1 29
      vertex 20.1986 20.746 29
    endloop
  endfacet
  facet normal -0 0 1
    outer loop
      vertex 19.8912 19.7326 29
      vertex 27.7 2.1 29
      vertex 20.1966 20.7392 29
    endloop
  endfacet
  facet normal -0 0 1
    outer loop
      vertex 19.3953 18.8049 29
      vertex 27.7 2.1 29
      vertex 19.8912 19.7326 29
    endloop
  endfacet
  facet normal -0 0 1
    outer loop
      vertex 19.392 18.7986 29
      vertex 27.7 2.1 29
      vertex 19.3953 18.8049 29
    endloop
  endfacet
  facet normal -0 0 1
    outer loop
      vertex 19.3874 18.793 29
      vertex 27.7 2.1 29
      vertex 19.392 18.7986 29
    endloop
  endfacet
  facet normal -0 0 1
    outer loop
      vertex 18.7201 17.9799 29
      vertex 27.7 2.1 29
      vertex 19.3874 18.793 29
    endloop
  endfacet
  facet normal -0 0 1
    outer loop
      vertex 17.907 17.3126 29
      vertex 27.7 2.1 29
      vertex 18.7201 17.9799 29
    endloop
  endfacet
  facet normal -0 0 1
    outer loop
      vertex 17.9014 17.308 29
      vertex 27.7 2.1 29
      vertex 17.907 17.3126 29
    endloop
  endfacet
  facet normal -0 0 1
    outer loop
      vertex 17.8951 17.3047 29
      vertex 27.7 2.1 29
      vertex 17.9014 17.308 29
    endloop
  endfacet
  facet normal -0 0 1
    outer loop
      vertex 16.9674 16.8088 29
      vertex 27.7 2.1 29
      vertex 17.8951 17.3047 29
    endloop
  endfacet
  facet normal -0 0 1
    outer loop
      vertex 15.9608 16.5034 29
      vertex 27.7 2.1 29
      vertex 16.9674 16.8088 29
    endloop
  endfacet
  facet normal -0 0 1
    outer loop
      vertex 15.954 16.5014 29
      vertex 27.7 2.1 29
      vertex 15.9608 16.5034 29
    endloop
  endfacet
  facet normal -0 0 1
    outer loop
      vertex 14.9071 16.3983 29
      vertex 27.7 2.1 29
      vertex 15.954 16.5014 29
    endloop
  endfacet
  facet normal -0 0 1
    outer loop
      vertex 14.9 16.3976 29
      vertex 27.7 2.1 29
      vertex 14.9071 16.3983 29
    endloop
  endfacet
  facet normal 0 0 1
    outer loop
      vertex 2.1 2.1 29
      vertex 14.9 16.3976 29
      vertex 14.8929 16.3983 29
    endloop
  endfacet
  facet normal 0 0 1
    outer loop
      vertex 2.1 2.1 29
      vertex 14.8929 16.3983 29
      vertex 13.846 16.5014 29
    endloop
  endfacet
  facet normal 0 0 1
    outer loop
      vertex 2.1 2.1 29
      vertex 13.846 16.5014 29
      vertex 12.8394 16.8067 29
    endloop
  endfacet
  facet normal 0 0 1
    outer loop
      vertex 2.1 2.1 29
      vertex 12.8394 16.8067 29
      vertex 12.8326 16.8088 29
    endloop
  endfacet
  facet normal 0 0 1
    outer loop
      vertex 2.1 2.1 29
      vertex 12.8326 16.8088 29
      vertex 11.9049 17.3047 29
    endloop
  endfacet
  facet normal 0 0 1
    outer loop
      vertex 2.1 2.1 29
      vertex 11.9049 17.3047 29
      vertex 11.8986 17.308 29
    endloop
  endfacet
  facet normal 0 0 1
    outer loop
      vertex 2.1 2.1 29
      vertex 11.8986 17.308 29
      vertex 11.893 17.3126 29
    endloop
  endfacet
  facet normal 0 0 1
    outer loop
      vertex 2.1 2.1 29
      vertex 11.893 17.3126 29
      vertex 11.0799 17.9799 29
    endloop
  endfacet
  facet normal 0 0 1
    outer loop
      vertex 2.1 2.1 29
      vertex 9.91218 19.7262 29
      vertex 9.9088 19.7326 29
    endloop
  endfacet
  facet normal 0 0 1
    outer loop
      vertex 2.1 2.1 29
      vertex 9.60345 20.7392 29
      vertex 9.60137 20.746 29
    endloop
  endfacet
  facet normal 0 0 1
    outer loop
      vertex 2.1 2.1 29
      vertex 9.60066 20.7532 29
      vertex 9.49756 21.8 29
    endloop
  endfacet
  facet normal 0 0 1
    outer loop
      vertex 2.1 41.7 29
      vertex 9.60137 22.854 29
      vertex 8.51171 33.1539 29
    endloop
  endfacet
  facet normal 0 0 1
    outer loop
      vertex 9.60137 22.854 29
      vertex 2.1 41.7 29
      vertex 9.49826 21.8071 29
    endloop
  endfacet
  facet normal 0 0 1
    outer loop
      vertex 2.1 41.7 29
      vertex 8.51171 33.1539 29
      vertex 8.12309 34.435 29
    endloop
  endfacet
  facet normal 0 0 1
    outer loop
      vertex 9.49826 21.8071 29
      vertex 2.1 41.7 29
      vertex 9.49756 21.8 29
    endloop
  endfacet
  facet normal 0 0 1
    outer loop
      vertex 2.1 41.7 29
      vertex 8.12309 34.435 29
      vertex 8.11823 34.451 29
    endloop
  endfacet
  facet normal 0 0 1
    outer loop
      vertex 2.1 41.7 29
      vertex 7.98701 35.7833 29
      vertex 7.98536 35.8 29
    endloop
  endfacet
  facet normal 0 0 1
    outer loop
      vertex 2.1 41.7 29
      vertex 8.11823 34.451 29
      vertex 7.98701 35.7833 29
    endloop
  endfacet
  facet normal 0 0 1
    outer loop
      vertex 2.1 2.1 29
      vertex 9.49756 21.8 29
      vertex 2.1 41.7 29
    endloop
  endfacet
  facet normal 0 0 1
    outer loop
      vertex 9.60066 20.7532 29
      vertex 2.1 2.1 29
      vertex 9.60137 20.746 29
    endloop
  endfacet
  facet normal 0 0 1
    outer loop
      vertex 14.9 16.3976 29
      vertex 2.1 2.1 29
      vertex 27.7 2.1 29
    endloop
  endfacet
  facet normal 0 0 1
    outer loop
      vertex 10.4126 18.793 29
      vertex 2.1 2.1 29
      vertex 11.0799 17.9799 29
    endloop
  endfacet
  facet normal 0 0 1
    outer loop
      vertex 10.408 18.7986 29
      vertex 2.1 2.1 29
      vertex 10.4126 18.793 29
    endloop
  endfacet
  facet normal 0 0 1
    outer loop
      vertex 9.91218 19.7262 29
      vertex 2.1 2.1 29
      vertex 10.408 18.7986 29
    endloop
  endfacet
  facet normal 0 0 1
    outer loop
      vertex 9.60345 20.7392 29
      vertex 2.1 2.1 29
      vertex 9.9088 19.7326 29
    endloop
  endfacet
  facet normal -1 0 0
    outer loop
      vertex 2.1 2.1 27.7
      vertex 2.1 41.7 29
      vertex 2.1 41.7 27.7
    endloop
  endfacet
  facet normal -1 -0 0
    outer loop
      vertex 2.1 41.7 29
      vertex 2.1 2.1 27.7
      vertex 2.1 2.1 29
    endloop
  endfacet
  facet normal 0 1 -0
    outer loop
      vertex 27.7 41.7 27.7
      vertex 18.4596 41.7 29
      vertex 27.7 41.7 29
    endloop
  endfacet
  facet normal 0 1 0
    outer loop
      vertex 18.4596 41.7 29
      vertex 27.7 41.7 27.7
      vertex 17.4617 41.7 28.4463
    endloop
  endfacet
  facet normal 0 1 0
    outer loop
      vertex 17.4617 41.7 28.4463
      vertex 27.7 41.7 27.7
      vertex 17.3439 41.7 28.3809
    endloop
  endfacet
  facet normal 0 1 0
    outer loop
      vertex 17.3439 41.7 28.3809
      vertex 27.7 41.7 27.7
      vertex 17.2057 41.7 28.3337
    endloop
  endfacet
  facet normal 0 1 0
    outer loop
      vertex 17.2057 41.7 28.3337
      vertex 27.7 41.7 27.7
      vertex 16.0736 41.7 27.9468
    endloop
  endfacet
  facet normal 0 1 0
    outer loop
      vertex 16.0736 41.7 27.9468
      vertex 27.7 41.7 27.7
      vertex 15.1106 41.7 27.8357
    endloop
  endfacet
  facet normal 0 1 0
    outer loop
      vertex 15.1106 41.7 27.8357
      vertex 27.7 41.7 27.7
      vertex 14.9 41.7 27.8114
    endloop
  endfacet
  facet normal 0 1 0
    outer loop
      vertex 2.1 41.7 27.7
      vertex 11.3404 41.7 29
      vertex 12.3383 41.7 28.4463
    endloop
  endfacet
  facet normal 0 1 0
    outer loop
      vertex 2.1 41.7 27.7
      vertex 12.3383 41.7 28.4463
      vertex 12.4561 41.7 28.3809
    endloop
  endfacet
  facet normal 0 1 0
    outer loop
      vertex 2.1 41.7 27.7
      vertex 12.4561 41.7 28.3809
      vertex 12.5943 41.7 28.3337
    endloop
  endfacet
  facet normal 0 1 0
    outer loop
      vertex 2.1 41.7 27.7
      vertex 12.5943 41.7 28.3337
      vertex 13.7264 41.7 27.9468
    endloop
  endfacet
  facet normal 0 1 0
    outer loop
      vertex 2.1 41.7 27.7
      vertex 13.7264 41.7 27.9468
      vertex 14.6894 41.7 27.8357
    endloop
  endfacet
  facet normal 0 1 0
    outer loop
      vertex 2.1 41.7 27.7
      vertex 14.6894 41.7 27.8357
      vertex 14.9 41.7 27.8114
    endloop
  endfacet
  facet normal 0 1 0
    outer loop
      vertex 11.3404 41.7 29
      vertex 2.1 41.7 27.7
      vertex 2.1 41.7 29
    endloop
  endfacet
  facet normal 0 1 0
    outer loop
      vertex 2.1 41.7 27.7
      vertex 14.9 41.7 27.8114
      vertex 27.7 41.7 27.7
    endloop
  endfacet
  facet normal 0 -1 0
    outer loop
      vertex 2.1 2.1 27.7
      vertex 27.7 2.1 29
      vertex 2.1 2.1 29
    endloop
  endfacet
  facet normal 0 -1 -0
    outer loop
      vertex 27.7 2.1 29
      vertex 2.1 2.1 27.7
      vertex 27.7 2.1 27.7
    endloop
  endfacet
  facet normal -0.714013 -0.0703365 0.696591
    outer loop
      vertex 17.3756 21.8 26
      vertex 20.3017 21.8071 29
      vertex 17.3538 22.0213 26
    endloop
  endfacet
  facet normal -0.71401 -0.0703953 0.696588
    outer loop
      vertex 20.3017 21.8071 29
      vertex 17.3756 21.8 26
      vertex 20.3024 21.8 29
    endloop
  endfacet
  facet normal -0.0703915 -0.71401 0.696588
    outer loop
      vertex 15.1617 24.2498 26
      vertex 14.9 27.2024 29
      vertex 14.9 24.2756 26
    endloop
  endfacet
  facet normal -0.0703233 -0.71401 0.696594
    outer loop
      vertex 14.9 27.2024 29
      vertex 15.1617 24.2498 26
      vertex 15.9468 27.0993 29
    endloop
  endfacet
  facet normal -0.554417 0.455414 0.696577
    outer loop
      vertex 16.9584 20.4246 26
      vertex 19.3874 18.793 29
      vertex 19.392 18.7986 29
    endloop
  endfacet
  facet normal -0.554449 0.455371 0.69658
    outer loop
      vertex 19.3874 18.793 29
      vertex 16.9584 20.4246 26
      vertex 16.8173 20.2528 26
    endloop
  endfacet
  facet normal 0.455084 0.554667 0.696594
    outer loop
      vertex 11.0799 17.9799 29
      vertex 13.3528 19.8827 26
      vertex 13.1495 20.0495 26
    endloop
  endfacet
  facet normal 0.455152 0.5546 0.696603
    outer loop
      vertex 13.3528 19.8827 26
      vertex 11.0799 17.9799 29
      vertex 11.893 17.3126 29
    endloop
  endfacet
  facet normal -0.455084 0.554667 0.696594
    outer loop
      vertex 16.4472 19.8827 26
      vertex 18.7201 17.9799 29
      vertex 16.6505 20.0495 26
    endloop
  endfacet
  facet normal -0.455152 0.5546 0.696603
    outer loop
      vertex 18.7201 17.9799 29
      vertex 16.4472 19.8827 26
      vertex 17.907 17.3126 29
    endloop
  endfacet
  facet normal 0.714005 -0.0703229 0.6966
    outer loop
      vertex 9.49826 21.8071 29
      vertex 12.472 22.283 26
      vertex 9.60137 22.854 29
    endloop
  endfacet
  facet normal 0.714007 -0.0703912 0.696591
    outer loop
      vertex 12.472 22.283 26
      vertex 9.49826 21.8071 29
      vertex 12.4462 22.0213 26
    endloop
  endfacet
  facet normal 0.455371 0.554449 0.69658
    outer loop
      vertex 11.893 17.3126 29
      vertex 13.5246 19.7416 26
      vertex 13.3528 19.8827 26
    endloop
  endfacet
  facet normal 0.455414 0.554417 0.696577
    outer loop
      vertex 13.5246 19.7416 26
      vertex 11.893 17.3126 29
      vertex 11.8986 17.308 29
    endloop
  endfacet
  facet normal -0.455371 0.554449 0.69658
    outer loop
      vertex 16.2754 19.7416 26
      vertex 17.907 17.3126 29
      vertex 16.4472 19.8827 26
    endloop
  endfacet
  facet normal -0.455414 0.554417 0.696577
    outer loop
      vertex 17.907 17.3126 29
      vertex 16.2754 19.7416 26
      vertex 17.9014 17.308 29
    endloop
  endfacet
  facet normal 0.554635 -0.455125 0.696593
    outer loop
      vertex 10.408 24.8014 29
      vertex 13.0084 23.3787 26
      vertex 11.0753 25.6146 29
    endloop
  endfacet
  facet normal 0.554664 -0.455081 0.696598
    outer loop
      vertex 13.0084 23.3787 26
      vertex 10.408 24.8014 29
      vertex 12.8416 23.1754 26
    endloop
  endfacet
  facet normal 0.0703365 -0.714013 0.696591
    outer loop
      vertex 14.9 24.2756 26
      vertex 14.8929 27.2017 29
      vertex 14.6787 24.2538 26
    endloop
  endfacet
  facet normal 0.0703953 -0.71401 0.696588
    outer loop
      vertex 14.8929 27.2017 29
      vertex 14.9 24.2756 26
      vertex 14.9 27.2024 29
    endloop
  endfacet
  facet normal -0.340817 -0.631514 0.696443
    outer loop
      vertex 15.8474 24.0872 26
      vertex 16.9737 26.7878 29
      vertex 16.9674 26.7912 29
    endloop
  endfacet
  facet normal -0.33817 -0.632778 0.696587
    outer loop
      vertex 16.9737 26.7878 29
      vertex 15.8474 24.0872 26
      vertex 16.0435 23.9824 26
    endloop
  endfacet
  facet normal 0.63269 -0.338307 0.6966
    outer loop
      vertex 10.408 24.8014 29
      vertex 12.7176 22.9435 26
      vertex 12.8416 23.1754 26
    endloop
  endfacet
  facet normal 0.632767 -0.33819 0.696587
    outer loop
      vertex 12.7176 22.9435 26
      vertex 10.408 24.8014 29
      vertex 9.91218 23.8737 29
    endloop
  endfacet
  facet normal -0.632705 0.338316 0.696582
    outer loop
      vertex 17.0632 20.6207 26
      vertex 19.8912 19.7326 29
      vertex 17.1872 20.8526 26
    endloop
  endfacet
  facet normal -0.632741 0.33823 0.696591
    outer loop
      vertex 19.8912 19.7326 29
      vertex 17.0632 20.6207 26
      vertex 19.3953 18.8049 29
    endloop
  endfacet
  facet normal -0.632779 0.338171 0.696585
    outer loop
      vertex 16.9584 20.4246 26
      vertex 19.3953 18.8049 29
      vertex 17.0632 20.6207 26
    endloop
  endfacet
  facet normal -0.635818 0.333047 0.696287
    outer loop
      vertex 19.3953 18.8049 29
      vertex 16.9584 20.4246 26
      vertex 19.392 18.7986 29
    endloop
  endfacet
  facet normal -0.686579 -0.208238 0.696597
    outer loop
      vertex 17.2517 22.5346 26
      vertex 20.1986 22.854 29
      vertex 19.8933 23.8606 29
    endloop
  endfacet
  facet normal -0.686584 -0.208213 0.696599
    outer loop
      vertex 20.1986 22.854 29
      vertex 17.2517 22.5346 26
      vertex 17.328 22.283 26
    endloop
  endfacet
  facet normal 0.208213 -0.686584 0.696599
    outer loop
      vertex 13.846 27.0986 29
      vertex 14.1654 24.1517 26
      vertex 14.417 24.228 26
    endloop
  endfacet
  facet normal 0.208238 -0.686579 0.696597
    outer loop
      vertex 14.1654 24.1517 26
      vertex 13.846 27.0986 29
      vertex 12.8394 26.7933 29
    endloop
  endfacet
  facet normal -0.688043 0.202366 0.696882
    outer loop
      vertex 17.328 21.317 26
      vertex 20.1966 20.7392 29
      vertex 20.1986 20.746 29
    endloop
  endfacet
  facet normal -0.686579 0.208201 0.696607
    outer loop
      vertex 20.1966 20.7392 29
      vertex 17.328 21.317 26
      vertex 17.2635 21.1043 26
    endloop
  endfacet
  facet normal 0.685691 -0.210749 0.696716
    outer loop
      vertex 9.90671 23.8606 29
      vertex 12.6128 22.7474 26
      vertex 9.9088 23.8674 29
    endloop
  endfacet
  facet normal 0.686628 -0.208118 0.696584
    outer loop
      vertex 12.6128 22.7474 26
      vertex 9.90671 23.8606 29
      vertex 12.5483 22.5346 26
    endloop
  endfacet
  facet normal -0.554635 -0.455125 0.696593
    outer loop
      vertex 16.7916 23.3787 26
      vertex 19.392 24.8014 29
      vertex 18.7247 25.6146 29
    endloop
  endfacet
  facet normal -0.554664 -0.455081 0.696598
    outer loop
      vertex 19.392 24.8014 29
      vertex 16.7916 23.3787 26
      vertex 16.9584 23.1754 26
    endloop
  endfacet
  facet normal 0.208118 -0.686626 0.696585
    outer loop
      vertex 12.8394 26.7933 29
      vertex 13.9526 24.0872 26
      vertex 14.1654 24.1517 26
    endloop
  endfacet
  facet normal 0.211657 -0.685365 0.696761
    outer loop
      vertex 13.9526 24.0872 26
      vertex 12.8394 26.7933 29
      vertex 12.8326 26.7912 29
    endloop
  endfacet
  facet normal -0.686558 0.2083 0.696598
    outer loop
      vertex 17.2635 21.1043 26
      vertex 19.8912 19.7326 29
      vertex 20.1966 20.7392 29
    endloop
  endfacet
  facet normal -0.686623 0.208142 0.696582
    outer loop
      vertex 19.8912 19.7326 29
      vertex 17.2635 21.1043 26
      vertex 17.1872 20.8526 26
    endloop
  endfacet
  facet normal -0.632774 -0.33818 0.696586
    outer loop
      vertex 19.392 24.8014 29
      vertex 17.0824 22.9435 26
      vertex 19.8878 23.8737 29
    endloop
  endfacet
  facet normal -0.63269 -0.338307 0.6966
    outer loop
      vertex 17.0824 22.9435 26
      vertex 19.392 24.8014 29
      vertex 16.9584 23.1754 26
    endloop
  endfacet
  facet normal 0.0703953 0.71401 0.696588
    outer loop
      vertex 14.9 19.3244 26
      vertex 14.8929 16.3983 29
      vertex 14.9 16.3976 29
    endloop
  endfacet
  facet normal 0.0703365 0.714013 0.696591
    outer loop
      vertex 14.8929 16.3983 29
      vertex 14.9 19.3244 26
      vertex 14.6787 19.3462 26
    endloop
  endfacet
  facet normal 0.554667 0.455084 0.696594
    outer loop
      vertex 12.9827 20.2528 26
      vertex 11.0799 17.9799 29
      vertex 13.1495 20.0495 26
    endloop
  endfacet
  facet normal 0.5546 0.455152 0.696603
    outer loop
      vertex 11.0799 17.9799 29
      vertex 12.9827 20.2528 26
      vertex 10.4126 18.793 29
    endloop
  endfacet
  facet normal 0.550115 -0.460096 0.696911
    outer loop
      vertex 11.0753 25.6146 29
      vertex 13.1495 23.5505 26
      vertex 11.0799 25.6201 29
    endloop
  endfacet
  facet normal 0.554419 -0.455347 0.696619
    outer loop
      vertex 13.1495 23.5505 26
      vertex 11.0753 25.6146 29
      vertex 13.0084 23.3787 26
    endloop
  endfacet
  facet normal -0.714012 -0.0703917 0.696586
    outer loop
      vertex 20.3017 21.8071 29
      vertex 17.328 22.283 26
      vertex 17.3538 22.0213 26
    endloop
  endfacet
  facet normal -0.71401 -0.0703166 0.696596
    outer loop
      vertex 17.328 22.283 26
      vertex 20.3017 21.8071 29
      vertex 20.1986 22.854 29
    endloop
  endfacet
  facet normal -0.714012 0.0703917 0.696586
    outer loop
      vertex 17.328 21.317 26
      vertex 20.3017 21.7929 29
      vertex 17.3538 21.5787 26
    endloop
  endfacet
  facet normal -0.71401 0.0703166 0.696596
    outer loop
      vertex 20.3017 21.7929 29
      vertex 17.328 21.317 26
      vertex 20.1986 20.746 29
    endloop
  endfacet
  facet normal 0.68657 -0.208263 0.696598
    outer loop
      vertex 9.60137 22.854 29
      vertex 12.5483 22.5346 26
      vertex 9.90671 23.8606 29
    endloop
  endfacet
  facet normal 0.686581 -0.208212 0.696603
    outer loop
      vertex 12.5483 22.5346 26
      vertex 9.60137 22.854 29
      vertex 12.472 22.283 26
    endloop
  endfacet
  facet normal -0.202366 -0.688043 0.696882
    outer loop
      vertex 15.383 24.228 26
      vertex 15.9608 27.0966 29
      vertex 15.954 27.0986 29
    endloop
  endfacet
  facet normal -0.208201 -0.686579 0.696607
    outer loop
      vertex 15.9608 27.0966 29
      vertex 15.383 24.228 26
      vertex 15.5957 24.1635 26
    endloop
  endfacet
  facet normal 0.714003 0.0703356 0.6966
    outer loop
      vertex 9.60066 20.7532 29
      vertex 12.472 21.317 26
      vertex 12.4502 21.5383 26
    endloop
  endfacet
  facet normal 0.713993 0.0704076 0.696604
    outer loop
      vertex 12.472 21.317 26
      vertex 9.60066 20.7532 29
      vertex 9.60137 20.746 29
    endloop
  endfacet
  facet normal 0.714005 0.070391 0.696593
    outer loop
      vertex 9.49756 21.8 29
      vertex 12.4502 21.5383 26
      vertex 12.4244 21.8 26
    endloop
  endfacet
  facet normal 0.714006 0.0703229 0.696599
    outer loop
      vertex 12.4502 21.5383 26
      vertex 9.49756 21.8 29
      vertex 9.60066 20.7532 29
    endloop
  endfacet
  facet normal -0.2083 -0.686558 0.696598
    outer loop
      vertex 15.5957 24.1635 26
      vertex 16.9674 26.7912 29
      vertex 15.9608 27.0966 29
    endloop
  endfacet
  facet normal -0.208142 -0.686623 0.696582
    outer loop
      vertex 16.9674 26.7912 29
      vertex 15.5957 24.1635 26
      vertex 15.8474 24.0872 26
    endloop
  endfacet
  facet normal -0.0703166 0.71401 0.696596
    outer loop
      vertex 15.383 19.372 26
      vertex 14.9071 16.3983 29
      vertex 15.954 16.5014 29
    endloop
  endfacet
  facet normal -0.0703917 0.714012 0.696586
    outer loop
      vertex 14.9071 16.3983 29
      vertex 15.383 19.372 26
      vertex 15.1213 19.3462 26
    endloop
  endfacet
  facet normal 0.340817 -0.631514 0.696443
    outer loop
      vertex 12.8263 26.7878 29
      vertex 13.9526 24.0872 26
      vertex 12.8326 26.7912 29
    endloop
  endfacet
  facet normal 0.33817 -0.632778 0.696587
    outer loop
      vertex 13.9526 24.0872 26
      vertex 12.8263 26.7878 29
      vertex 13.7565 23.9824 26
    endloop
  endfacet
  facet normal -0.0703361 -0.714008 0.696596
    outer loop
      vertex 15.383 24.228 26
      vertex 15.9468 27.0993 29
      vertex 15.1617 24.2498 26
    endloop
  endfacet
  facet normal -0.0694303 -0.71414 0.696551
    outer loop
      vertex 15.9468 27.0993 29
      vertex 15.383 24.228 26
      vertex 15.954 27.0986 29
    endloop
  endfacet
  facet normal -0.550115 -0.460096 0.696911
    outer loop
      vertex 16.6505 23.5505 26
      vertex 18.7247 25.6146 29
      vertex 18.7201 25.6201 29
    endloop
  endfacet
  facet normal -0.554419 -0.455347 0.696619
    outer loop
      vertex 18.7247 25.6146 29
      vertex 16.6505 23.5505 26
      vertex 16.7916 23.3787 26
    endloop
  endfacet
  facet normal -0.5546 0.455152 0.696603
    outer loop
      vertex 16.8173 20.2528 26
      vertex 18.7201 17.9799 29
      vertex 19.3874 18.793 29
    endloop
  endfacet
  facet normal -0.554667 0.455084 0.696594
    outer loop
      vertex 18.7201 17.9799 29
      vertex 16.8173 20.2528 26
      vertex 16.6505 20.0495 26
    endloop
  endfacet
  facet normal -0.455414 -0.554417 0.696577
    outer loop
      vertex 16.2754 23.8584 26
      vertex 17.907 26.2874 29
      vertex 17.9014 26.292 29
    endloop
  endfacet
  facet normal -0.455371 -0.554449 0.69658
    outer loop
      vertex 17.907 26.2874 29
      vertex 16.2754 23.8584 26
      vertex 16.4472 23.7173 26
    endloop
  endfacet
  facet normal -0.71401 0.0703953 0.696588
    outer loop
      vertex 17.3756 21.8 26
      vertex 20.3017 21.7929 29
      vertex 20.3024 21.8 29
    endloop
  endfacet
  facet normal -0.714013 0.0703365 0.696591
    outer loop
      vertex 20.3017 21.7929 29
      vertex 17.3756 21.8 26
      vertex 17.3538 21.5787 26
    endloop
  endfacet
  facet normal -0.631514 -0.340817 0.696443
    outer loop
      vertex 19.8878 23.8737 29
      vertex 17.1872 22.7474 26
      vertex 19.8912 23.8674 29
    endloop
  endfacet
  facet normal -0.632778 -0.33817 0.696587
    outer loop
      vertex 17.1872 22.7474 26
      vertex 19.8878 23.8737 29
      vertex 17.0824 22.9435 26
    endloop
  endfacet
  facet normal -0.685365 -0.211657 0.696761
    outer loop
      vertex 17.1872 22.7474 26
      vertex 19.8933 23.8606 29
      vertex 19.8912 23.8674 29
    endloop
  endfacet
  facet normal -0.686626 -0.208118 0.696585
    outer loop
      vertex 19.8933 23.8606 29
      vertex 17.1872 22.7474 26
      vertex 17.2517 22.5346 26
    endloop
  endfacet
  facet normal 0.63269 0.338307 0.6966
    outer loop
      vertex 12.7176 20.6565 26
      vertex 10.408 18.7986 29
      vertex 12.8416 20.4246 26
    endloop
  endfacet
  facet normal 0.632749 0.338217 0.69659
    outer loop
      vertex 10.408 18.7986 29
      vertex 12.7176 20.6565 26
      vertex 9.91218 19.7262 29
    endloop
  endfacet
  facet normal 0.632776 -0.338169 0.696589
    outer loop
      vertex 9.91218 23.8737 29
      vertex 12.6128 22.7474 26
      vertex 12.7176 22.9435 26
    endloop
  endfacet
  facet normal 0.632275 -0.339221 0.696533
    outer loop
      vertex 12.6128 22.7474 26
      vertex 9.91218 23.8737 29
      vertex 9.9088 23.8674 29
    endloop
  endfacet
  facet normal 0.554449 0.455371 0.69658
    outer loop
      vertex 12.8416 20.4246 26
      vertex 10.4126 18.793 29
      vertex 12.9827 20.2528 26
    endloop
  endfacet
  facet normal 0.554417 0.455414 0.696577
    outer loop
      vertex 10.4126 18.793 29
      vertex 12.8416 20.4246 26
      vertex 10.408 18.7986 29
    endloop
  endfacet
  facet normal -0.208142 0.686623 0.696582
    outer loop
      vertex 15.5957 19.4365 26
      vertex 16.9674 16.8088 29
      vertex 15.8474 19.5128 26
    endloop
  endfacet
  facet normal -0.2083 0.686558 0.696598
    outer loop
      vertex 16.9674 16.8088 29
      vertex 15.5957 19.4365 26
      vertex 15.9608 16.5034 29
    endloop
  endfacet
  facet normal 0.0703166 -0.71401 0.696596
    outer loop
      vertex 14.417 24.228 26
      vertex 14.8929 27.2017 29
      vertex 13.846 27.0986 29
    endloop
  endfacet
  facet normal 0.0703917 -0.714012 0.696586
    outer loop
      vertex 14.8929 27.2017 29
      vertex 14.417 24.228 26
      vertex 14.6787 24.2538 26
    endloop
  endfacet
  facet normal 0.714005 -0.0703949 0.696593
    outer loop
      vertex 12.4244 21.8 26
      vertex 9.49826 21.8071 29
      vertex 9.49756 21.8 29
    endloop
  endfacet
  facet normal 0.714008 -0.0703361 0.696596
    outer loop
      vertex 9.49826 21.8071 29
      vertex 12.4244 21.8 26
      vertex 12.4462 22.0213 26
    endloop
  endfacet
  facet normal 0.455347 -0.554419 0.696619
    outer loop
      vertex 11.0854 25.6247 29
      vertex 13.1495 23.5505 26
      vertex 13.3213 23.6916 26
    endloop
  endfacet
  facet normal 0.460096 -0.550115 0.696911
    outer loop
      vertex 13.1495 23.5505 26
      vertex 11.0854 25.6247 29
      vertex 11.0799 25.6201 29
    endloop
  endfacet
  facet normal 0.33818 -0.632774 0.696586
    outer loop
      vertex 11.8986 26.292 29
      vertex 13.7565 23.9824 26
      vertex 12.8263 26.7878 29
    endloop
  endfacet
  facet normal 0.338307 -0.63269 0.6966
    outer loop
      vertex 13.7565 23.9824 26
      vertex 11.8986 26.292 29
      vertex 13.5246 23.8584 26
    endloop
  endfacet
  facet normal -0.33818 -0.632774 0.696586
    outer loop
      vertex 16.0435 23.9824 26
      vertex 17.9014 26.292 29
      vertex 16.9737 26.7878 29
    endloop
  endfacet
  facet normal -0.338307 -0.63269 0.6966
    outer loop
      vertex 17.9014 26.292 29
      vertex 16.0435 23.9824 26
      vertex 16.2754 23.8584 26
    endloop
  endfacet
  facet normal -0.33823 0.632741 0.696591
    outer loop
      vertex 16.0793 19.6368 26
      vertex 16.9674 16.8088 29
      vertex 17.8951 17.3047 29
    endloop
  endfacet
  facet normal -0.338316 0.632705 0.696582
    outer loop
      vertex 16.9674 16.8088 29
      vertex 16.0793 19.6368 26
      vertex 15.8474 19.5128 26
    endloop
  endfacet
  facet normal -0.0703365 0.714013 0.696591
    outer loop
      vertex 14.9 19.3244 26
      vertex 14.9071 16.3983 29
      vertex 15.1213 19.3462 26
    endloop
  endfacet
  facet normal -0.0703953 0.71401 0.696588
    outer loop
      vertex 14.9071 16.3983 29
      vertex 14.9 19.3244 26
      vertex 14.9 16.3976 29
    endloop
  endfacet
  facet normal 0.338316 0.632705 0.696582
    outer loop
      vertex 13.7207 19.6368 26
      vertex 12.8326 16.8088 29
      vertex 13.9526 19.5128 26
    endloop
  endfacet
  facet normal 0.33823 0.632741 0.696591
    outer loop
      vertex 12.8326 16.8088 29
      vertex 13.7207 19.6368 26
      vertex 11.9049 17.3047 29
    endloop
  endfacet
  facet normal 0.338171 0.632779 0.696585
    outer loop
      vertex 13.5246 19.7416 26
      vertex 11.9049 17.3047 29
      vertex 13.7207 19.6368 26
    endloop
  endfacet
  facet normal 0.333047 0.635818 0.696287
    outer loop
      vertex 11.9049 17.3047 29
      vertex 13.5246 19.7416 26
      vertex 11.8986 17.308 29
    endloop
  endfacet
  facet normal -0.455152 -0.5546 0.696603
    outer loop
      vertex 16.4472 23.7173 26
      vertex 18.7201 25.6201 29
      vertex 17.907 26.2874 29
    endloop
  endfacet
  facet normal -0.455084 -0.554667 0.696594
    outer loop
      vertex 18.7201 25.6201 29
      vertex 16.4472 23.7173 26
      vertex 16.6505 23.5505 26
    endloop
  endfacet
  facet normal 0.455081 -0.554664 0.696598
    outer loop
      vertex 11.8986 26.292 29
      vertex 13.3213 23.6916 26
      vertex 13.5246 23.8584 26
    endloop
  endfacet
  facet normal 0.455125 -0.554635 0.696593
    outer loop
      vertex 13.3213 23.6916 26
      vertex 11.8986 26.292 29
      vertex 11.0854 25.6247 29
    endloop
  endfacet
  facet normal 0.632771 0.338166 0.696595
    outer loop
      vertex 12.6128 20.8526 26
      vertex 9.91218 19.7262 29
      vertex 12.7176 20.6565 26
    endloop
  endfacet
  facet normal 0.634283 0.33498 0.696759
    outer loop
      vertex 9.91218 19.7262 29
      vertex 12.6128 20.8526 26
      vertex 9.9088 19.7326 29
    endloop
  endfacet
  facet normal 0.686623 0.208142 0.696582
    outer loop
      vertex 12.5365 21.1043 26
      vertex 9.9088 19.7326 29
      vertex 12.6128 20.8526 26
    endloop
  endfacet
  facet normal 0.686571 0.20827 0.696595
    outer loop
      vertex 9.9088 19.7326 29
      vertex 12.5365 21.1043 26
      vertex 9.60345 20.7392 29
    endloop
  endfacet
  facet normal 0.686585 0.208203 0.696601
    outer loop
      vertex 12.472 21.317 26
      vertex 9.60345 20.7392 29
      vertex 12.5365 21.1043 26
    endloop
  endfacet
  facet normal 0.686158 0.209884 0.696517
    outer loop
      vertex 9.60345 20.7392 29
      vertex 12.472 21.317 26
      vertex 9.60137 20.746 29
    endloop
  endfacet
  facet normal -0.333047 0.635818 0.696287
    outer loop
      vertex 16.2754 19.7416 26
      vertex 17.8951 17.3047 29
      vertex 17.9014 17.308 29
    endloop
  endfacet
  facet normal -0.338171 0.632779 0.696585
    outer loop
      vertex 17.8951 17.3047 29
      vertex 16.2754 19.7416 26
      vertex 16.0793 19.6368 26
    endloop
  endfacet
  facet normal -0.208201 0.686579 0.696607
    outer loop
      vertex 15.383 19.372 26
      vertex 15.9608 16.5034 29
      vertex 15.5957 19.4365 26
    endloop
  endfacet
  facet normal -0.202366 0.688043 0.696882
    outer loop
      vertex 15.9608 16.5034 29
      vertex 15.383 19.372 26
      vertex 15.954 16.5014 29
    endloop
  endfacet
  facet normal 0.0703917 0.714012 0.696586
    outer loop
      vertex 14.417 19.372 26
      vertex 14.8929 16.3983 29
      vertex 14.6787 19.3462 26
    endloop
  endfacet
  facet normal 0.0703166 0.71401 0.696596
    outer loop
      vertex 14.8929 16.3983 29
      vertex 14.417 19.372 26
      vertex 13.846 16.5014 29
    endloop
  endfacet
  facet normal 0.208118 0.686626 0.696585
    outer loop
      vertex 13.9526 19.5128 26
      vertex 12.8394 16.8067 29
      vertex 14.1654 19.4483 26
    endloop
  endfacet
  facet normal 0.211657 0.685365 0.696761
    outer loop
      vertex 12.8394 16.8067 29
      vertex 13.9526 19.5128 26
      vertex 12.8326 16.8088 29
    endloop
  endfacet
  facet normal 0.208213 0.686584 0.696599
    outer loop
      vertex 14.1654 19.4483 26
      vertex 13.846 16.5014 29
      vertex 14.417 19.372 26
    endloop
  endfacet
  facet normal 0.208238 0.686579 0.696597
    outer loop
      vertex 13.846 16.5014 29
      vertex 14.1654 19.4483 26
      vertex 12.8394 16.8067 29
    endloop
  endfacet
  facet normal -0.758439 -0.0747715 0.647441
    outer loop
      vertex 19.2537 35.8 26
      vertex 21.813 35.8167 29
      vertex 19.2028 36.3163 26
    endloop
  endfacet
  facet normal -0.758563 -0.0726767 0.647534
    outer loop
      vertex 21.813 35.8167 29
      vertex 19.2537 35.8 26
      vertex 21.8146 35.8 29
    endloop
  endfacet
  facet normal 0.0747708 0.758432 0.64745
    outer loop
      vertex 14.0506 31.53 26
      vertex 13.5677 29.0166 29
      vertex 14.5669 31.4791 26
    endloop
  endfacet
  facet normal 0.0726913 0.758716 0.647353
    outer loop
      vertex 13.5677 29.0166 29
      vertex 14.0506 31.53 26
      vertex 13.551 29.0182 29
    endloop
  endfacet
  facet normal 0.359217 -0.672192 0.647396
    outer loop
      vertex 11.0584 41.5493 29
      vertex 12.3383 41.7 28.4463
      vertex 11.3404 41.7 29
    endloop
  endfacet
  facet normal 0.359234 -0.67213 0.647451
    outer loop
      vertex 12.4812 39.4199 26
      vertex 12.3383 41.7 28.4463
      vertex 11.0584 41.5493 29
    endloop
  endfacet
  facet normal 0.359281 -0.672115 0.64744
    outer loop
      vertex 12.3383 41.7 28.4463
      vertex 12.4812 39.4199 26
      vertex 12.7764 39.5777 26
    endloop
  endfacet
  facet normal 0.758442 -0.074683 0.647448
    outer loop
      vertex 8.11823 37.149 29
      vertex 10.5972 36.3163 26
      vertex 10.63 36.6494 26
    endloop
  endfacet
  facet normal 0.758439 -0.0746996 0.64745
    outer loop
      vertex 10.5972 36.3163 26
      vertex 8.11823 37.149 29
      vertex 7.98701 35.8167 29
    endloop
  endfacet
  facet normal -0.483468 -0.589122 0.647452
    outer loop
      vertex 17.7198 39.0908 26
      vertex 19.7894 40.6894 29
      vertex 18.7545 41.5387 29
    endloop
  endfacet
  facet normal -0.483463 -0.589127 0.647451
    outer loop
      vertex 19.7894 40.6894 29
      vertex 17.7198 39.0908 26
      vertex 17.9785 38.8785 26
    endloop
  endfacet
  facet normal -0.22127 0.729273 0.647457
    outer loop
      vertex 16.0696 31.6272 26
      vertex 16.249 29.0182 29
      vertex 17.5301 29.4069 29
    endloop
  endfacet
  facet normal -0.221372 0.729253 0.647445
    outer loop
      vertex 16.249 29.0182 29
      vertex 16.0696 31.6272 26
      vertex 15.7494 31.53 26
    endloop
  endfacet
  facet normal -0.729302 -0.221221 0.647441
    outer loop
      vertex 18.9223 37.4661 26
      vertex 21.6769 37.165 29
      vertex 21.2883 38.4461 29
    endloop
  endfacet
  facet normal -0.729316 -0.221095 0.647468
    outer loop
      vertex 21.6769 37.165 29
      vertex 18.9223 37.4661 26
      vertex 19.0194 37.1458 26
    endloop
  endfacet
  facet normal -0.729316 0.221095 0.647468
    outer loop
      vertex 18.9223 34.1339 26
      vertex 21.6769 34.435 29
      vertex 19.0194 34.4542 26
    endloop
  endfacet
  facet normal -0.729302 0.221221 0.647441
    outer loop
      vertex 21.6769 34.435 29
      vertex 18.9223 34.1339 26
      vertex 21.2883 33.1539 29
    endloop
  endfacet
  facet normal -0.359217 -0.672192 0.647396
    outer loop
      vertex 17.4617 41.7 28.4463
      vertex 18.7416 41.5493 29
      vertex 18.4596 41.7 29
    endloop
  endfacet
  facet normal -0.359281 -0.672115 0.64744
    outer loop
      vertex 17.3188 39.4199 26
      vertex 17.4617 41.7 28.4463
      vertex 17.0236 39.5777 26
    endloop
  endfacet
  facet normal -0.359234 -0.67213 0.647451
    outer loop
      vertex 17.4617 41.7 28.4463
      vertex 17.3188 39.4199 26
      vertex 18.7416 41.5493 29
    endloop
  endfacet
  facet normal 0.758431 -0.0749348 0.647432
    outer loop
      vertex 10.5463 35.8 26
      vertex 7.98701 35.8167 29
      vertex 7.98536 35.8 29
    endloop
  endfacet
  facet normal 0.75844 -0.0747717 0.647439
    outer loop
      vertex 7.98701 35.8167 29
      vertex 10.5463 35.8 26
      vertex 10.5972 36.3163 26
    endloop
  endfacet
  facet normal 0.729299 -0.221232 0.647441
    outer loop
      vertex 8.12309 37.165 29
      vertex 10.8777 37.4661 26
      vertex 8.51171 38.4461 29
    endloop
  endfacet
  facet normal 0.729315 -0.221094 0.647469
    outer loop
      vertex 10.8777 37.4661 26
      vertex 8.12309 37.165 29
      vertex 10.7806 37.1458 26
    endloop
  endfacet
  facet normal -0.221372 -0.729251 0.647446
    outer loop
      vertex 16.0696 39.9728 26
      vertex 16.0736 41.7 27.9468
      vertex 15.7494 40.07 26
    endloop
  endfacet
  facet normal -0.221273 -0.729268 0.647461
    outer loop
      vertex 16.0736 41.7 27.9468
      vertex 16.0696 39.9728 26
      vertex 17.2057 41.7 28.3337
    endloop
  endfacet
  facet normal 0.074696 -0.758435 0.647455
    outer loop
      vertex 14.0506 40.07 26
      vertex 14.6894 41.7 27.8357
      vertex 13.7264 41.7 27.9468
    endloop
  endfacet
  facet normal 0.0746821 -0.758433 0.647458
    outer loop
      vertex 14.6894 41.7 27.8357
      vertex 14.0506 40.07 26
      vertex 14.3837 40.1028 26
    endloop
  endfacet
  facet normal 0.221084 0.729356 0.647427
    outer loop
      vertex 13.2339 31.7777 26
      vertex 12.2699 29.4069 29
      vertex 13.7304 31.6272 26
    endloop
  endfacet
  facet normal 0.21902 0.730067 0.647327
    outer loop
      vertex 12.2699 29.4069 29
      vertex 13.2339 31.7777 26
      vertex 12.2539 29.4117 29
    endloop
  endfacet
  facet normal 0.221372 0.729253 0.647445
    outer loop
      vertex 13.7304 31.6272 26
      vertex 13.551 29.0182 29
      vertex 14.0506 31.53 26
    endloop
  endfacet
  facet normal 0.22127 0.729273 0.647457
    outer loop
      vertex 13.551 29.0182 29
      vertex 13.7304 31.6272 26
      vertex 12.2699 29.4069 29
    endloop
  endfacet
  facet normal -0.483463 0.589127 0.647451
    outer loop
      vertex 17.7198 32.5092 26
      vertex 19.7894 30.9106 29
      vertex 17.9785 32.7215 26
    endloop
  endfacet
  facet normal -0.483468 0.589122 0.647452
    outer loop
      vertex 19.7894 30.9106 29
      vertex 17.7198 32.5092 26
      vertex 18.7545 30.0613 29
    endloop
  endfacet
  facet normal -0.589127 0.483462 0.647452
    outer loop
      vertex 18.3076 33.1225 26
      vertex 20.6493 31.9584 29
      vertex 18.5199 33.3812 26
    endloop
  endfacet
  facet normal -0.589122 0.483469 0.647451
    outer loop
      vertex 20.6493 31.9584 29
      vertex 18.3076 33.1225 26
      vertex 19.8 30.9235 29
    endloop
  endfacet
  facet normal -0.358849 0.672275 0.647513
    outer loop
      vertex 17.0236 32.0223 26
      vertex 17.5461 29.4117 29
      vertex 17.5609 29.4196 29
    endloop
  endfacet
  facet normal -0.35933 0.672091 0.647437
    outer loop
      vertex 17.5461 29.4117 29
      vertex 17.0236 32.0223 26
      vertex 16.5661 31.7777 26
    endloop
  endfacet
  facet normal -0.758438 -0.0746826 0.647452
    outer loop
      vertex 19.2028 36.3163 26
      vertex 21.6818 37.149 29
      vertex 19.17 36.6494 26
    endloop
  endfacet
  facet normal -0.758437 -0.0746881 0.647453
    outer loop
      vertex 21.6818 37.149 29
      vertex 19.2028 36.3163 26
      vertex 21.813 35.8167 29
    endloop
  endfacet
  facet normal 0.729244 -0.221508 0.647409
    outer loop
      vertex 8.11823 37.149 29
      vertex 10.7806 37.1458 26
      vertex 8.12309 37.165 29
    endloop
  endfacet
  facet normal 0.729287 -0.221254 0.647447
    outer loop
      vertex 10.7806 37.1458 26
      vertex 8.11823 37.149 29
      vertex 10.63 36.6494 26
    endloop
  endfacet
  facet normal -0.758437 0.0746825 0.647454
    outer loop
      vertex 19.17 34.9506 26
      vertex 21.813 35.7833 29
      vertex 19.2028 35.2837 26
    endloop
  endfacet
  facet normal -0.758437 0.0746881 0.647452
    outer loop
      vertex 21.813 35.7833 29
      vertex 19.17 34.9506 26
      vertex 21.6818 34.451 29
    endloop
  endfacet
  facet normal -0.672337 -0.358883 0.647431
    outer loop
      vertex 18.5199 38.2188 26
      vertex 20.6572 39.6268 29
      vertex 20.6493 39.6416 29
    endloop
  endfacet
  facet normal -0.672114 -0.359264 0.647451
    outer loop
      vertex 20.6572 39.6268 29
      vertex 18.5199 38.2188 26
      vertex 18.7645 37.7612 26
    endloop
  endfacet
  facet normal 0.483486 0.589115 0.647444
    outer loop
      vertex 11.8215 32.7215 26
      vertex 10.0236 30.9 29
      vertex 12.2225 32.3924 26
    endloop
  endfacet
  facet normal 0.481668 0.590725 0.647332
    outer loop
      vertex 10.0236 30.9 29
      vertex 11.8215 32.7215 26
      vertex 10.0106 30.9106 29
    endloop
  endfacet
  facet normal -0.0746894 0.75845 0.647437
    outer loop
      vertex 15.2331 31.4791 26
      vertex 14.9 28.8854 29
      vertex 16.2323 29.0166 29
    endloop
  endfacet
  facet normal -0.0746837 0.75845 0.647438
    outer loop
      vertex 14.9 28.8854 29
      vertex 15.2331 31.4791 26
      vertex 14.9 31.4463 26
    endloop
  endfacet
  facet normal 0.359278 0.67211 0.647447
    outer loop
      vertex 12.4812 32.1801 26
      vertex 12.2391 29.4196 29
      vertex 12.7764 32.0223 26
    endloop
  endfacet
  facet normal 0.359256 0.672117 0.647452
    outer loop
      vertex 12.2391 29.4196 29
      vertex 12.4812 32.1801 26
      vertex 11.0584 30.0507 29
    endloop
  endfacet
  facet normal -0.483849 -0.588835 0.647428
    outer loop
      vertex 17.3188 39.4199 26
      vertex 18.7545 41.5387 29
      vertex 18.7416 41.5493 29
    endloop
  endfacet
  facet normal -0.483483 -0.589112 0.647449
    outer loop
      vertex 18.7545 41.5387 29
      vertex 17.3188 39.4199 26
      vertex 17.7198 39.0908 26
    endloop
  endfacet
  facet normal -0.672068 0.359378 0.647435
    outer loop
      vertex 18.7645 33.8388 26
      vertex 21.2883 33.1539 29
      vertex 18.9223 34.1339 26
    endloop
  endfacet
  facet normal -0.672119 0.359257 0.64745
    outer loop
      vertex 21.2883 33.1539 29
      vertex 18.7645 33.8388 26
      vertex 20.6572 31.9732 29
    endloop
  endfacet
  facet normal 0.359431 -0.672057 0.647416
    outer loop
      vertex 12.7764 39.5777 26
      vertex 12.4561 41.7 28.3809
      vertex 12.3383 41.7 28.4463
    endloop
  endfacet
  facet normal 0.359331 -0.672093 0.647435
    outer loop
      vertex 12.4561 41.7 28.3809
      vertex 12.7764 39.5777 26
      vertex 13.2339 39.8223 26
    endloop
  endfacet
  facet normal 0.729315 0.221094 0.647469
    outer loop
      vertex 8.12309 34.435 29
      vertex 10.8777 34.1339 26
      vertex 10.7806 34.4542 26
    endloop
  endfacet
  facet normal 0.729299 0.221232 0.647441
    outer loop
      vertex 10.8777 34.1339 26
      vertex 8.12309 34.435 29
      vertex 8.51171 33.1539 29
    endloop
  endfacet
  facet normal 0.589099 -0.483502 0.647448
    outer loop
      vertex 9.15069 39.6416 29
      vertex 11.4924 38.4775 26
      vertex 10 40.6764 29
    endloop
  endfacet
  facet normal 0.589126 -0.483461 0.647453
    outer loop
      vertex 11.4924 38.4775 26
      vertex 9.15069 39.6416 29
      vertex 11.2801 38.2188 26
    endloop
  endfacet
  facet normal -0.672119 -0.359257 0.64745
    outer loop
      vertex 18.7645 37.7612 26
      vertex 21.2883 38.4461 29
      vertex 20.6572 39.6268 29
    endloop
  endfacet
  facet normal -0.672068 -0.359378 0.647435
    outer loop
      vertex 21.2883 38.4461 29
      vertex 18.7645 37.7612 26
      vertex 18.9223 37.4661 26
    endloop
  endfacet
  facet normal -0.728944 -0.223239 0.647152
    outer loop
      vertex 19.0194 37.1458 26
      vertex 21.6818 37.149 29
      vertex 21.6769 37.165 29
    endloop
  endfacet
  facet normal -0.729284 -0.221253 0.647451
    outer loop
      vertex 21.6818 37.149 29
      vertex 19.0194 37.1458 26
      vertex 19.17 36.6494 26
    endloop
  endfacet
  facet normal -0.359256 0.672117 0.647452
    outer loop
      vertex 17.3188 32.1801 26
      vertex 17.5609 29.4196 29
      vertex 18.7416 30.0507 29
    endloop
  endfacet
  facet normal -0.359278 0.67211 0.647447
    outer loop
      vertex 17.5609 29.4196 29
      vertex 17.3188 32.1801 26
      vertex 17.0236 32.0223 26
    endloop
  endfacet
  facet normal -0.589102 -0.483499 0.647447
    outer loop
      vertex 18.3076 38.4775 26
      vertex 20.6493 39.6416 29
      vertex 19.8 40.6764 29
    endloop
  endfacet
  facet normal -0.589127 -0.483462 0.647452
    outer loop
      vertex 20.6493 39.6416 29
      vertex 18.3076 38.4775 26
      vertex 18.5199 38.2188 26
    endloop
  endfacet
  facet normal -0.359331 -0.672093 0.647435
    outer loop
      vertex 17.0236 39.5777 26
      vertex 17.3439 41.7 28.3809
      vertex 16.5661 39.8223 26
    endloop
  endfacet
  facet normal -0.359431 -0.672057 0.647416
    outer loop
      vertex 17.3439 41.7 28.3809
      vertex 17.0236 39.5777 26
      vertex 17.4617 41.7 28.4463
    endloop
  endfacet
  facet normal 0.672539 -0.358536 0.647412
    outer loop
      vertex 9.1428 39.6268 29
      vertex 11.2801 38.2188 26
      vertex 9.15069 39.6416 29
    endloop
  endfacet
  facet normal 0.672114 -0.359264 0.647451
    outer loop
      vertex 11.2801 38.2188 26
      vertex 9.1428 39.6268 29
      vertex 11.0355 37.7612 26
    endloop
  endfacet
  facet normal -0.758563 0.0726767 0.647534
    outer loop
      vertex 19.2537 35.8 26
      vertex 21.813 35.7833 29
      vertex 21.8146 35.8 29
    endloop
  endfacet
  facet normal -0.758439 0.0747715 0.647441
    outer loop
      vertex 21.813 35.7833 29
      vertex 19.2537 35.8 26
      vertex 19.2028 35.2837 26
    endloop
  endfacet
  facet normal 0.221273 -0.729268 0.647461
    outer loop
      vertex 13.7304 39.9728 26
      vertex 13.7264 41.7 27.9468
      vertex 12.5943 41.7 28.3337
    endloop
  endfacet
  facet normal 0.221372 -0.729251 0.647446
    outer loop
      vertex 13.7264 41.7 27.9468
      vertex 13.7304 39.9728 26
      vertex 14.0506 40.07 26
    endloop
  endfacet
  facet normal -0.590725 -0.481668 0.647332
    outer loop
      vertex 17.9785 38.8785 26
      vertex 19.8 40.6764 29
      vertex 19.7894 40.6894 29
    endloop
  endfacet
  facet normal -0.589115 -0.483486 0.647444
    outer loop
      vertex 19.8 40.6764 29
      vertex 17.9785 38.8785 26
      vertex 18.3076 38.4775 26
    endloop
  endfacet
  facet normal -0.729284 0.221253 0.647451
    outer loop
      vertex 19.0194 34.4542 26
      vertex 21.6818 34.451 29
      vertex 19.17 34.9506 26
    endloop
  endfacet
  facet normal -0.728944 0.223239 0.647152
    outer loop
      vertex 21.6818 34.451 29
      vertex 19.0194 34.4542 26
      vertex 21.6769 34.435 29
    endloop
  endfacet
  facet normal 0.758438 0.0746826 0.647452
    outer loop
      vertex 7.98701 35.7833 29
      vertex 10.63 34.9506 26
      vertex 10.5972 35.2837 26
    endloop
  endfacet
  facet normal 0.758439 0.0746997 0.647448
    outer loop
      vertex 10.63 34.9506 26
      vertex 7.98701 35.7833 29
      vertex 8.11823 34.451 29
    endloop
  endfacet
  facet normal 0.672122 -0.359252 0.647449
    outer loop
      vertex 8.51171 38.4461 29
      vertex 11.0355 37.7612 26
      vertex 9.1428 39.6268 29
    endloop
  endfacet
  facet normal 0.672069 -0.359378 0.647433
    outer loop
      vertex 11.0355 37.7612 26
      vertex 8.51171 38.4461 29
      vertex 10.8777 37.4661 26
    endloop
  endfacet
  facet normal 0.729287 0.221254 0.647447
    outer loop
      vertex 8.11823 34.451 29
      vertex 10.7806 34.4542 26
      vertex 10.63 34.9506 26
    endloop
  endfacet
  facet normal 0.729244 0.221508 0.647409
    outer loop
      vertex 10.7806 34.4542 26
      vertex 8.11823 34.451 29
      vertex 8.12309 34.435 29
    endloop
  endfacet
  facet normal 0.0746837 0.75845 0.647438
    outer loop
      vertex 14.5669 31.4791 26
      vertex 14.9 28.8854 29
      vertex 14.9 31.4463 26
    endloop
  endfacet
  facet normal 0.0746894 0.75845 0.647437
    outer loop
      vertex 14.9 28.8854 29
      vertex 14.5669 31.4791 26
      vertex 13.5677 29.0166 29
    endloop
  endfacet
  facet normal 0.483486 -0.589115 0.647444
    outer loop
      vertex 10.0236 40.7 29
      vertex 11.8215 38.8785 26
      vertex 12.2225 39.2076 26
    endloop
  endfacet
  facet normal 0.481668 -0.590725 0.647332
    outer loop
      vertex 11.8215 38.8785 26
      vertex 10.0236 40.7 29
      vertex 10.0106 40.6894 29
    endloop
  endfacet
  facet normal -0.483483 0.589112 0.647449
    outer loop
      vertex 17.3188 32.1801 26
      vertex 18.7545 30.0613 29
      vertex 17.7198 32.5092 26
    endloop
  endfacet
  facet normal -0.483849 0.588835 0.647428
    outer loop
      vertex 18.7545 30.0613 29
      vertex 17.3188 32.1801 26
      vertex 18.7416 30.0507 29
    endloop
  endfacet
  facet normal 0.483462 0.589127 0.647452
    outer loop
      vertex 12.2225 32.3924 26
      vertex 11.0584 30.0507 29
      vertex 12.4812 32.1801 26
    endloop
  endfacet
  facet normal 0.483499 0.589102 0.647447
    outer loop
      vertex 11.0584 30.0507 29
      vertex 12.2225 32.3924 26
      vertex 10.0236 30.9 29
    endloop
  endfacet
  facet normal 0.590725 -0.481668 0.647332
    outer loop
      vertex 10 40.6764 29
      vertex 11.8215 38.8785 26
      vertex 10.0106 40.6894 29
    endloop
  endfacet
  facet normal 0.589115 -0.483486 0.647444
    outer loop
      vertex 11.8215 38.8785 26
      vertex 10 40.6764 29
      vertex 11.4924 38.4775 26
    endloop
  endfacet
  facet normal -0.0747051 -0.758443 0.647444
    outer loop
      vertex 14.9 40.1537 26
      vertex 15.1106 41.7 27.8357
      vertex 14.9 41.7 27.8114
    endloop
  endfacet
  facet normal -0.0747712 -0.758435 0.647445
    outer loop
      vertex 15.1106 41.7 27.8357
      vertex 14.9 40.1537 26
      vertex 15.4163 40.1028 26
    endloop
  endfacet
  facet normal -0.0746821 -0.758433 0.647458
    outer loop
      vertex 15.7494 40.07 26
      vertex 15.1106 41.7 27.8357
      vertex 15.4163 40.1028 26
    endloop
  endfacet
  facet normal -0.074696 -0.758435 0.647455
    outer loop
      vertex 15.1106 41.7 27.8357
      vertex 15.7494 40.07 26
      vertex 16.0736 41.7 27.9468
    endloop
  endfacet
  facet normal -0.589109 0.483481 0.647454
    outer loop
      vertex 17.9785 32.7215 26
      vertex 19.8 30.9235 29
      vertex 18.3076 33.1225 26
    endloop
  endfacet
  facet normal -0.588805 0.483824 0.647475
    outer loop
      vertex 19.8 30.9235 29
      vertex 17.9785 32.7215 26
      vertex 19.7894 30.9106 29
    endloop
  endfacet
  facet normal -0.221083 -0.729353 0.647431
    outer loop
      vertex 16.5661 39.8223 26
      vertex 17.2057 41.7 28.3337
      vertex 16.0696 39.9728 26
    endloop
  endfacet
  facet normal -0.22112 -0.729341 0.647432
    outer loop
      vertex 17.2057 41.7 28.3337
      vertex 16.5661 39.8223 26
      vertex 17.3439 41.7 28.3809
    endloop
  endfacet
  facet normal -0.0726913 0.758716 0.647353
    outer loop
      vertex 15.7494 31.53 26
      vertex 16.2323 29.0166 29
      vertex 16.249 29.0182 29
    endloop
  endfacet
  facet normal -0.0747708 0.758432 0.64745
    outer loop
      vertex 16.2323 29.0166 29
      vertex 15.7494 31.53 26
      vertex 15.2331 31.4791 26
    endloop
  endfacet
  facet normal -0.21902 0.730067 0.647327
    outer loop
      vertex 16.5661 31.7777 26
      vertex 17.5301 29.4069 29
      vertex 17.5461 29.4117 29
    endloop
  endfacet
  facet normal -0.221084 0.729356 0.647427
    outer loop
      vertex 17.5301 29.4069 29
      vertex 16.5661 31.7777 26
      vertex 16.0696 31.6272 26
    endloop
  endfacet
  facet normal -0.672114 0.359264 0.647451
    outer loop
      vertex 18.5199 33.3812 26
      vertex 20.6572 31.9732 29
      vertex 18.7645 33.8388 26
    endloop
  endfacet
  facet normal -0.672337 0.358883 0.647431
    outer loop
      vertex 20.6572 31.9732 29
      vertex 18.5199 33.3812 26
      vertex 20.6493 31.9584 29
    endloop
  endfacet
  facet normal 0.589126 0.483461 0.647453
    outer loop
      vertex 9.15069 31.9584 29
      vertex 11.4924 33.1225 26
      vertex 11.2801 33.3812 26
    endloop
  endfacet
  facet normal 0.589119 0.483472 0.647452
    outer loop
      vertex 11.4924 33.1225 26
      vertex 9.15069 31.9584 29
      vertex 10 30.9235 29
    endloop
  endfacet
  facet normal 0.589109 0.483481 0.647454
    outer loop
      vertex 10 30.9235 29
      vertex 11.8215 32.7215 26
      vertex 11.4924 33.1225 26
    endloop
  endfacet
  facet normal 0.588805 0.483824 0.647475
    outer loop
      vertex 11.8215 32.7215 26
      vertex 10 30.9235 29
      vertex 10.0106 30.9106 29
    endloop
  endfacet
  facet normal 0.672069 0.359378 0.647433
    outer loop
      vertex 8.51171 33.1539 29
      vertex 11.0355 33.8388 26
      vertex 10.8777 34.1339 26
    endloop
  endfacet
  facet normal 0.672122 0.359252 0.647449
    outer loop
      vertex 11.0355 33.8388 26
      vertex 8.51171 33.1539 29
      vertex 9.1428 31.9732 29
    endloop
  endfacet
  facet normal 0.35933 0.672091 0.647437
    outer loop
      vertex 12.7764 32.0223 26
      vertex 12.2539 29.4117 29
      vertex 13.2339 31.7777 26
    endloop
  endfacet
  facet normal 0.358849 0.672275 0.647513
    outer loop
      vertex 12.2539 29.4117 29
      vertex 12.7764 32.0223 26
      vertex 12.2391 29.4196 29
    endloop
  endfacet
  facet normal 0.483462 -0.589127 0.647452
    outer loop
      vertex 11.0584 41.5493 29
      vertex 12.2225 39.2076 26
      vertex 12.4812 39.4199 26
    endloop
  endfacet
  facet normal 0.483499 -0.589102 0.647447
    outer loop
      vertex 12.2225 39.2076 26
      vertex 11.0584 41.5493 29
      vertex 10.0236 40.7 29
    endloop
  endfacet
  facet normal 0.758431 0.0749348 0.647432
    outer loop
      vertex 7.98701 35.7833 29
      vertex 10.5463 35.8 26
      vertex 7.98536 35.8 29
    endloop
  endfacet
  facet normal 0.75844 0.0747717 0.647439
    outer loop
      vertex 10.5463 35.8 26
      vertex 7.98701 35.7833 29
      vertex 10.5972 35.2837 26
    endloop
  endfacet
  facet normal 0.0747712 -0.758435 0.647445
    outer loop
      vertex 14.9 40.1537 26
      vertex 14.6894 41.7 27.8357
      vertex 14.3837 40.1028 26
    endloop
  endfacet
  facet normal 0.0747051 -0.758443 0.647444
    outer loop
      vertex 14.6894 41.7 27.8357
      vertex 14.9 40.1537 26
      vertex 14.9 41.7 27.8114
    endloop
  endfacet
  facet normal 0.22112 -0.729341 0.647432
    outer loop
      vertex 13.2339 39.8223 26
      vertex 12.5943 41.7 28.3337
      vertex 12.4561 41.7 28.3809
    endloop
  endfacet
  facet normal 0.221083 -0.729353 0.647431
    outer loop
      vertex 12.5943 41.7 28.3337
      vertex 13.2339 39.8223 26
      vertex 13.7304 39.9728 26
    endloop
  endfacet
  facet normal 0.672114 0.359264 0.647451
    outer loop
      vertex 9.1428 31.9732 29
      vertex 11.2801 33.3812 26
      vertex 11.0355 33.8388 26
    endloop
  endfacet
  facet normal 0.672539 0.358536 0.647412
    outer loop
      vertex 11.2801 33.3812 26
      vertex 9.1428 31.9732 29
      vertex 9.15069 31.9584 29
    endloop
  endfacet
endsolid OpenSCAD_Model
