solid OpenSCAD_Model
  facet normal 1 -0 0
    outer loop
      vertex -1.5 40.5 5
      vertex -1.5 43.5 2
      vertex -1.5 43.5 5
    endloop
  endfacet
  facet normal 1 0 0
    outer loop
      vertex -1.5 43.5 2
      vertex -1.5 40.5 5
      vertex -1.5 40.5 2
    endloop
  endfacet
  facet normal 0 0 1
    outer loop
      vertex -34.208 -19.75 5
      vertex -35.824 -18.951 5
      vertex -34.324 -21.549 5
    endloop
  endfacet
  facet normal 0 0 1
    outer loop
      vertex -36.085 -16.0661 5
      vertex -35.824 -18.951 5
      vertex -34.208 -19.75 5
    endloop
  endfacet
  facet normal 0 0 1
    outer loop
      vertex -40.6528 -18.0998 5
      vertex -36.085 -16.0661 5
      vertex -37.5667 -12.2062 5
    endloop
  endfacet
  facet normal 0 0 1
    outer loop
      vertex -36.085 -16.0661 5
      vertex -40.6528 -18.0998 5
      vertex -35.824 -18.951 5
    endloop
  endfacet
  facet normal 0 0 1
    outer loop
      vertex -42.322 -13.7513 5
      vertex -37.5667 -12.2062 5
      vertex -38.6368 -8.21251 5
    endloop
  endfacet
  facet normal 0 0 1
    outer loop
      vertex -35.824 -18.951 5
      vertex -40.6528 -18.0998 5
      vertex -38.4221 -20.451 5
    endloop
  endfacet
  facet normal 0 0 1
    outer loop
      vertex -43.5276 -9.25207 5
      vertex -38.6368 -8.21251 5
      vertex -39.2836 -4.12887 5
    endloop
  endfacet
  facet normal 0 0 1
    outer loop
      vertex -44.2562 -4.65152 5
      vertex -39.2836 -4.12887 5
      vertex -39.5 0 5
    endloop
  endfacet
  facet normal 0 0 1
    outer loop
      vertex -38.6368 8.21251 5
      vertex -43.5276 9.25207 5
      vertex -39.2836 4.12887 5
    endloop
  endfacet
  facet normal 0 0 1
    outer loop
      vertex -38.4221 -20.451 5
      vertex -40.6528 -18.0998 5
      vertex -38.5381 -22.25 5
    endloop
  endfacet
  facet normal -0 0 1
    outer loop
      vertex -44.2562 4.65152 5
      vertex -39.2836 4.12887 5
      vertex -43.5276 9.25207 5
    endloop
  endfacet
  facet normal 0 0 1
    outer loop
      vertex -37.5667 -12.2062 5
      vertex -42.322 -13.7513 5
      vertex -40.6528 -18.0998 5
    endloop
  endfacet
  facet normal 0 0 1
    outer loop
      vertex -39.2836 4.12887 5
      vertex -44.2562 4.65152 5
      vertex -39.5 0 5
    endloop
  endfacet
  facet normal 0 0 1
    outer loop
      vertex -38.6368 -8.21251 5
      vertex -43.5276 -9.25207 5
      vertex -42.322 -13.7513 5
    endloop
  endfacet
  facet normal 0 0 1
    outer loop
      vertex -44.5 0 5
      vertex -39.5 0 5
      vertex -44.2562 4.65152 5
    endloop
  endfacet
  facet normal 0 0 1
    outer loop
      vertex -39.2836 -4.12887 5
      vertex -44.2562 -4.65152 5
      vertex -43.5276 -9.25207 5
    endloop
  endfacet
  facet normal 0 0 1
    outer loop
      vertex -39.5 0 5
      vertex -44.5 0 5
      vertex -44.2562 -4.65152 5
    endloop
  endfacet
  facet normal 0 0 1
    outer loop
      vertex 4.65152 44.2562 5
      vertex 1.5 40.5 5
      vertex 4.12887 39.2836 5
    endloop
  endfacet
  facet normal 0 0 1
    outer loop
      vertex 1.5 40.5 5
      vertex 0 39.5 5
      vertex 4.12887 39.2836 5
    endloop
  endfacet
  facet normal -0 0 1
    outer loop
      vertex -1.5 40.5 5
      vertex 0 39.5 5
      vertex 1.5 40.5 5
    endloop
  endfacet
  facet normal 0 0 1
    outer loop
      vertex 0 39.5 5
      vertex -1.5 40.5 5
      vertex -4.12887 39.2836 5
    endloop
  endfacet
  facet normal 0 0 1
    outer loop
      vertex 39.5 0 5
      vertex 44.5 0 5
      vertex 44.2562 4.65152 5
    endloop
  endfacet
  facet normal 0 0 1
    outer loop
      vertex 39.2836 4.12887 5
      vertex 44.2562 4.65152 5
      vertex 43.5276 9.25207 5
    endloop
  endfacet
  facet normal 0 0 1
    outer loop
      vertex 44.5 0 5
      vertex 39.5 0 5
      vertex 44.2562 -4.65152 5
    endloop
  endfacet
  facet normal 0 0 1
    outer loop
      vertex 38.6368 8.21251 5
      vertex 43.5276 9.25207 5
      vertex 42.322 13.7513 5
    endloop
  endfacet
  facet normal -0 0 1
    outer loop
      vertex 39.2836 -4.12887 5
      vertex 44.2562 -4.65152 5
      vertex 39.5 0 5
    endloop
  endfacet
  facet normal 0 0 1
    outer loop
      vertex 37.5667 12.2062 5
      vertex 42.322 13.7513 5
      vertex 40.6528 18.0998 5
    endloop
  endfacet
  facet normal 0 0 1
    outer loop
      vertex 44.2562 -4.65152 5
      vertex 39.2836 -4.12887 5
      vertex 43.5276 -9.25207 5
    endloop
  endfacet
  facet normal -0 0 1
    outer loop
      vertex 38.6368 -8.21251 5
      vertex 43.5276 -9.25207 5
      vertex 39.2836 -4.12887 5
    endloop
  endfacet
  facet normal 0 0 1
    outer loop
      vertex 44.2562 4.65152 5
      vertex 39.2836 4.12887 5
      vertex 39.5 0 5
    endloop
  endfacet
  facet normal 0 0 1
    outer loop
      vertex 43.5276 9.25207 5
      vertex 38.6368 8.21251 5
      vertex 39.2836 4.12887 5
    endloop
  endfacet
  facet normal 0 0 1
    outer loop
      vertex 36.085 16.0661 5
      vertex 40.6528 18.0998 5
      vertex 38.5381 22.25 5
    endloop
  endfacet
  facet normal 0 0 1
    outer loop
      vertex 42.322 13.7513 5
      vertex 37.5667 12.2062 5
      vertex 38.6368 8.21251 5
    endloop
  endfacet
  facet normal 0 0 1
    outer loop
      vertex 40.6528 18.0998 5
      vertex 36.085 16.0661 5
      vertex 37.5667 12.2062 5
    endloop
  endfacet
  facet normal 0 0 1
    outer loop
      vertex 34.208 19.75 5
      vertex 38.5381 22.25 5
      vertex 36.0013 26.1564 5
    endloop
  endfacet
  facet normal 0 0 1
    outer loop
      vertex 38.5381 22.25 5
      vertex 34.208 19.75 5
      vertex 36.085 16.0661 5
    endloop
  endfacet
  facet normal 0 0 1
    outer loop
      vertex 31.9562 23.2175 5
      vertex 36.0013 26.1564 5
      vertex 33.0699 29.7763 5
    endloop
  endfacet
  facet normal 0 0 1
    outer loop
      vertex 36.0013 26.1564 5
      vertex 31.9562 23.2175 5
      vertex 34.208 19.75 5
    endloop
  endfacet
  facet normal 0 0 1
    outer loop
      vertex 29.3542 26.4307 5
      vertex 33.0699 29.7763 5
      vertex 29.7763 33.0699 5
    endloop
  endfacet
  facet normal 0 0 1
    outer loop
      vertex 33.0699 29.7763 5
      vertex 29.3542 26.4307 5
      vertex 31.9562 23.2175 5
    endloop
  endfacet
  facet normal 0 0 1
    outer loop
      vertex 29.7763 33.0699 5
      vertex 26.4307 29.3542 5
      vertex 29.3542 26.4307 5
    endloop
  endfacet
  facet normal 0 0 1
    outer loop
      vertex 26.1564 36.0013 5
      vertex 26.4307 29.3542 5
      vertex 29.7763 33.0699 5
    endloop
  endfacet
  facet normal 0 0 1
    outer loop
      vertex 26.1564 36.0013 5
      vertex 23.2175 31.9562 5
      vertex 26.4307 29.3542 5
    endloop
  endfacet
  facet normal 0 0 1
    outer loop
      vertex 22.25 38.5381 5
      vertex 23.2175 31.9562 5
      vertex 26.1564 36.0013 5
    endloop
  endfacet
  facet normal 0 0 1
    outer loop
      vertex 22.25 38.5381 5
      vertex 19.75 34.208 5
      vertex 23.2175 31.9562 5
    endloop
  endfacet
  facet normal 0 0 1
    outer loop
      vertex 18.0998 40.6528 5
      vertex 19.75 34.208 5
      vertex 22.25 38.5381 5
    endloop
  endfacet
  facet normal 0 0 1
    outer loop
      vertex 18.0998 40.6528 5
      vertex 16.0661 36.085 5
      vertex 19.75 34.208 5
    endloop
  endfacet
  facet normal 0 0 1
    outer loop
      vertex 13.7513 42.322 5
      vertex 16.0661 36.085 5
      vertex 18.0998 40.6528 5
    endloop
  endfacet
  facet normal 0 0 1
    outer loop
      vertex 13.7513 42.322 5
      vertex 12.2062 37.5667 5
      vertex 16.0661 36.085 5
    endloop
  endfacet
  facet normal 0 0 1
    outer loop
      vertex 9.25207 43.5276 5
      vertex 12.2062 37.5667 5
      vertex 13.7513 42.322 5
    endloop
  endfacet
  facet normal 0 0 1
    outer loop
      vertex 9.25207 43.5276 5
      vertex 8.21251 38.6368 5
      vertex 12.2062 37.5667 5
    endloop
  endfacet
  facet normal 0 0 1
    outer loop
      vertex 4.65152 44.2562 5
      vertex 8.21251 38.6368 5
      vertex 9.25207 43.5276 5
    endloop
  endfacet
  facet normal 0 0 1
    outer loop
      vertex 4.65152 44.2562 5
      vertex 4.12887 39.2836 5
      vertex 8.21251 38.6368 5
    endloop
  endfacet
  facet normal 0 0 1
    outer loop
      vertex 1.5 40.5 5
      vertex 4.65152 44.2562 5
      vertex 1.5 43.5 5
    endloop
  endfacet
  facet normal 0 0 1
    outer loop
      vertex 0 44.5 5
      vertex 1.5 43.5 5
      vertex 4.65152 44.2562 5
    endloop
  endfacet
  facet normal 0 0 1
    outer loop
      vertex 0 44.5 5
      vertex -1.5 43.5 5
      vertex 1.5 43.5 5
    endloop
  endfacet
  facet normal 0 0 1
    outer loop
      vertex -4.65152 44.2562 5
      vertex -1.5 40.5 5
      vertex -1.5 43.5 5
    endloop
  endfacet
  facet normal -0 0 1
    outer loop
      vertex -4.65152 44.2562 5
      vertex -1.5 43.5 5
      vertex 0 44.5 5
    endloop
  endfacet
  facet normal 0 0 1
    outer loop
      vertex -1.5 40.5 5
      vertex -4.65152 44.2562 5
      vertex -4.12887 39.2836 5
    endloop
  endfacet
  facet normal 0 0 1
    outer loop
      vertex -4.65152 44.2562 5
      vertex -8.21251 38.6368 5
      vertex -4.12887 39.2836 5
    endloop
  endfacet
  facet normal -0 0 1
    outer loop
      vertex -9.25207 43.5276 5
      vertex -8.21251 38.6368 5
      vertex -4.65152 44.2562 5
    endloop
  endfacet
  facet normal 0 0 1
    outer loop
      vertex -9.25207 43.5276 5
      vertex -12.2062 37.5667 5
      vertex -8.21251 38.6368 5
    endloop
  endfacet
  facet normal -0 0 1
    outer loop
      vertex -13.7513 42.322 5
      vertex -12.2062 37.5667 5
      vertex -9.25207 43.5276 5
    endloop
  endfacet
  facet normal 0 0 1
    outer loop
      vertex -13.7513 42.322 5
      vertex -16.0661 36.085 5
      vertex -12.2062 37.5667 5
    endloop
  endfacet
  facet normal -0 0 1
    outer loop
      vertex -18.0998 40.6528 5
      vertex -16.0661 36.085 5
      vertex -13.7513 42.322 5
    endloop
  endfacet
  facet normal 0 0 1
    outer loop
      vertex -18.0998 40.6528 5
      vertex -19.75 34.208 5
      vertex -16.0661 36.085 5
    endloop
  endfacet
  facet normal -0 0 1
    outer loop
      vertex -22.25 38.5381 5
      vertex -19.75 34.208 5
      vertex -18.0998 40.6528 5
    endloop
  endfacet
  facet normal 0 0 1
    outer loop
      vertex -22.25 38.5381 5
      vertex -23.2175 31.9562 5
      vertex -19.75 34.208 5
    endloop
  endfacet
  facet normal -0 0 1
    outer loop
      vertex -26.1564 36.0013 5
      vertex -23.2175 31.9562 5
      vertex -22.25 38.5381 5
    endloop
  endfacet
  facet normal 0 0 1
    outer loop
      vertex -26.1564 36.0013 5
      vertex -26.4307 29.3542 5
      vertex -23.2175 31.9562 5
    endloop
  endfacet
  facet normal -0 0 1
    outer loop
      vertex -29.7763 33.0699 5
      vertex -26.4307 29.3542 5
      vertex -26.1564 36.0013 5
    endloop
  endfacet
  facet normal 0 0 1
    outer loop
      vertex -26.4307 29.3542 5
      vertex -29.7763 33.0699 5
      vertex -29.3542 26.4307 5
    endloop
  endfacet
  facet normal -0 0 1
    outer loop
      vertex -33.0699 29.7763 5
      vertex -29.3542 26.4307 5
      vertex -29.7763 33.0699 5
    endloop
  endfacet
  facet normal 0 0 1
    outer loop
      vertex -29.3542 26.4307 5
      vertex -33.0699 29.7763 5
      vertex -31.9562 23.2175 5
    endloop
  endfacet
  facet normal -0 0 1
    outer loop
      vertex -36.0013 26.1564 5
      vertex -31.9562 23.2175 5
      vertex -33.0699 29.7763 5
    endloop
  endfacet
  facet normal 0 0 1
    outer loop
      vertex -31.9562 23.2175 5
      vertex -36.0013 26.1564 5
      vertex -34.208 19.75 5
    endloop
  endfacet
  facet normal -0 0 1
    outer loop
      vertex -38.5381 22.25 5
      vertex -34.208 19.75 5
      vertex -36.0013 26.1564 5
    endloop
  endfacet
  facet normal 0 0 1
    outer loop
      vertex -34.208 19.75 5
      vertex -38.5381 22.25 5
      vertex -36.085 16.0661 5
    endloop
  endfacet
  facet normal -0 0 1
    outer loop
      vertex -40.6528 18.0998 5
      vertex -36.085 16.0661 5
      vertex -38.5381 22.25 5
    endloop
  endfacet
  facet normal 0 0 1
    outer loop
      vertex -36.085 16.0661 5
      vertex -40.6528 18.0998 5
      vertex -37.5667 12.2062 5
    endloop
  endfacet
  facet normal -0 0 1
    outer loop
      vertex -42.322 13.7513 5
      vertex -37.5667 12.2062 5
      vertex -40.6528 18.0998 5
    endloop
  endfacet
  facet normal 0 0 1
    outer loop
      vertex -37.5667 12.2062 5
      vertex -42.322 13.7513 5
      vertex -38.6368 8.21251 5
    endloop
  endfacet
  facet normal -0 0 1
    outer loop
      vertex -43.5276 9.25207 5
      vertex -38.6368 8.21251 5
      vertex -42.322 13.7513 5
    endloop
  endfacet
  facet normal 0 0 1
    outer loop
      vertex 43.5276 -9.25207 5
      vertex 38.6368 -8.21251 5
      vertex 42.322 -13.7513 5
    endloop
  endfacet
  facet normal -0 0 1
    outer loop
      vertex 37.5667 -12.2062 5
      vertex 42.322 -13.7513 5
      vertex 38.6368 -8.21251 5
    endloop
  endfacet
  facet normal 0 0 1
    outer loop
      vertex 42.322 -13.7513 5
      vertex 37.5667 -12.2062 5
      vertex 40.6528 -18.0998 5
    endloop
  endfacet
  facet normal 0 0 1
    outer loop
      vertex 40.6528 -18.0998 5
      vertex 38.4221 -20.451 5
      vertex 38.5381 -22.25 5
    endloop
  endfacet
  facet normal -0 0 1
    outer loop
      vertex 36.085 -16.0661 5
      vertex 40.6528 -18.0998 5
      vertex 37.5667 -12.2062 5
    endloop
  endfacet
  facet normal 0 0 1
    outer loop
      vertex 35.824 -18.951 5
      vertex 40.6528 -18.0998 5
      vertex 36.085 -16.0661 5
    endloop
  endfacet
  facet normal 0 0 1
    outer loop
      vertex 40.6528 -18.0998 5
      vertex 35.824 -18.951 5
      vertex 38.4221 -20.451 5
    endloop
  endfacet
  facet normal 0 0 1
    outer loop
      vertex 34.208 -19.75 5
      vertex 35.824 -18.951 5
      vertex 36.085 -16.0661 5
    endloop
  endfacet
  facet normal 0 0 1
    outer loop
      vertex 35.824 -18.951 5
      vertex 34.208 -19.75 5
      vertex 34.324 -21.549 5
    endloop
  endfacet
  facet normal 0 0 1
    outer loop
      vertex 36.9221 -23.049 5
      vertex 38.5381 -22.25 5
      vertex 38.4221 -20.451 5
    endloop
  endfacet
  facet normal -0 0 1
    outer loop
      vertex 36.9221 -23.049 5
      vertex 36.0013 -26.1564 5
      vertex 38.5381 -22.25 5
    endloop
  endfacet
  facet normal 0 0 1
    outer loop
      vertex 34.324 -21.549 5
      vertex 36.0013 -26.1564 5
      vertex 36.9221 -23.049 5
    endloop
  endfacet
  facet normal -0 0 1
    outer loop
      vertex 31.9562 -23.2175 5
      vertex 36.0013 -26.1564 5
      vertex 34.324 -21.549 5
    endloop
  endfacet
  facet normal 0 0 1
    outer loop
      vertex 31.9562 -23.2175 5
      vertex 34.324 -21.549 5
      vertex 34.208 -19.75 5
    endloop
  endfacet
  facet normal 0 0 1
    outer loop
      vertex 36.0013 -26.1564 5
      vertex 31.9562 -23.2175 5
      vertex 33.0699 -29.7763 5
    endloop
  endfacet
  facet normal -0 0 1
    outer loop
      vertex 29.3542 -26.4307 5
      vertex 33.0699 -29.7763 5
      vertex 31.9562 -23.2175 5
    endloop
  endfacet
  facet normal 0 0 1
    outer loop
      vertex 33.0699 -29.7763 5
      vertex 29.3542 -26.4307 5
      vertex 29.7763 -33.0699 5
    endloop
  endfacet
  facet normal -0 0 1
    outer loop
      vertex 26.4307 -29.3542 5
      vertex 29.7763 -33.0699 5
      vertex 29.3542 -26.4307 5
    endloop
  endfacet
  facet normal 0 0 1
    outer loop
      vertex 26.4307 -29.3542 5
      vertex 26.1564 -36.0013 5
      vertex 29.7763 -33.0699 5
    endloop
  endfacet
  facet normal -0 0 1
    outer loop
      vertex 23.2175 -31.9562 5
      vertex 26.1564 -36.0013 5
      vertex 26.4307 -29.3542 5
    endloop
  endfacet
  facet normal 0 0 1
    outer loop
      vertex 23.2175 -31.9562 5
      vertex 22.25 -38.5381 5
      vertex 26.1564 -36.0013 5
    endloop
  endfacet
  facet normal -0 0 1
    outer loop
      vertex 19.75 -34.208 5
      vertex 22.25 -38.5381 5
      vertex 23.2175 -31.9562 5
    endloop
  endfacet
  facet normal 0 0 1
    outer loop
      vertex 19.75 -34.208 5
      vertex 18.0998 -40.6528 5
      vertex 22.25 -38.5381 5
    endloop
  endfacet
  facet normal -0 0 1
    outer loop
      vertex 16.0661 -36.085 5
      vertex 18.0998 -40.6528 5
      vertex 19.75 -34.208 5
    endloop
  endfacet
  facet normal 0 0 1
    outer loop
      vertex 16.0661 -36.085 5
      vertex 13.7513 -42.322 5
      vertex 18.0998 -40.6528 5
    endloop
  endfacet
  facet normal -0 0 1
    outer loop
      vertex 12.2062 -37.5667 5
      vertex 13.7513 -42.322 5
      vertex 16.0661 -36.085 5
    endloop
  endfacet
  facet normal 0 0 1
    outer loop
      vertex 12.2062 -37.5667 5
      vertex 9.25207 -43.5276 5
      vertex 13.7513 -42.322 5
    endloop
  endfacet
  facet normal -0 0 1
    outer loop
      vertex 8.21251 -38.6368 5
      vertex 9.25207 -43.5276 5
      vertex 12.2062 -37.5667 5
    endloop
  endfacet
  facet normal 0 0 1
    outer loop
      vertex 8.21251 -38.6368 5
      vertex 4.65152 -44.2562 5
      vertex 9.25207 -43.5276 5
    endloop
  endfacet
  facet normal -0 0 1
    outer loop
      vertex 4.12887 -39.2836 5
      vertex 4.65152 -44.2562 5
      vertex 8.21251 -38.6368 5
    endloop
  endfacet
  facet normal -0 0 1
    outer loop
      vertex 0 -39.5 5
      vertex 4.65152 -44.2562 5
      vertex 4.12887 -39.2836 5
    endloop
  endfacet
  facet normal 0 0 1
    outer loop
      vertex 0 -39.5 5
      vertex 0 -44.5 5
      vertex 4.65152 -44.2562 5
    endloop
  endfacet
  facet normal 0 0 1
    outer loop
      vertex -4.12887 -39.2836 5
      vertex 0 -44.5 5
      vertex 0 -39.5 5
    endloop
  endfacet
  facet normal 0 0 1
    outer loop
      vertex -4.12887 -39.2836 5
      vertex -4.65152 -44.2562 5
      vertex 0 -44.5 5
    endloop
  endfacet
  facet normal 0 0 1
    outer loop
      vertex -8.21251 -38.6368 5
      vertex -4.65152 -44.2562 5
      vertex -4.12887 -39.2836 5
    endloop
  endfacet
  facet normal 0 0 1
    outer loop
      vertex -8.21251 -38.6368 5
      vertex -9.25207 -43.5276 5
      vertex -4.65152 -44.2562 5
    endloop
  endfacet
  facet normal 0 0 1
    outer loop
      vertex -12.2062 -37.5667 5
      vertex -9.25207 -43.5276 5
      vertex -8.21251 -38.6368 5
    endloop
  endfacet
  facet normal 0 0 1
    outer loop
      vertex -12.2062 -37.5667 5
      vertex -13.7513 -42.322 5
      vertex -9.25207 -43.5276 5
    endloop
  endfacet
  facet normal 0 0 1
    outer loop
      vertex -16.0661 -36.085 5
      vertex -13.7513 -42.322 5
      vertex -12.2062 -37.5667 5
    endloop
  endfacet
  facet normal 0 0 1
    outer loop
      vertex -16.0661 -36.085 5
      vertex -18.0998 -40.6528 5
      vertex -13.7513 -42.322 5
    endloop
  endfacet
  facet normal 0 0 1
    outer loop
      vertex -19.75 -34.208 5
      vertex -18.0998 -40.6528 5
      vertex -16.0661 -36.085 5
    endloop
  endfacet
  facet normal 0 0 1
    outer loop
      vertex -19.75 -34.208 5
      vertex -22.25 -38.5381 5
      vertex -18.0998 -40.6528 5
    endloop
  endfacet
  facet normal 0 0 1
    outer loop
      vertex -23.2175 -31.9562 5
      vertex -22.25 -38.5381 5
      vertex -19.75 -34.208 5
    endloop
  endfacet
  facet normal 0 0 1
    outer loop
      vertex -23.2175 -31.9562 5
      vertex -26.1564 -36.0013 5
      vertex -22.25 -38.5381 5
    endloop
  endfacet
  facet normal 0 0 1
    outer loop
      vertex -26.4307 -29.3542 5
      vertex -26.1564 -36.0013 5
      vertex -23.2175 -31.9562 5
    endloop
  endfacet
  facet normal 0 0 1
    outer loop
      vertex -29.7763 -33.0699 5
      vertex -26.4307 -29.3542 5
      vertex -29.3542 -26.4307 5
    endloop
  endfacet
  facet normal 0 0 1
    outer loop
      vertex -26.4307 -29.3542 5
      vertex -29.7763 -33.0699 5
      vertex -26.1564 -36.0013 5
    endloop
  endfacet
  facet normal 0 0 1
    outer loop
      vertex -33.0699 -29.7763 5
      vertex -29.3542 -26.4307 5
      vertex -31.9562 -23.2175 5
    endloop
  endfacet
  facet normal 0 0 1
    outer loop
      vertex -29.3542 -26.4307 5
      vertex -33.0699 -29.7763 5
      vertex -29.7763 -33.0699 5
    endloop
  endfacet
  facet normal -0 0 1
    outer loop
      vertex -34.324 -21.549 5
      vertex -31.9562 -23.2175 5
      vertex -34.208 -19.75 5
    endloop
  endfacet
  facet normal 0 0 1
    outer loop
      vertex -36.0013 -26.1564 5
      vertex -31.9562 -23.2175 5
      vertex -34.324 -21.549 5
    endloop
  endfacet
  facet normal 0 0 1
    outer loop
      vertex -31.9562 -23.2175 5
      vertex -36.0013 -26.1564 5
      vertex -33.0699 -29.7763 5
    endloop
  endfacet
  facet normal -0 0 1
    outer loop
      vertex -36.9221 -23.049 5
      vertex -36.0013 -26.1564 5
      vertex -34.324 -21.549 5
    endloop
  endfacet
  facet normal -0 0 1
    outer loop
      vertex -38.5381 -22.25 5
      vertex -36.9221 -23.049 5
      vertex -38.4221 -20.451 5
    endloop
  endfacet
  facet normal 0 0 1
    outer loop
      vertex -36.9221 -23.049 5
      vertex -38.5381 -22.25 5
      vertex -36.0013 -26.1564 5
    endloop
  endfacet
  facet normal -1 0 0
    outer loop
      vertex 1.5 40.5 2
      vertex 1.5 43.5 5
      vertex 1.5 43.5 2
    endloop
  endfacet
  facet normal -1 -0 0
    outer loop
      vertex 1.5 43.5 5
      vertex 1.5 40.5 2
      vertex 1.5 40.5 5
    endloop
  endfacet
  facet normal -0 0 1
    outer loop
      vertex -1.5 43.5 2
      vertex 1.5 40.5 2
      vertex 1.5 43.5 2
    endloop
  endfacet
  facet normal 0 0 1
    outer loop
      vertex 1.5 40.5 2
      vertex -1.5 43.5 2
      vertex -1.5 40.5 2
    endloop
  endfacet
  facet normal 0 1 -0
    outer loop
      vertex 1.5 40.5 2
      vertex -1.5 40.5 5
      vertex 1.5 40.5 5
    endloop
  endfacet
  facet normal 0 1 0
    outer loop
      vertex -1.5 40.5 5
      vertex 1.5 40.5 2
      vertex -1.5 40.5 2
    endloop
  endfacet
  facet normal 0 -1 0
    outer loop
      vertex -1.5 43.5 2
      vertex 1.5 43.5 5
      vertex -1.5 43.5 5
    endloop
  endfacet
  facet normal 0 -1 -0
    outer loop
      vertex 1.5 43.5 5
      vertex -1.5 43.5 2
      vertex 1.5 43.5 2
    endloop
  endfacet
  facet normal -0.5 -0.866025 0
    outer loop
      vertex 35.824 -18.951 2
      vertex 38.4221 -20.451 5
      vertex 35.824 -18.951 5
    endloop
  endfacet
  facet normal -0.5 -0.866025 -0
    outer loop
      vertex 38.4221 -20.451 5
      vertex 35.824 -18.951 2
      vertex 38.4221 -20.451 2
    endloop
  endfacet
  facet normal 0.5 0.866025 -0
    outer loop
      vertex 36.9221 -23.049 2
      vertex 34.324 -21.549 5
      vertex 36.9221 -23.049 5
    endloop
  endfacet
  facet normal 0.5 0.866025 0
    outer loop
      vertex 34.324 -21.549 5
      vertex 36.9221 -23.049 2
      vertex 34.324 -21.549 2
    endloop
  endfacet
  facet normal 0 0 1
    outer loop
      vertex 35.824 -18.951 2
      vertex 36.9221 -23.049 2
      vertex 38.4221 -20.451 2
    endloop
  endfacet
  facet normal 0 0 1
    outer loop
      vertex 36.9221 -23.049 2
      vertex 35.824 -18.951 2
      vertex 34.324 -21.549 2
    endloop
  endfacet
  facet normal -0.866025 0.5 0
    outer loop
      vertex 36.9221 -23.049 2
      vertex 38.4221 -20.451 5
      vertex 38.4221 -20.451 2
    endloop
  endfacet
  facet normal -0.866025 0.5 0
    outer loop
      vertex 38.4221 -20.451 5
      vertex 36.9221 -23.049 2
      vertex 36.9221 -23.049 5
    endloop
  endfacet
  facet normal 0.866025 -0.5 0
    outer loop
      vertex 34.324 -21.549 5
      vertex 35.824 -18.951 2
      vertex 35.824 -18.951 5
    endloop
  endfacet
  facet normal 0.866025 -0.5 0
    outer loop
      vertex 35.824 -18.951 2
      vertex 34.324 -21.549 5
      vertex 34.324 -21.549 2
    endloop
  endfacet
  facet normal 0.5 -0.866025 0
    outer loop
      vertex -38.4221 -20.451 2
      vertex -35.824 -18.951 5
      vertex -38.4221 -20.451 5
    endloop
  endfacet
  facet normal 0.5 -0.866025 0
    outer loop
      vertex -35.824 -18.951 5
      vertex -38.4221 -20.451 2
      vertex -35.824 -18.951 2
    endloop
  endfacet
  facet normal -0.5 0.866025 0
    outer loop
      vertex -34.324 -21.549 2
      vertex -36.9221 -23.049 5
      vertex -34.324 -21.549 5
    endloop
  endfacet
  facet normal -0.5 0.866025 0
    outer loop
      vertex -36.9221 -23.049 5
      vertex -34.324 -21.549 2
      vertex -36.9221 -23.049 2
    endloop
  endfacet
  facet normal -0.866025 -0.5 0
    outer loop
      vertex -34.324 -21.549 2
      vertex -35.824 -18.951 5
      vertex -35.824 -18.951 2
    endloop
  endfacet
  facet normal -0.866025 -0.5 0
    outer loop
      vertex -35.824 -18.951 5
      vertex -34.324 -21.549 2
      vertex -34.324 -21.549 5
    endloop
  endfacet
  facet normal 0 0 1
    outer loop
      vertex -35.824 -18.951 2
      vertex -36.9221 -23.049 2
      vertex -34.324 -21.549 2
    endloop
  endfacet
  facet normal 0 -0 1
    outer loop
      vertex -36.9221 -23.049 2
      vertex -35.824 -18.951 2
      vertex -38.4221 -20.451 2
    endloop
  endfacet
  facet normal 0.866025 0.5 0
    outer loop
      vertex -36.9221 -23.049 5
      vertex -38.4221 -20.451 2
      vertex -38.4221 -20.451 5
    endloop
  endfacet
  facet normal 0.866025 0.5 0
    outer loop
      vertex -38.4221 -20.451 2
      vertex -36.9221 -23.049 5
      vertex -36.9221 -23.049 2
    endloop
  endfacet
  facet normal 0.99863 0.0523357 0
    outer loop
      vertex 44.5 0 5
      vertex 44.2562 4.65152 0
      vertex 44.2562 4.65152 5
    endloop
  endfacet
  facet normal 0.99863 0.0523357 0
    outer loop
      vertex 44.2562 4.65152 0
      vertex 44.5 0 5
      vertex 44.5 0 0
    endloop
  endfacet
  facet normal -0.99863 0.0523357 0
    outer loop
      vertex -44.5 0 0
      vertex -44.2562 4.65152 5
      vertex -44.2562 4.65152 0
    endloop
  endfacet
  facet normal -0.99863 0.0523357 0
    outer loop
      vertex -44.2562 4.65152 5
      vertex -44.5 0 0
      vertex -44.5 0 5
    endloop
  endfacet
  facet normal 0.0523357 0.99863 -0
    outer loop
      vertex 4.65152 44.2562 0
      vertex 0 44.5 5
      vertex 4.65152 44.2562 5
    endloop
  endfacet
  facet normal 0.0523357 0.99863 0
    outer loop
      vertex 0 44.5 5
      vertex 4.65152 44.2562 0
      vertex 0 44.5 0
    endloop
  endfacet
  facet normal -0.0523357 -0.99863 0
    outer loop
      vertex -4.65152 -44.2562 0
      vertex 0 -44.5 5
      vertex -4.65152 -44.2562 5
    endloop
  endfacet
  facet normal -0.0523357 -0.99863 -0
    outer loop
      vertex 0 -44.5 5
      vertex -4.65152 -44.2562 0
      vertex 0 -44.5 0
    endloop
  endfacet
  facet normal 0.707107 0.707107 0
    outer loop
      vertex 33.0699 29.7763 5
      vertex 29.7763 33.0699 0
      vertex 29.7763 33.0699 5
    endloop
  endfacet
  facet normal 0.707107 0.707107 0
    outer loop
      vertex 29.7763 33.0699 0
      vertex 33.0699 29.7763 5
      vertex 33.0699 29.7763 0
    endloop
  endfacet
  facet normal -0.62932 0.777146 0
    outer loop
      vertex -26.1564 36.0013 0
      vertex -29.7763 33.0699 5
      vertex -26.1564 36.0013 5
    endloop
  endfacet
  facet normal -0.62932 0.777146 0
    outer loop
      vertex -29.7763 33.0699 5
      vertex -26.1564 36.0013 0
      vertex -29.7763 33.0699 0
    endloop
  endfacet
  facet normal -0.258819 0.965926 0
    outer loop
      vertex -9.25207 43.5276 0
      vertex -13.7513 42.322 5
      vertex -9.25207 43.5276 5
    endloop
  endfacet
  facet normal -0.258819 0.965926 0
    outer loop
      vertex -13.7513 42.322 5
      vertex -9.25207 43.5276 0
      vertex -13.7513 42.322 0
    endloop
  endfacet
  facet normal 0.93358 0.358368 0
    outer loop
      vertex 42.322 13.7513 5
      vertex 40.6528 18.0998 0
      vertex 40.6528 18.0998 5
    endloop
  endfacet
  facet normal 0.93358 0.358368 0
    outer loop
      vertex 40.6528 18.0998 0
      vertex 42.322 13.7513 5
      vertex 42.322 13.7513 0
    endloop
  endfacet
  facet normal 0.358368 0.93358 -0
    outer loop
      vertex 18.0998 40.6528 0
      vertex 13.7513 42.322 5
      vertex 18.0998 40.6528 5
    endloop
  endfacet
  facet normal 0.358368 0.93358 0
    outer loop
      vertex 13.7513 42.322 5
      vertex 18.0998 40.6528 0
      vertex 13.7513 42.322 0
    endloop
  endfacet
  facet normal 0.258819 0.965926 -0
    outer loop
      vertex 13.7513 42.322 0
      vertex 9.25207 43.5276 5
      vertex 13.7513 42.322 5
    endloop
  endfacet
  facet normal 0.258819 0.965926 0
    outer loop
      vertex 9.25207 43.5276 5
      vertex 13.7513 42.322 0
      vertex 9.25207 43.5276 0
    endloop
  endfacet
  facet normal 0.544639 0.83867 -0
    outer loop
      vertex 26.1564 36.0013 0
      vertex 22.25 38.5381 5
      vertex 26.1564 36.0013 5
    endloop
  endfacet
  facet normal 0.544639 0.83867 0
    outer loop
      vertex 22.25 38.5381 5
      vertex 26.1564 36.0013 0
      vertex 22.25 38.5381 0
    endloop
  endfacet
  facet normal -0.891007 0.45399 0
    outer loop
      vertex -40.6528 18.0998 0
      vertex -38.5381 22.25 5
      vertex -38.5381 22.25 0
    endloop
  endfacet
  facet normal -0.891007 0.45399 0
    outer loop
      vertex -38.5381 22.25 5
      vertex -40.6528 18.0998 0
      vertex -40.6528 18.0998 5
    endloop
  endfacet
  facet normal -0.156435 0.987688 0
    outer loop
      vertex -4.65152 44.2562 0
      vertex -9.25207 43.5276 5
      vertex -4.65152 44.2562 5
    endloop
  endfacet
  facet normal -0.156435 0.987688 0
    outer loop
      vertex -9.25207 43.5276 5
      vertex -4.65152 44.2562 0
      vertex -9.25207 43.5276 0
    endloop
  endfacet
  facet normal 0 0 -1
    outer loop
      vertex 39.5 0 0
      vertex 44.5 0 0
      vertex 44.2562 -4.65152 0
    endloop
  endfacet
  facet normal 0 0 -1
    outer loop
      vertex 39.2836 -4.12887 0
      vertex 44.2562 -4.65152 0
      vertex 43.5276 -9.25207 0
    endloop
  endfacet
  facet normal 0 0 -1
    outer loop
      vertex 44.5 0 0
      vertex 39.5 0 0
      vertex 44.2562 4.65152 0
    endloop
  endfacet
  facet normal 0 0 -1
    outer loop
      vertex 38.6368 -8.21251 0
      vertex 43.5276 -9.25207 0
      vertex 42.322 -13.7513 0
    endloop
  endfacet
  facet normal 0 0 -1
    outer loop
      vertex 39.2836 4.12887 0
      vertex 44.2562 4.65152 0
      vertex 39.5 0 0
    endloop
  endfacet
  facet normal 0 0 -1
    outer loop
      vertex 37.5667 -12.2062 0
      vertex 42.322 -13.7513 0
      vertex 40.6528 -18.0998 0
    endloop
  endfacet
  facet normal -0 0 -1
    outer loop
      vertex 44.2562 4.65152 0
      vertex 39.2836 4.12887 0
      vertex 43.5276 9.25207 0
    endloop
  endfacet
  facet normal 0 0 -1
    outer loop
      vertex 38.6368 8.21251 0
      vertex 43.5276 9.25207 0
      vertex 39.2836 4.12887 0
    endloop
  endfacet
  facet normal 0 0 -1
    outer loop
      vertex 44.2562 -4.65152 0
      vertex 39.2836 -4.12887 0
      vertex 39.5 0 0
    endloop
  endfacet
  facet normal 0 0 -1
    outer loop
      vertex 43.5276 -9.25207 0
      vertex 38.6368 -8.21251 0
      vertex 39.2836 -4.12887 0
    endloop
  endfacet
  facet normal 0 0 -1
    outer loop
      vertex 36.085 -16.0661 0
      vertex 40.6528 -18.0998 0
      vertex 38.5381 -22.25 0
    endloop
  endfacet
  facet normal 0 0 -1
    outer loop
      vertex 42.322 -13.7513 0
      vertex 37.5667 -12.2062 0
      vertex 38.6368 -8.21251 0
    endloop
  endfacet
  facet normal 0 0 -1
    outer loop
      vertex 40.6528 -18.0998 0
      vertex 36.085 -16.0661 0
      vertex 37.5667 -12.2062 0
    endloop
  endfacet
  facet normal 0 0 -1
    outer loop
      vertex 34.208 -19.75 0
      vertex 38.5381 -22.25 0
      vertex 36.0013 -26.1564 0
    endloop
  endfacet
  facet normal 0 0 -1
    outer loop
      vertex 38.5381 -22.25 0
      vertex 34.208 -19.75 0
      vertex 36.085 -16.0661 0
    endloop
  endfacet
  facet normal 0 0 -1
    outer loop
      vertex 31.9562 -23.2175 0
      vertex 36.0013 -26.1564 0
      vertex 33.0699 -29.7763 0
    endloop
  endfacet
  facet normal 0 0 -1
    outer loop
      vertex 36.0013 -26.1564 0
      vertex 31.9562 -23.2175 0
      vertex 34.208 -19.75 0
    endloop
  endfacet
  facet normal 0 0 -1
    outer loop
      vertex 29.3542 -26.4307 0
      vertex 33.0699 -29.7763 0
      vertex 29.7763 -33.0699 0
    endloop
  endfacet
  facet normal 0 0 -1
    outer loop
      vertex 33.0699 -29.7763 0
      vertex 29.3542 -26.4307 0
      vertex 31.9562 -23.2175 0
    endloop
  endfacet
  facet normal 0 0 -1
    outer loop
      vertex 29.7763 -33.0699 0
      vertex 26.4307 -29.3542 0
      vertex 29.3542 -26.4307 0
    endloop
  endfacet
  facet normal 0 0 -1
    outer loop
      vertex 26.1564 -36.0013 0
      vertex 26.4307 -29.3542 0
      vertex 29.7763 -33.0699 0
    endloop
  endfacet
  facet normal 0 0 -1
    outer loop
      vertex 26.1564 -36.0013 0
      vertex 23.2175 -31.9562 0
      vertex 26.4307 -29.3542 0
    endloop
  endfacet
  facet normal 0 0 -1
    outer loop
      vertex 22.25 -38.5381 0
      vertex 23.2175 -31.9562 0
      vertex 26.1564 -36.0013 0
    endloop
  endfacet
  facet normal 0 0 -1
    outer loop
      vertex 22.25 -38.5381 0
      vertex 19.75 -34.208 0
      vertex 23.2175 -31.9562 0
    endloop
  endfacet
  facet normal 0 0 -1
    outer loop
      vertex 18.0998 -40.6528 0
      vertex 19.75 -34.208 0
      vertex 22.25 -38.5381 0
    endloop
  endfacet
  facet normal 0 0 -1
    outer loop
      vertex 18.0998 -40.6528 0
      vertex 16.0661 -36.085 0
      vertex 19.75 -34.208 0
    endloop
  endfacet
  facet normal 0 0 -1
    outer loop
      vertex 13.7513 -42.322 0
      vertex 16.0661 -36.085 0
      vertex 18.0998 -40.6528 0
    endloop
  endfacet
  facet normal 0 0 -1
    outer loop
      vertex 13.7513 -42.322 0
      vertex 12.2062 -37.5667 0
      vertex 16.0661 -36.085 0
    endloop
  endfacet
  facet normal 0 0 -1
    outer loop
      vertex 9.25207 -43.5276 0
      vertex 12.2062 -37.5667 0
      vertex 13.7513 -42.322 0
    endloop
  endfacet
  facet normal 0 0 -1
    outer loop
      vertex 9.25207 -43.5276 0
      vertex 8.21251 -38.6368 0
      vertex 12.2062 -37.5667 0
    endloop
  endfacet
  facet normal 0 0 -1
    outer loop
      vertex 4.65152 -44.2562 0
      vertex 8.21251 -38.6368 0
      vertex 9.25207 -43.5276 0
    endloop
  endfacet
  facet normal 0 0 -1
    outer loop
      vertex 4.65152 -44.2562 0
      vertex 4.12887 -39.2836 0
      vertex 8.21251 -38.6368 0
    endloop
  endfacet
  facet normal 0 0 -1
    outer loop
      vertex 0 -44.5 0
      vertex 4.12887 -39.2836 0
      vertex 4.65152 -44.2562 0
    endloop
  endfacet
  facet normal 0 0 -1
    outer loop
      vertex 0 -44.5 0
      vertex 0 -39.5 0
      vertex 4.12887 -39.2836 0
    endloop
  endfacet
  facet normal 0 0 -1
    outer loop
      vertex 0 -44.5 0
      vertex -4.12887 -39.2836 0
      vertex 0 -39.5 0
    endloop
  endfacet
  facet normal 0 0 -1
    outer loop
      vertex -4.65152 -44.2562 0
      vertex -4.12887 -39.2836 0
      vertex 0 -44.5 0
    endloop
  endfacet
  facet normal 0 0 -1
    outer loop
      vertex -4.65152 -44.2562 0
      vertex -8.21251 -38.6368 0
      vertex -4.12887 -39.2836 0
    endloop
  endfacet
  facet normal 0 0 -1
    outer loop
      vertex -9.25207 -43.5276 0
      vertex -8.21251 -38.6368 0
      vertex -4.65152 -44.2562 0
    endloop
  endfacet
  facet normal 0 0 -1
    outer loop
      vertex -9.25207 -43.5276 0
      vertex -12.2062 -37.5667 0
      vertex -8.21251 -38.6368 0
    endloop
  endfacet
  facet normal 0 0 -1
    outer loop
      vertex -13.7513 -42.322 0
      vertex -12.2062 -37.5667 0
      vertex -9.25207 -43.5276 0
    endloop
  endfacet
  facet normal 0 0 -1
    outer loop
      vertex -13.7513 -42.322 0
      vertex -16.0661 -36.085 0
      vertex -12.2062 -37.5667 0
    endloop
  endfacet
  facet normal 0 0 -1
    outer loop
      vertex -18.0998 -40.6528 0
      vertex -16.0661 -36.085 0
      vertex -13.7513 -42.322 0
    endloop
  endfacet
  facet normal 0 0 -1
    outer loop
      vertex -18.0998 -40.6528 0
      vertex -19.75 -34.208 0
      vertex -16.0661 -36.085 0
    endloop
  endfacet
  facet normal 0 0 -1
    outer loop
      vertex -22.25 -38.5381 0
      vertex -19.75 -34.208 0
      vertex -18.0998 -40.6528 0
    endloop
  endfacet
  facet normal 0 0 -1
    outer loop
      vertex -22.25 -38.5381 0
      vertex -23.2175 -31.9562 0
      vertex -19.75 -34.208 0
    endloop
  endfacet
  facet normal 0 0 -1
    outer loop
      vertex -26.1564 -36.0013 0
      vertex -23.2175 -31.9562 0
      vertex -22.25 -38.5381 0
    endloop
  endfacet
  facet normal 0 0 -1
    outer loop
      vertex -26.1564 -36.0013 0
      vertex -26.4307 -29.3542 0
      vertex -23.2175 -31.9562 0
    endloop
  endfacet
  facet normal 0 0 -1
    outer loop
      vertex -29.7763 -33.0699 0
      vertex -26.4307 -29.3542 0
      vertex -26.1564 -36.0013 0
    endloop
  endfacet
  facet normal -0 0 -1
    outer loop
      vertex -26.4307 -29.3542 0
      vertex -29.7763 -33.0699 0
      vertex -29.3542 -26.4307 0
    endloop
  endfacet
  facet normal 0 0 -1
    outer loop
      vertex -33.0699 -29.7763 0
      vertex -29.3542 -26.4307 0
      vertex -29.7763 -33.0699 0
    endloop
  endfacet
  facet normal -0 0 -1
    outer loop
      vertex -29.3542 -26.4307 0
      vertex -33.0699 -29.7763 0
      vertex -31.9562 -23.2175 0
    endloop
  endfacet
  facet normal 0 0 -1
    outer loop
      vertex -36.0013 -26.1564 0
      vertex -31.9562 -23.2175 0
      vertex -33.0699 -29.7763 0
    endloop
  endfacet
  facet normal -0 0 -1
    outer loop
      vertex -31.9562 -23.2175 0
      vertex -36.0013 -26.1564 0
      vertex -34.208 -19.75 0
    endloop
  endfacet
  facet normal 0 0 -1
    outer loop
      vertex -38.5381 -22.25 0
      vertex -34.208 -19.75 0
      vertex -36.0013 -26.1564 0
    endloop
  endfacet
  facet normal -0 0 -1
    outer loop
      vertex -34.208 -19.75 0
      vertex -38.5381 -22.25 0
      vertex -36.085 -16.0661 0
    endloop
  endfacet
  facet normal 0 0 -1
    outer loop
      vertex -40.6528 -18.0998 0
      vertex -36.085 -16.0661 0
      vertex -38.5381 -22.25 0
    endloop
  endfacet
  facet normal -0 0 -1
    outer loop
      vertex -36.085 -16.0661 0
      vertex -40.6528 -18.0998 0
      vertex -37.5667 -12.2062 0
    endloop
  endfacet
  facet normal 0 0 -1
    outer loop
      vertex -42.322 -13.7513 0
      vertex -37.5667 -12.2062 0
      vertex -40.6528 -18.0998 0
    endloop
  endfacet
  facet normal -0 0 -1
    outer loop
      vertex -37.5667 -12.2062 0
      vertex -42.322 -13.7513 0
      vertex -38.6368 -8.21251 0
    endloop
  endfacet
  facet normal 0 0 -1
    outer loop
      vertex -43.5276 -9.25207 0
      vertex -38.6368 -8.21251 0
      vertex -42.322 -13.7513 0
    endloop
  endfacet
  facet normal -0 0 -1
    outer loop
      vertex 43.5276 9.25207 0
      vertex 38.6368 8.21251 0
      vertex 42.322 13.7513 0
    endloop
  endfacet
  facet normal 0 0 -1
    outer loop
      vertex 37.5667 12.2062 0
      vertex 42.322 13.7513 0
      vertex 38.6368 8.21251 0
    endloop
  endfacet
  facet normal -0 0 -1
    outer loop
      vertex 42.322 13.7513 0
      vertex 37.5667 12.2062 0
      vertex 40.6528 18.0998 0
    endloop
  endfacet
  facet normal 0 0 -1
    outer loop
      vertex 36.085 16.0661 0
      vertex 40.6528 18.0998 0
      vertex 37.5667 12.2062 0
    endloop
  endfacet
  facet normal -0 0 -1
    outer loop
      vertex 40.6528 18.0998 0
      vertex 36.085 16.0661 0
      vertex 38.5381 22.25 0
    endloop
  endfacet
  facet normal 0 0 -1
    outer loop
      vertex 34.208 19.75 0
      vertex 38.5381 22.25 0
      vertex 36.085 16.0661 0
    endloop
  endfacet
  facet normal -0 0 -1
    outer loop
      vertex 38.5381 22.25 0
      vertex 34.208 19.75 0
      vertex 36.0013 26.1564 0
    endloop
  endfacet
  facet normal 0 0 -1
    outer loop
      vertex 31.9562 23.2175 0
      vertex 36.0013 26.1564 0
      vertex 34.208 19.75 0
    endloop
  endfacet
  facet normal -0 0 -1
    outer loop
      vertex 36.0013 26.1564 0
      vertex 31.9562 23.2175 0
      vertex 33.0699 29.7763 0
    endloop
  endfacet
  facet normal 0 0 -1
    outer loop
      vertex 29.3542 26.4307 0
      vertex 33.0699 29.7763 0
      vertex 31.9562 23.2175 0
    endloop
  endfacet
  facet normal -0 0 -1
    outer loop
      vertex 33.0699 29.7763 0
      vertex 29.3542 26.4307 0
      vertex 29.7763 33.0699 0
    endloop
  endfacet
  facet normal 0 0 -1
    outer loop
      vertex 26.4307 29.3542 0
      vertex 29.7763 33.0699 0
      vertex 29.3542 26.4307 0
    endloop
  endfacet
  facet normal 0 0 -1
    outer loop
      vertex 26.4307 29.3542 0
      vertex 26.1564 36.0013 0
      vertex 29.7763 33.0699 0
    endloop
  endfacet
  facet normal 0 0 -1
    outer loop
      vertex 23.2175 31.9562 0
      vertex 26.1564 36.0013 0
      vertex 26.4307 29.3542 0
    endloop
  endfacet
  facet normal 0 0 -1
    outer loop
      vertex 23.2175 31.9562 0
      vertex 22.25 38.5381 0
      vertex 26.1564 36.0013 0
    endloop
  endfacet
  facet normal 0 0 -1
    outer loop
      vertex 19.75 34.208 0
      vertex 22.25 38.5381 0
      vertex 23.2175 31.9562 0
    endloop
  endfacet
  facet normal 0 0 -1
    outer loop
      vertex 19.75 34.208 0
      vertex 18.0998 40.6528 0
      vertex 22.25 38.5381 0
    endloop
  endfacet
  facet normal 0 0 -1
    outer loop
      vertex 16.0661 36.085 0
      vertex 18.0998 40.6528 0
      vertex 19.75 34.208 0
    endloop
  endfacet
  facet normal 0 0 -1
    outer loop
      vertex 16.0661 36.085 0
      vertex 13.7513 42.322 0
      vertex 18.0998 40.6528 0
    endloop
  endfacet
  facet normal 0 0 -1
    outer loop
      vertex 12.2062 37.5667 0
      vertex 13.7513 42.322 0
      vertex 16.0661 36.085 0
    endloop
  endfacet
  facet normal 0 0 -1
    outer loop
      vertex 12.2062 37.5667 0
      vertex 9.25207 43.5276 0
      vertex 13.7513 42.322 0
    endloop
  endfacet
  facet normal 0 0 -1
    outer loop
      vertex 8.21251 38.6368 0
      vertex 9.25207 43.5276 0
      vertex 12.2062 37.5667 0
    endloop
  endfacet
  facet normal 0 0 -1
    outer loop
      vertex 8.21251 38.6368 0
      vertex 4.65152 44.2562 0
      vertex 9.25207 43.5276 0
    endloop
  endfacet
  facet normal 0 0 -1
    outer loop
      vertex 4.12887 39.2836 0
      vertex 4.65152 44.2562 0
      vertex 8.21251 38.6368 0
    endloop
  endfacet
  facet normal 0 0 -1
    outer loop
      vertex 0 39.5 0
      vertex 4.65152 44.2562 0
      vertex 4.12887 39.2836 0
    endloop
  endfacet
  facet normal 0 0 -1
    outer loop
      vertex 0 39.5 0
      vertex 0 44.5 0
      vertex 4.65152 44.2562 0
    endloop
  endfacet
  facet normal 0 0 -1
    outer loop
      vertex -4.12887 39.2836 0
      vertex 0 44.5 0
      vertex 0 39.5 0
    endloop
  endfacet
  facet normal 0 0 -1
    outer loop
      vertex -4.12887 39.2836 0
      vertex -4.65152 44.2562 0
      vertex 0 44.5 0
    endloop
  endfacet
  facet normal 0 0 -1
    outer loop
      vertex -8.21251 38.6368 0
      vertex -4.65152 44.2562 0
      vertex -4.12887 39.2836 0
    endloop
  endfacet
  facet normal 0 0 -1
    outer loop
      vertex -8.21251 38.6368 0
      vertex -9.25207 43.5276 0
      vertex -4.65152 44.2562 0
    endloop
  endfacet
  facet normal 0 0 -1
    outer loop
      vertex -12.2062 37.5667 0
      vertex -9.25207 43.5276 0
      vertex -8.21251 38.6368 0
    endloop
  endfacet
  facet normal 0 0 -1
    outer loop
      vertex -12.2062 37.5667 0
      vertex -13.7513 42.322 0
      vertex -9.25207 43.5276 0
    endloop
  endfacet
  facet normal 0 0 -1
    outer loop
      vertex -16.0661 36.085 0
      vertex -13.7513 42.322 0
      vertex -12.2062 37.5667 0
    endloop
  endfacet
  facet normal 0 0 -1
    outer loop
      vertex -16.0661 36.085 0
      vertex -18.0998 40.6528 0
      vertex -13.7513 42.322 0
    endloop
  endfacet
  facet normal 0 0 -1
    outer loop
      vertex -19.75 34.208 0
      vertex -18.0998 40.6528 0
      vertex -16.0661 36.085 0
    endloop
  endfacet
  facet normal 0 0 -1
    outer loop
      vertex -19.75 34.208 0
      vertex -22.25 38.5381 0
      vertex -18.0998 40.6528 0
    endloop
  endfacet
  facet normal 0 0 -1
    outer loop
      vertex -23.2175 31.9562 0
      vertex -22.25 38.5381 0
      vertex -19.75 34.208 0
    endloop
  endfacet
  facet normal 0 0 -1
    outer loop
      vertex -23.2175 31.9562 0
      vertex -26.1564 36.0013 0
      vertex -22.25 38.5381 0
    endloop
  endfacet
  facet normal 0 0 -1
    outer loop
      vertex -26.4307 29.3542 0
      vertex -26.1564 36.0013 0
      vertex -23.2175 31.9562 0
    endloop
  endfacet
  facet normal 0 0 -1
    outer loop
      vertex -29.7763 33.0699 0
      vertex -26.4307 29.3542 0
      vertex -29.3542 26.4307 0
    endloop
  endfacet
  facet normal 0 0 -1
    outer loop
      vertex -26.4307 29.3542 0
      vertex -29.7763 33.0699 0
      vertex -26.1564 36.0013 0
    endloop
  endfacet
  facet normal 0 0 -1
    outer loop
      vertex -33.0699 29.7763 0
      vertex -29.3542 26.4307 0
      vertex -31.9562 23.2175 0
    endloop
  endfacet
  facet normal 0 0 -1
    outer loop
      vertex -29.3542 26.4307 0
      vertex -33.0699 29.7763 0
      vertex -29.7763 33.0699 0
    endloop
  endfacet
  facet normal 0 0 -1
    outer loop
      vertex -36.0013 26.1564 0
      vertex -31.9562 23.2175 0
      vertex -34.208 19.75 0
    endloop
  endfacet
  facet normal 0 0 -1
    outer loop
      vertex -31.9562 23.2175 0
      vertex -36.0013 26.1564 0
      vertex -33.0699 29.7763 0
    endloop
  endfacet
  facet normal 0 0 -1
    outer loop
      vertex -38.5381 22.25 0
      vertex -34.208 19.75 0
      vertex -36.085 16.0661 0
    endloop
  endfacet
  facet normal 0 0 -1
    outer loop
      vertex -40.6528 18.0998 0
      vertex -36.085 16.0661 0
      vertex -37.5667 12.2062 0
    endloop
  endfacet
  facet normal 0 0 -1
    outer loop
      vertex -34.208 19.75 0
      vertex -38.5381 22.25 0
      vertex -36.0013 26.1564 0
    endloop
  endfacet
  facet normal 0 0 -1
    outer loop
      vertex -42.322 13.7513 0
      vertex -37.5667 12.2062 0
      vertex -38.6368 8.21251 0
    endloop
  endfacet
  facet normal 0 0 -1
    outer loop
      vertex -43.5276 9.25207 0
      vertex -38.6368 8.21251 0
      vertex -39.2836 4.12887 0
    endloop
  endfacet
  facet normal 0 0 -1
    outer loop
      vertex -44.2562 4.65152 0
      vertex -39.2836 4.12887 0
      vertex -39.5 0 0
    endloop
  endfacet
  facet normal -0 0 -1
    outer loop
      vertex -38.6368 -8.21251 0
      vertex -43.5276 -9.25207 0
      vertex -39.2836 -4.12887 0
    endloop
  endfacet
  facet normal 0 0 -1
    outer loop
      vertex -36.085 16.0661 0
      vertex -40.6528 18.0998 0
      vertex -38.5381 22.25 0
    endloop
  endfacet
  facet normal 0 0 -1
    outer loop
      vertex -44.2562 -4.65152 0
      vertex -39.2836 -4.12887 0
      vertex -43.5276 -9.25207 0
    endloop
  endfacet
  facet normal 0 0 -1
    outer loop
      vertex -37.5667 12.2062 0
      vertex -42.322 13.7513 0
      vertex -40.6528 18.0998 0
    endloop
  endfacet
  facet normal -0 0 -1
    outer loop
      vertex -39.2836 -4.12887 0
      vertex -44.2562 -4.65152 0
      vertex -39.5 0 0
    endloop
  endfacet
  facet normal 0 0 -1
    outer loop
      vertex -38.6368 8.21251 0
      vertex -43.5276 9.25207 0
      vertex -42.322 13.7513 0
    endloop
  endfacet
  facet normal 0 0 -1
    outer loop
      vertex -44.5 0 0
      vertex -39.5 0 0
      vertex -44.2562 -4.65152 0
    endloop
  endfacet
  facet normal 0 0 -1
    outer loop
      vertex -39.2836 4.12887 0
      vertex -44.2562 4.65152 0
      vertex -43.5276 9.25207 0
    endloop
  endfacet
  facet normal 0 0 -1
    outer loop
      vertex -39.5 0 0
      vertex -44.5 0 0
      vertex -44.2562 4.65152 0
    endloop
  endfacet
  facet normal 0.965926 0.258819 0
    outer loop
      vertex 43.5276 9.25207 5
      vertex 42.322 13.7513 0
      vertex 42.322 13.7513 5
    endloop
  endfacet
  facet normal 0.965926 0.258819 0
    outer loop
      vertex 42.322 13.7513 0
      vertex 43.5276 9.25207 5
      vertex 43.5276 9.25207 0
    endloop
  endfacet
  facet normal 0.987688 0.156435 0
    outer loop
      vertex 44.2562 4.65152 5
      vertex 43.5276 9.25207 0
      vertex 43.5276 9.25207 5
    endloop
  endfacet
  facet normal 0.987688 0.156435 0
    outer loop
      vertex 43.5276 9.25207 0
      vertex 44.2562 4.65152 5
      vertex 44.2562 4.65152 0
    endloop
  endfacet
  facet normal 0.83867 0.544639 0
    outer loop
      vertex 38.5381 22.25 5
      vertex 36.0013 26.1564 0
      vertex 36.0013 26.1564 5
    endloop
  endfacet
  facet normal 0.83867 0.544639 0
    outer loop
      vertex 36.0013 26.1564 0
      vertex 38.5381 22.25 5
      vertex 38.5381 22.25 0
    endloop
  endfacet
  facet normal 0.777146 0.62932 0
    outer loop
      vertex 36.0013 26.1564 5
      vertex 33.0699 29.7763 0
      vertex 33.0699 29.7763 5
    endloop
  endfacet
  facet normal 0.777146 0.62932 0
    outer loop
      vertex 33.0699 29.7763 0
      vertex 36.0013 26.1564 5
      vertex 36.0013 26.1564 0
    endloop
  endfacet
  facet normal 0.891007 0.45399 0
    outer loop
      vertex 40.6528 18.0998 5
      vertex 38.5381 22.25 0
      vertex 38.5381 22.25 5
    endloop
  endfacet
  facet normal 0.891007 0.45399 0
    outer loop
      vertex 38.5381 22.25 0
      vertex 40.6528 18.0998 5
      vertex 40.6528 18.0998 0
    endloop
  endfacet
  facet normal 0.156435 0.987688 -0
    outer loop
      vertex 9.25207 43.5276 0
      vertex 4.65152 44.2562 5
      vertex 9.25207 43.5276 5
    endloop
  endfacet
  facet normal 0.156435 0.987688 0
    outer loop
      vertex 4.65152 44.2562 5
      vertex 9.25207 43.5276 0
      vertex 4.65152 44.2562 0
    endloop
  endfacet
  facet normal 0.45399 0.891007 -0
    outer loop
      vertex 22.25 38.5381 0
      vertex 18.0998 40.6528 5
      vertex 22.25 38.5381 5
    endloop
  endfacet
  facet normal 0.45399 0.891007 0
    outer loop
      vertex 18.0998 40.6528 5
      vertex 22.25 38.5381 0
      vertex 18.0998 40.6528 0
    endloop
  endfacet
  facet normal 0.62932 0.777146 -0
    outer loop
      vertex 29.7763 33.0699 0
      vertex 26.1564 36.0013 5
      vertex 29.7763 33.0699 5
    endloop
  endfacet
  facet normal 0.62932 0.777146 0
    outer loop
      vertex 26.1564 36.0013 5
      vertex 29.7763 33.0699 0
      vertex 26.1564 36.0013 0
    endloop
  endfacet
  facet normal -0.965926 0.258819 0
    outer loop
      vertex -43.5276 9.25207 0
      vertex -42.322 13.7513 5
      vertex -42.322 13.7513 0
    endloop
  endfacet
  facet normal -0.965926 0.258819 0
    outer loop
      vertex -42.322 13.7513 5
      vertex -43.5276 9.25207 0
      vertex -43.5276 9.25207 5
    endloop
  endfacet
  facet normal -0.777146 0.62932 0
    outer loop
      vertex -36.0013 26.1564 0
      vertex -33.0699 29.7763 5
      vertex -33.0699 29.7763 0
    endloop
  endfacet
  facet normal -0.777146 0.62932 0
    outer loop
      vertex -33.0699 29.7763 5
      vertex -36.0013 26.1564 0
      vertex -36.0013 26.1564 5
    endloop
  endfacet
  facet normal -0.707107 0.707107 0
    outer loop
      vertex -33.0699 29.7763 0
      vertex -29.7763 33.0699 5
      vertex -29.7763 33.0699 0
    endloop
  endfacet
  facet normal -0.707107 0.707107 0
    outer loop
      vertex -29.7763 33.0699 5
      vertex -33.0699 29.7763 0
      vertex -33.0699 29.7763 5
    endloop
  endfacet
  facet normal -0.83867 0.544639 0
    outer loop
      vertex -38.5381 22.25 0
      vertex -36.0013 26.1564 5
      vertex -36.0013 26.1564 0
    endloop
  endfacet
  facet normal -0.83867 0.544639 0
    outer loop
      vertex -36.0013 26.1564 5
      vertex -38.5381 22.25 0
      vertex -38.5381 22.25 5
    endloop
  endfacet
  facet normal -0.93358 0.358368 0
    outer loop
      vertex -42.322 13.7513 0
      vertex -40.6528 18.0998 5
      vertex -40.6528 18.0998 0
    endloop
  endfacet
  facet normal -0.93358 0.358368 0
    outer loop
      vertex -40.6528 18.0998 5
      vertex -42.322 13.7513 0
      vertex -42.322 13.7513 5
    endloop
  endfacet
  facet normal -0.987688 0.156435 0
    outer loop
      vertex -44.2562 4.65152 0
      vertex -43.5276 9.25207 5
      vertex -43.5276 9.25207 0
    endloop
  endfacet
  facet normal -0.987688 0.156435 0
    outer loop
      vertex -43.5276 9.25207 5
      vertex -44.2562 4.65152 0
      vertex -44.2562 4.65152 5
    endloop
  endfacet
  facet normal -0.45399 0.891007 0
    outer loop
      vertex -18.0998 40.6528 0
      vertex -22.25 38.5381 5
      vertex -18.0998 40.6528 5
    endloop
  endfacet
  facet normal -0.45399 0.891007 0
    outer loop
      vertex -22.25 38.5381 5
      vertex -18.0998 40.6528 0
      vertex -22.25 38.5381 0
    endloop
  endfacet
  facet normal -0.358368 0.93358 0
    outer loop
      vertex -13.7513 42.322 0
      vertex -18.0998 40.6528 5
      vertex -13.7513 42.322 5
    endloop
  endfacet
  facet normal -0.358368 0.93358 0
    outer loop
      vertex -18.0998 40.6528 5
      vertex -13.7513 42.322 0
      vertex -18.0998 40.6528 0
    endloop
  endfacet
  facet normal -0.544639 0.83867 0
    outer loop
      vertex -22.25 38.5381 0
      vertex -26.1564 36.0013 5
      vertex -22.25 38.5381 5
    endloop
  endfacet
  facet normal -0.544639 0.83867 0
    outer loop
      vertex -26.1564 36.0013 5
      vertex -22.25 38.5381 0
      vertex -26.1564 36.0013 0
    endloop
  endfacet
  facet normal -0.0523357 0.99863 0
    outer loop
      vertex 0 44.5 0
      vertex -4.65152 44.2562 5
      vertex 0 44.5 5
    endloop
  endfacet
  facet normal -0.0523357 0.99863 0
    outer loop
      vertex -4.65152 44.2562 5
      vertex 0 44.5 0
      vertex -4.65152 44.2562 0
    endloop
  endfacet
  facet normal 0.99863 -0.0523357 0
    outer loop
      vertex 44.2562 -4.65152 5
      vertex 44.5 0 0
      vertex 44.5 0 5
    endloop
  endfacet
  facet normal 0.99863 -0.0523357 0
    outer loop
      vertex 44.5 0 0
      vertex 44.2562 -4.65152 5
      vertex 44.2562 -4.65152 0
    endloop
  endfacet
  facet normal 0.0523357 -0.99863 0
    outer loop
      vertex 0 -44.5 0
      vertex 4.65152 -44.2562 5
      vertex 0 -44.5 5
    endloop
  endfacet
  facet normal 0.0523357 -0.99863 0
    outer loop
      vertex 4.65152 -44.2562 5
      vertex 0 -44.5 0
      vertex 4.65152 -44.2562 0
    endloop
  endfacet
  facet normal 0.258819 -0.965926 0
    outer loop
      vertex 9.25207 -43.5276 0
      vertex 13.7513 -42.322 5
      vertex 9.25207 -43.5276 5
    endloop
  endfacet
  facet normal 0.258819 -0.965926 0
    outer loop
      vertex 13.7513 -42.322 5
      vertex 9.25207 -43.5276 0
      vertex 13.7513 -42.322 0
    endloop
  endfacet
  facet normal 0.62932 -0.777146 0
    outer loop
      vertex 26.1564 -36.0013 0
      vertex 29.7763 -33.0699 5
      vertex 26.1564 -36.0013 5
    endloop
  endfacet
  facet normal 0.62932 -0.777146 0
    outer loop
      vertex 29.7763 -33.0699 5
      vertex 26.1564 -36.0013 0
      vertex 29.7763 -33.0699 0
    endloop
  endfacet
  facet normal 0.45399 -0.891007 0
    outer loop
      vertex 18.0998 -40.6528 0
      vertex 22.25 -38.5381 5
      vertex 18.0998 -40.6528 5
    endloop
  endfacet
  facet normal 0.45399 -0.891007 0
    outer loop
      vertex 22.25 -38.5381 5
      vertex 18.0998 -40.6528 0
      vertex 22.25 -38.5381 0
    endloop
  endfacet
  facet normal 0.777146 -0.62932 0
    outer loop
      vertex 33.0699 -29.7763 5
      vertex 36.0013 -26.1564 0
      vertex 36.0013 -26.1564 5
    endloop
  endfacet
  facet normal 0.777146 -0.62932 0
    outer loop
      vertex 36.0013 -26.1564 0
      vertex 33.0699 -29.7763 5
      vertex 33.0699 -29.7763 0
    endloop
  endfacet
  facet normal 0.891007 -0.45399 0
    outer loop
      vertex 38.5381 -22.25 5
      vertex 40.6528 -18.0998 0
      vertex 40.6528 -18.0998 5
    endloop
  endfacet
  facet normal 0.891007 -0.45399 0
    outer loop
      vertex 40.6528 -18.0998 0
      vertex 38.5381 -22.25 5
      vertex 38.5381 -22.25 0
    endloop
  endfacet
  facet normal -0.707107 -0.707107 0
    outer loop
      vertex -29.7763 -33.0699 0
      vertex -33.0699 -29.7763 5
      vertex -33.0699 -29.7763 0
    endloop
  endfacet
  facet normal -0.707107 -0.707107 0
    outer loop
      vertex -33.0699 -29.7763 5
      vertex -29.7763 -33.0699 0
      vertex -29.7763 -33.0699 5
    endloop
  endfacet
  facet normal -0.544639 -0.83867 0
    outer loop
      vertex -26.1564 -36.0013 0
      vertex -22.25 -38.5381 5
      vertex -26.1564 -36.0013 5
    endloop
  endfacet
  facet normal -0.544639 -0.83867 -0
    outer loop
      vertex -22.25 -38.5381 5
      vertex -26.1564 -36.0013 0
      vertex -22.25 -38.5381 0
    endloop
  endfacet
  facet normal -0.358368 -0.93358 0
    outer loop
      vertex -18.0998 -40.6528 0
      vertex -13.7513 -42.322 5
      vertex -18.0998 -40.6528 5
    endloop
  endfacet
  facet normal -0.358368 -0.93358 -0
    outer loop
      vertex -13.7513 -42.322 5
      vertex -18.0998 -40.6528 0
      vertex -13.7513 -42.322 0
    endloop
  endfacet
  facet normal -0.156435 -0.987688 0
    outer loop
      vertex -9.25207 -43.5276 0
      vertex -4.65152 -44.2562 5
      vertex -9.25207 -43.5276 5
    endloop
  endfacet
  facet normal -0.156435 -0.987688 -0
    outer loop
      vertex -4.65152 -44.2562 5
      vertex -9.25207 -43.5276 0
      vertex -4.65152 -44.2562 0
    endloop
  endfacet
  facet normal -0.93358 -0.358368 0
    outer loop
      vertex -40.6528 -18.0998 0
      vertex -42.322 -13.7513 5
      vertex -42.322 -13.7513 0
    endloop
  endfacet
  facet normal -0.93358 -0.358368 0
    outer loop
      vertex -42.322 -13.7513 5
      vertex -40.6528 -18.0998 0
      vertex -40.6528 -18.0998 5
    endloop
  endfacet
  facet normal -0.83867 -0.544639 0
    outer loop
      vertex -36.0013 -26.1564 0
      vertex -38.5381 -22.25 5
      vertex -38.5381 -22.25 0
    endloop
  endfacet
  facet normal -0.83867 -0.544639 0
    outer loop
      vertex -38.5381 -22.25 5
      vertex -36.0013 -26.1564 0
      vertex -36.0013 -26.1564 5
    endloop
  endfacet
  facet normal -0.965926 -0.258819 0
    outer loop
      vertex -42.322 -13.7513 0
      vertex -43.5276 -9.25207 5
      vertex -43.5276 -9.25207 0
    endloop
  endfacet
  facet normal -0.965926 -0.258819 0
    outer loop
      vertex -43.5276 -9.25207 5
      vertex -42.322 -13.7513 0
      vertex -42.322 -13.7513 5
    endloop
  endfacet
  facet normal -0.99863 -0.0523357 0
    outer loop
      vertex -44.2562 -4.65152 0
      vertex -44.5 0 5
      vertex -44.5 0 0
    endloop
  endfacet
  facet normal -0.99863 -0.0523357 0
    outer loop
      vertex -44.5 0 5
      vertex -44.2562 -4.65152 0
      vertex -44.2562 -4.65152 5
    endloop
  endfacet
  facet normal 0.156435 -0.987688 0
    outer loop
      vertex 4.65152 -44.2562 0
      vertex 9.25207 -43.5276 5
      vertex 4.65152 -44.2562 5
    endloop
  endfacet
  facet normal 0.156435 -0.987688 0
    outer loop
      vertex 9.25207 -43.5276 5
      vertex 4.65152 -44.2562 0
      vertex 9.25207 -43.5276 0
    endloop
  endfacet
  facet normal 0.358368 -0.93358 0
    outer loop
      vertex 13.7513 -42.322 0
      vertex 18.0998 -40.6528 5
      vertex 13.7513 -42.322 5
    endloop
  endfacet
  facet normal 0.358368 -0.93358 0
    outer loop
      vertex 18.0998 -40.6528 5
      vertex 13.7513 -42.322 0
      vertex 18.0998 -40.6528 0
    endloop
  endfacet
  facet normal 0.707107 -0.707107 0
    outer loop
      vertex 29.7763 -33.0699 5
      vertex 33.0699 -29.7763 0
      vertex 33.0699 -29.7763 5
    endloop
  endfacet
  facet normal 0.707107 -0.707107 0
    outer loop
      vertex 33.0699 -29.7763 0
      vertex 29.7763 -33.0699 5
      vertex 29.7763 -33.0699 0
    endloop
  endfacet
  facet normal 0.544639 -0.83867 0
    outer loop
      vertex 22.25 -38.5381 0
      vertex 26.1564 -36.0013 5
      vertex 22.25 -38.5381 5
    endloop
  endfacet
  facet normal 0.544639 -0.83867 0
    outer loop
      vertex 26.1564 -36.0013 5
      vertex 22.25 -38.5381 0
      vertex 26.1564 -36.0013 0
    endloop
  endfacet
  facet normal 0.83867 -0.544639 0
    outer loop
      vertex 36.0013 -26.1564 5
      vertex 38.5381 -22.25 0
      vertex 38.5381 -22.25 5
    endloop
  endfacet
  facet normal 0.83867 -0.544639 0
    outer loop
      vertex 38.5381 -22.25 0
      vertex 36.0013 -26.1564 5
      vertex 36.0013 -26.1564 0
    endloop
  endfacet
  facet normal 0.93358 -0.358368 0
    outer loop
      vertex 40.6528 -18.0998 5
      vertex 42.322 -13.7513 0
      vertex 42.322 -13.7513 5
    endloop
  endfacet
  facet normal 0.93358 -0.358368 0
    outer loop
      vertex 42.322 -13.7513 0
      vertex 40.6528 -18.0998 5
      vertex 40.6528 -18.0998 0
    endloop
  endfacet
  facet normal 0.987688 -0.156435 0
    outer loop
      vertex 43.5276 -9.25207 5
      vertex 44.2562 -4.65152 0
      vertex 44.2562 -4.65152 5
    endloop
  endfacet
  facet normal 0.987688 -0.156435 0
    outer loop
      vertex 44.2562 -4.65152 0
      vertex 43.5276 -9.25207 5
      vertex 43.5276 -9.25207 0
    endloop
  endfacet
  facet normal 0.965926 -0.258819 0
    outer loop
      vertex 42.322 -13.7513 5
      vertex 43.5276 -9.25207 0
      vertex 43.5276 -9.25207 5
    endloop
  endfacet
  facet normal 0.965926 -0.258819 0
    outer loop
      vertex 43.5276 -9.25207 0
      vertex 42.322 -13.7513 5
      vertex 42.322 -13.7513 0
    endloop
  endfacet
  facet normal -0.62932 -0.777146 0
    outer loop
      vertex -29.7763 -33.0699 0
      vertex -26.1564 -36.0013 5
      vertex -29.7763 -33.0699 5
    endloop
  endfacet
  facet normal -0.62932 -0.777146 -0
    outer loop
      vertex -26.1564 -36.0013 5
      vertex -29.7763 -33.0699 0
      vertex -26.1564 -36.0013 0
    endloop
  endfacet
  facet normal -0.45399 -0.891007 0
    outer loop
      vertex -22.25 -38.5381 0
      vertex -18.0998 -40.6528 5
      vertex -22.25 -38.5381 5
    endloop
  endfacet
  facet normal -0.45399 -0.891007 -0
    outer loop
      vertex -18.0998 -40.6528 5
      vertex -22.25 -38.5381 0
      vertex -18.0998 -40.6528 0
    endloop
  endfacet
  facet normal -0.258819 -0.965926 0
    outer loop
      vertex -13.7513 -42.322 0
      vertex -9.25207 -43.5276 5
      vertex -13.7513 -42.322 5
    endloop
  endfacet
  facet normal -0.258819 -0.965926 -0
    outer loop
      vertex -9.25207 -43.5276 5
      vertex -13.7513 -42.322 0
      vertex -9.25207 -43.5276 0
    endloop
  endfacet
  facet normal -0.891007 -0.45399 0
    outer loop
      vertex -38.5381 -22.25 0
      vertex -40.6528 -18.0998 5
      vertex -40.6528 -18.0998 0
    endloop
  endfacet
  facet normal -0.891007 -0.45399 0
    outer loop
      vertex -40.6528 -18.0998 5
      vertex -38.5381 -22.25 0
      vertex -38.5381 -22.25 5
    endloop
  endfacet
  facet normal -0.777146 -0.62932 0
    outer loop
      vertex -33.0699 -29.7763 0
      vertex -36.0013 -26.1564 5
      vertex -36.0013 -26.1564 0
    endloop
  endfacet
  facet normal -0.777146 -0.62932 0
    outer loop
      vertex -36.0013 -26.1564 5
      vertex -33.0699 -29.7763 0
      vertex -33.0699 -29.7763 5
    endloop
  endfacet
  facet normal -0.987688 -0.156435 0
    outer loop
      vertex -43.5276 -9.25207 0
      vertex -44.2562 -4.65152 5
      vertex -44.2562 -4.65152 0
    endloop
  endfacet
  facet normal -0.987688 -0.156435 0
    outer loop
      vertex -44.2562 -4.65152 5
      vertex -43.5276 -9.25207 0
      vertex -43.5276 -9.25207 5
    endloop
  endfacet
  facet normal -0.99863 -0.0523359 0
    outer loop
      vertex 39.5 0 0
      vertex 39.2836 4.12887 5
      vertex 39.2836 4.12887 0
    endloop
  endfacet
  facet normal -0.99863 -0.0523359 0
    outer loop
      vertex 39.2836 4.12887 5
      vertex 39.5 0 0
      vertex 39.5 0 5
    endloop
  endfacet
  facet normal 0.99863 -0.0523359 0
    outer loop
      vertex -39.5 0 5
      vertex -39.2836 4.12887 0
      vertex -39.2836 4.12887 5
    endloop
  endfacet
  facet normal 0.99863 -0.0523359 0
    outer loop
      vertex -39.2836 4.12887 0
      vertex -39.5 0 5
      vertex -39.5 0 0
    endloop
  endfacet
  facet normal -0.0523359 -0.99863 0
    outer loop
      vertex 0 39.5 0
      vertex 4.12887 39.2836 5
      vertex 0 39.5 5
    endloop
  endfacet
  facet normal -0.0523359 -0.99863 -0
    outer loop
      vertex 4.12887 39.2836 5
      vertex 0 39.5 0
      vertex 4.12887 39.2836 0
    endloop
  endfacet
  facet normal -0.707107 -0.707107 0
    outer loop
      vertex 29.3542 26.4307 0
      vertex 26.4307 29.3542 5
      vertex 26.4307 29.3542 0
    endloop
  endfacet
  facet normal -0.707107 -0.707107 0
    outer loop
      vertex 26.4307 29.3542 5
      vertex 29.3542 26.4307 0
      vertex 29.3542 26.4307 5
    endloop
  endfacet
  facet normal 0.62932 -0.777146 0
    outer loop
      vertex -26.4307 29.3542 0
      vertex -23.2175 31.9562 5
      vertex -26.4307 29.3542 5
    endloop
  endfacet
  facet normal 0.62932 -0.777146 0
    outer loop
      vertex -23.2175 31.9562 5
      vertex -26.4307 29.3542 0
      vertex -23.2175 31.9562 0
    endloop
  endfacet
  facet normal 0.358368 -0.933581 0
    outer loop
      vertex -16.0661 36.085 0
      vertex -12.2062 37.5667 5
      vertex -16.0661 36.085 5
    endloop
  endfacet
  facet normal 0.358368 -0.933581 0
    outer loop
      vertex -12.2062 37.5667 5
      vertex -16.0661 36.085 0
      vertex -12.2062 37.5667 0
    endloop
  endfacet
  facet normal 0.965926 0.258819 0
    outer loop
      vertex -37.5667 -12.2062 5
      vertex -38.6368 -8.21251 0
      vertex -38.6368 -8.21251 5
    endloop
  endfacet
  facet normal 0.965926 0.258819 0
    outer loop
      vertex -38.6368 -8.21251 0
      vertex -37.5667 -12.2062 5
      vertex -37.5667 -12.2062 0
    endloop
  endfacet
  facet normal -0.933581 -0.358368 0
    outer loop
      vertex 37.5667 12.2062 0
      vertex 36.085 16.0661 5
      vertex 36.085 16.0661 0
    endloop
  endfacet
  facet normal -0.933581 -0.358368 0
    outer loop
      vertex 36.085 16.0661 5
      vertex 37.5667 12.2062 0
      vertex 37.5667 12.2062 5
    endloop
  endfacet
  facet normal -0.45399 -0.891007 0
    outer loop
      vertex 16.0661 36.085 0
      vertex 19.75 34.208 5
      vertex 16.0661 36.085 5
    endloop
  endfacet
  facet normal -0.45399 -0.891007 -0
    outer loop
      vertex 19.75 34.208 5
      vertex 16.0661 36.085 0
      vertex 19.75 34.208 0
    endloop
  endfacet
  facet normal -0.544639 -0.838671 0
    outer loop
      vertex 19.75 34.208 0
      vertex 23.2175 31.9562 5
      vertex 19.75 34.208 5
    endloop
  endfacet
  facet normal -0.544639 -0.838671 -0
    outer loop
      vertex 23.2175 31.9562 5
      vertex 19.75 34.208 0
      vertex 23.2175 31.9562 0
    endloop
  endfacet
  facet normal 0.838671 -0.544639 0
    outer loop
      vertex -34.208 19.75 5
      vertex -31.9562 23.2175 0
      vertex -31.9562 23.2175 5
    endloop
  endfacet
  facet normal 0.838671 -0.544639 0
    outer loop
      vertex -31.9562 23.2175 0
      vertex -34.208 19.75 5
      vertex -34.208 19.75 0
    endloop
  endfacet
  facet normal 0.777146 -0.62932 0
    outer loop
      vertex -31.9562 23.2175 5
      vertex -29.3542 26.4307 0
      vertex -29.3542 26.4307 5
    endloop
  endfacet
  facet normal 0.777146 -0.62932 0
    outer loop
      vertex -29.3542 26.4307 0
      vertex -31.9562 23.2175 5
      vertex -31.9562 23.2175 0
    endloop
  endfacet
  facet normal 0.544639 -0.838671 0
    outer loop
      vertex -23.2175 31.9562 0
      vertex -19.75 34.208 5
      vertex -23.2175 31.9562 5
    endloop
  endfacet
  facet normal 0.544639 -0.838671 0
    outer loop
      vertex -19.75 34.208 5
      vertex -23.2175 31.9562 0
      vertex -19.75 34.208 0
    endloop
  endfacet
  facet normal 0.156435 -0.987688 0
    outer loop
      vertex -8.21251 38.6368 0
      vertex -4.12887 39.2836 5
      vertex -8.21251 38.6368 5
    endloop
  endfacet
  facet normal 0.156435 -0.987688 0
    outer loop
      vertex -4.12887 39.2836 5
      vertex -8.21251 38.6368 0
      vertex -4.12887 39.2836 0
    endloop
  endfacet
  facet normal -0.891007 0.45399 0
    outer loop
      vertex 34.208 -19.75 0
      vertex 36.085 -16.0661 5
      vertex 36.085 -16.0661 0
    endloop
  endfacet
  facet normal -0.891007 0.45399 0
    outer loop
      vertex 36.085 -16.0661 5
      vertex 34.208 -19.75 0
      vertex 34.208 -19.75 5
    endloop
  endfacet
  facet normal -0.258819 0.965926 0
    outer loop
      vertex 12.2062 -37.5667 0
      vertex 8.21251 -38.6368 5
      vertex 12.2062 -37.5667 5
    endloop
  endfacet
  facet normal -0.258819 0.965926 0
    outer loop
      vertex 8.21251 -38.6368 5
      vertex 12.2062 -37.5667 0
      vertex 8.21251 -38.6368 0
    endloop
  endfacet
  facet normal -0.707107 0.707107 0
    outer loop
      vertex 26.4307 -29.3542 0
      vertex 29.3542 -26.4307 5
      vertex 29.3542 -26.4307 0
    endloop
  endfacet
  facet normal -0.707107 0.707107 0
    outer loop
      vertex 29.3542 -26.4307 5
      vertex 26.4307 -29.3542 0
      vertex 26.4307 -29.3542 5
    endloop
  endfacet
  facet normal -0.965926 0.258819 0
    outer loop
      vertex 37.5667 -12.2062 0
      vertex 38.6368 -8.21251 5
      vertex 38.6368 -8.21251 0
    endloop
  endfacet
  facet normal -0.965926 0.258819 0
    outer loop
      vertex 38.6368 -8.21251 5
      vertex 37.5667 -12.2062 0
      vertex 37.5667 -12.2062 5
    endloop
  endfacet
  facet normal 0.358368 0.933581 -0
    outer loop
      vertex -12.2062 -37.5667 0
      vertex -16.0661 -36.085 5
      vertex -12.2062 -37.5667 5
    endloop
  endfacet
  facet normal 0.358368 0.933581 0
    outer loop
      vertex -16.0661 -36.085 5
      vertex -12.2062 -37.5667 0
      vertex -16.0661 -36.085 0
    endloop
  endfacet
  facet normal 0.777146 0.62932 0
    outer loop
      vertex -29.3542 -26.4307 5
      vertex -31.9562 -23.2175 0
      vertex -31.9562 -23.2175 5
    endloop
  endfacet
  facet normal 0.777146 0.62932 0
    outer loop
      vertex -31.9562 -23.2175 0
      vertex -29.3542 -26.4307 5
      vertex -29.3542 -26.4307 0
    endloop
  endfacet
  facet normal -0.965926 -0.258819 0
    outer loop
      vertex 38.6368 8.21251 0
      vertex 37.5667 12.2062 5
      vertex 37.5667 12.2062 0
    endloop
  endfacet
  facet normal -0.965926 -0.258819 0
    outer loop
      vertex 37.5667 12.2062 5
      vertex 38.6368 8.21251 0
      vertex 38.6368 8.21251 5
    endloop
  endfacet
  facet normal -0.987688 -0.156435 0
    outer loop
      vertex 39.2836 4.12887 0
      vertex 38.6368 8.21251 5
      vertex 38.6368 8.21251 0
    endloop
  endfacet
  facet normal -0.987688 -0.156435 0
    outer loop
      vertex 38.6368 8.21251 5
      vertex 39.2836 4.12887 0
      vertex 39.2836 4.12887 5
    endloop
  endfacet
  facet normal -0.838671 -0.544639 0
    outer loop
      vertex 34.208 19.75 0
      vertex 31.9562 23.2175 5
      vertex 31.9562 23.2175 0
    endloop
  endfacet
  facet normal -0.838671 -0.544639 0
    outer loop
      vertex 31.9562 23.2175 5
      vertex 34.208 19.75 0
      vertex 34.208 19.75 5
    endloop
  endfacet
  facet normal -0.891007 -0.45399 0
    outer loop
      vertex 36.085 16.0661 0
      vertex 34.208 19.75 5
      vertex 34.208 19.75 0
    endloop
  endfacet
  facet normal -0.891007 -0.45399 0
    outer loop
      vertex 34.208 19.75 5
      vertex 36.085 16.0661 0
      vertex 36.085 16.0661 5
    endloop
  endfacet
  facet normal -0.258819 -0.965926 0
    outer loop
      vertex 8.21251 38.6368 0
      vertex 12.2062 37.5667 5
      vertex 8.21251 38.6368 5
    endloop
  endfacet
  facet normal -0.258819 -0.965926 -0
    outer loop
      vertex 12.2062 37.5667 5
      vertex 8.21251 38.6368 0
      vertex 12.2062 37.5667 0
    endloop
  endfacet
  facet normal -0.358368 -0.933581 0
    outer loop
      vertex 12.2062 37.5667 0
      vertex 16.0661 36.085 5
      vertex 12.2062 37.5667 5
    endloop
  endfacet
  facet normal -0.358368 -0.933581 -0
    outer loop
      vertex 16.0661 36.085 5
      vertex 12.2062 37.5667 0
      vertex 16.0661 36.085 0
    endloop
  endfacet
  facet normal -0.156435 -0.987688 0
    outer loop
      vertex 4.12887 39.2836 0
      vertex 8.21251 38.6368 5
      vertex 4.12887 39.2836 5
    endloop
  endfacet
  facet normal -0.156435 -0.987688 -0
    outer loop
      vertex 8.21251 38.6368 5
      vertex 4.12887 39.2836 0
      vertex 8.21251 38.6368 0
    endloop
  endfacet
  facet normal -0.62932 -0.777146 0
    outer loop
      vertex 23.2175 31.9562 0
      vertex 26.4307 29.3542 5
      vertex 23.2175 31.9562 5
    endloop
  endfacet
  facet normal -0.62932 -0.777146 -0
    outer loop
      vertex 26.4307 29.3542 5
      vertex 23.2175 31.9562 0
      vertex 26.4307 29.3542 0
    endloop
  endfacet
  facet normal 0.965926 -0.258819 0
    outer loop
      vertex -38.6368 8.21251 5
      vertex -37.5667 12.2062 0
      vertex -37.5667 12.2062 5
    endloop
  endfacet
  facet normal 0.965926 -0.258819 0
    outer loop
      vertex -37.5667 12.2062 0
      vertex -38.6368 8.21251 5
      vertex -38.6368 8.21251 0
    endloop
  endfacet
  facet normal 0.891007 -0.45399 0
    outer loop
      vertex -36.085 16.0661 5
      vertex -34.208 19.75 0
      vertex -34.208 19.75 5
    endloop
  endfacet
  facet normal 0.891007 -0.45399 0
    outer loop
      vertex -34.208 19.75 0
      vertex -36.085 16.0661 5
      vertex -36.085 16.0661 0
    endloop
  endfacet
  facet normal 0.987688 -0.156435 0
    outer loop
      vertex -39.2836 4.12887 5
      vertex -38.6368 8.21251 0
      vertex -38.6368 8.21251 5
    endloop
  endfacet
  facet normal 0.987688 -0.156435 0
    outer loop
      vertex -38.6368 8.21251 0
      vertex -39.2836 4.12887 5
      vertex -39.2836 4.12887 0
    endloop
  endfacet
  facet normal 0.0523359 -0.99863 0
    outer loop
      vertex -4.12887 39.2836 0
      vertex 0 39.5 5
      vertex -4.12887 39.2836 5
    endloop
  endfacet
  facet normal 0.0523359 -0.99863 0
    outer loop
      vertex 0 39.5 5
      vertex -4.12887 39.2836 0
      vertex 0 39.5 0
    endloop
  endfacet
  facet normal -0.99863 0.0523359 0
    outer loop
      vertex 39.2836 -4.12887 0
      vertex 39.5 0 5
      vertex 39.5 0 0
    endloop
  endfacet
  facet normal -0.99863 0.0523359 0
    outer loop
      vertex 39.5 0 5
      vertex 39.2836 -4.12887 0
      vertex 39.2836 -4.12887 5
    endloop
  endfacet
  facet normal -0.0523359 0.99863 0
    outer loop
      vertex 4.12887 -39.2836 0
      vertex 0 -39.5 5
      vertex 4.12887 -39.2836 5
    endloop
  endfacet
  facet normal -0.0523359 0.99863 0
    outer loop
      vertex 0 -39.5 5
      vertex 4.12887 -39.2836 0
      vertex 0 -39.5 0
    endloop
  endfacet
  facet normal -0.45399 0.891007 0
    outer loop
      vertex 19.75 -34.208 0
      vertex 16.0661 -36.085 5
      vertex 19.75 -34.208 5
    endloop
  endfacet
  facet normal -0.45399 0.891007 0
    outer loop
      vertex 16.0661 -36.085 5
      vertex 19.75 -34.208 0
      vertex 16.0661 -36.085 0
    endloop
  endfacet
  facet normal -0.62932 0.777146 0
    outer loop
      vertex 26.4307 -29.3542 0
      vertex 23.2175 -31.9562 5
      vertex 26.4307 -29.3542 5
    endloop
  endfacet
  facet normal -0.62932 0.777146 0
    outer loop
      vertex 23.2175 -31.9562 5
      vertex 26.4307 -29.3542 0
      vertex 23.2175 -31.9562 0
    endloop
  endfacet
  facet normal -0.544639 0.838671 0
    outer loop
      vertex 23.2175 -31.9562 0
      vertex 19.75 -34.208 5
      vertex 23.2175 -31.9562 5
    endloop
  endfacet
  facet normal -0.544639 0.838671 0
    outer loop
      vertex 19.75 -34.208 5
      vertex 23.2175 -31.9562 0
      vertex 19.75 -34.208 0
    endloop
  endfacet
  facet normal -0.777146 0.62932 0
    outer loop
      vertex 29.3542 -26.4307 0
      vertex 31.9562 -23.2175 5
      vertex 31.9562 -23.2175 0
    endloop
  endfacet
  facet normal -0.777146 0.62932 0
    outer loop
      vertex 31.9562 -23.2175 5
      vertex 29.3542 -26.4307 0
      vertex 29.3542 -26.4307 5
    endloop
  endfacet
  facet normal -0.838671 0.544639 0
    outer loop
      vertex 31.9562 -23.2175 0
      vertex 34.208 -19.75 5
      vertex 34.208 -19.75 0
    endloop
  endfacet
  facet normal -0.838671 0.544639 0
    outer loop
      vertex 34.208 -19.75 5
      vertex 31.9562 -23.2175 0
      vertex 31.9562 -23.2175 5
    endloop
  endfacet
  facet normal 0.707107 0.707107 0
    outer loop
      vertex -26.4307 -29.3542 5
      vertex -29.3542 -26.4307 0
      vertex -29.3542 -26.4307 5
    endloop
  endfacet
  facet normal 0.707107 0.707107 0
    outer loop
      vertex -29.3542 -26.4307 0
      vertex -26.4307 -29.3542 5
      vertex -26.4307 -29.3542 0
    endloop
  endfacet
  facet normal 0.62932 0.777146 -0
    outer loop
      vertex -23.2175 -31.9562 0
      vertex -26.4307 -29.3542 5
      vertex -23.2175 -31.9562 5
    endloop
  endfacet
  facet normal 0.62932 0.777146 0
    outer loop
      vertex -26.4307 -29.3542 5
      vertex -23.2175 -31.9562 0
      vertex -26.4307 -29.3542 0
    endloop
  endfacet
  facet normal 0.544639 0.838671 -0
    outer loop
      vertex -19.75 -34.208 0
      vertex -23.2175 -31.9562 5
      vertex -19.75 -34.208 5
    endloop
  endfacet
  facet normal 0.544639 0.838671 0
    outer loop
      vertex -23.2175 -31.9562 5
      vertex -19.75 -34.208 0
      vertex -23.2175 -31.9562 0
    endloop
  endfacet
  facet normal 0.156435 0.987688 -0
    outer loop
      vertex -4.12887 -39.2836 0
      vertex -8.21251 -38.6368 5
      vertex -4.12887 -39.2836 5
    endloop
  endfacet
  facet normal 0.156435 0.987688 0
    outer loop
      vertex -8.21251 -38.6368 5
      vertex -4.12887 -39.2836 0
      vertex -8.21251 -38.6368 0
    endloop
  endfacet
  facet normal 0.891007 0.45399 0
    outer loop
      vertex -34.208 -19.75 5
      vertex -36.085 -16.0661 0
      vertex -36.085 -16.0661 5
    endloop
  endfacet
  facet normal 0.891007 0.45399 0
    outer loop
      vertex -36.085 -16.0661 0
      vertex -34.208 -19.75 5
      vertex -34.208 -19.75 0
    endloop
  endfacet
  facet normal 0.99863 0.0523359 0
    outer loop
      vertex -39.2836 -4.12887 5
      vertex -39.5 0 0
      vertex -39.5 0 5
    endloop
  endfacet
  facet normal 0.99863 0.0523359 0
    outer loop
      vertex -39.5 0 0
      vertex -39.2836 -4.12887 5
      vertex -39.2836 -4.12887 0
    endloop
  endfacet
  facet normal -0.777146 -0.62932 0
    outer loop
      vertex 31.9562 23.2175 0
      vertex 29.3542 26.4307 5
      vertex 29.3542 26.4307 0
    endloop
  endfacet
  facet normal -0.777146 -0.62932 0
    outer loop
      vertex 29.3542 26.4307 5
      vertex 31.9562 23.2175 0
      vertex 31.9562 23.2175 5
    endloop
  endfacet
  facet normal 0.707107 -0.707107 0
    outer loop
      vertex -29.3542 26.4307 5
      vertex -26.4307 29.3542 0
      vertex -26.4307 29.3542 5
    endloop
  endfacet
  facet normal 0.707107 -0.707107 0
    outer loop
      vertex -26.4307 29.3542 0
      vertex -29.3542 26.4307 5
      vertex -29.3542 26.4307 0
    endloop
  endfacet
  facet normal 0.933581 -0.358368 0
    outer loop
      vertex -37.5667 12.2062 5
      vertex -36.085 16.0661 0
      vertex -36.085 16.0661 5
    endloop
  endfacet
  facet normal 0.933581 -0.358368 0
    outer loop
      vertex -36.085 16.0661 0
      vertex -37.5667 12.2062 5
      vertex -37.5667 12.2062 0
    endloop
  endfacet
  facet normal 0.45399 -0.891007 0
    outer loop
      vertex -19.75 34.208 0
      vertex -16.0661 36.085 5
      vertex -19.75 34.208 5
    endloop
  endfacet
  facet normal 0.45399 -0.891007 0
    outer loop
      vertex -16.0661 36.085 5
      vertex -19.75 34.208 0
      vertex -16.0661 36.085 0
    endloop
  endfacet
  facet normal 0.258819 -0.965926 0
    outer loop
      vertex -12.2062 37.5667 0
      vertex -8.21251 38.6368 5
      vertex -12.2062 37.5667 5
    endloop
  endfacet
  facet normal 0.258819 -0.965926 0
    outer loop
      vertex -8.21251 38.6368 5
      vertex -12.2062 37.5667 0
      vertex -8.21251 38.6368 0
    endloop
  endfacet
  facet normal -0.156435 0.987688 0
    outer loop
      vertex 8.21251 -38.6368 0
      vertex 4.12887 -39.2836 5
      vertex 8.21251 -38.6368 5
    endloop
  endfacet
  facet normal -0.156435 0.987688 0
    outer loop
      vertex 4.12887 -39.2836 5
      vertex 8.21251 -38.6368 0
      vertex 4.12887 -39.2836 0
    endloop
  endfacet
  facet normal -0.358368 0.933581 0
    outer loop
      vertex 16.0661 -36.085 0
      vertex 12.2062 -37.5667 5
      vertex 16.0661 -36.085 5
    endloop
  endfacet
  facet normal -0.358368 0.933581 0
    outer loop
      vertex 12.2062 -37.5667 5
      vertex 16.0661 -36.085 0
      vertex 12.2062 -37.5667 0
    endloop
  endfacet
  facet normal -0.933581 0.358368 0
    outer loop
      vertex 36.085 -16.0661 0
      vertex 37.5667 -12.2062 5
      vertex 37.5667 -12.2062 0
    endloop
  endfacet
  facet normal -0.933581 0.358368 0
    outer loop
      vertex 37.5667 -12.2062 5
      vertex 36.085 -16.0661 0
      vertex 36.085 -16.0661 5
    endloop
  endfacet
  facet normal -0.987688 0.156435 0
    outer loop
      vertex 38.6368 -8.21251 0
      vertex 39.2836 -4.12887 5
      vertex 39.2836 -4.12887 0
    endloop
  endfacet
  facet normal -0.987688 0.156435 0
    outer loop
      vertex 39.2836 -4.12887 5
      vertex 38.6368 -8.21251 0
      vertex 38.6368 -8.21251 5
    endloop
  endfacet
  facet normal 0.45399 0.891007 -0
    outer loop
      vertex -16.0661 -36.085 0
      vertex -19.75 -34.208 5
      vertex -16.0661 -36.085 5
    endloop
  endfacet
  facet normal 0.45399 0.891007 0
    outer loop
      vertex -19.75 -34.208 5
      vertex -16.0661 -36.085 0
      vertex -19.75 -34.208 0
    endloop
  endfacet
  facet normal 0.258819 0.965926 -0
    outer loop
      vertex -8.21251 -38.6368 0
      vertex -12.2062 -37.5667 5
      vertex -8.21251 -38.6368 5
    endloop
  endfacet
  facet normal 0.258819 0.965926 0
    outer loop
      vertex -12.2062 -37.5667 5
      vertex -8.21251 -38.6368 0
      vertex -12.2062 -37.5667 0
    endloop
  endfacet
  facet normal 0.0523359 0.99863 -0
    outer loop
      vertex 0 -39.5 0
      vertex -4.12887 -39.2836 5
      vertex 0 -39.5 5
    endloop
  endfacet
  facet normal 0.0523359 0.99863 0
    outer loop
      vertex -4.12887 -39.2836 5
      vertex 0 -39.5 0
      vertex -4.12887 -39.2836 0
    endloop
  endfacet
  facet normal 0.838671 0.544639 0
    outer loop
      vertex -31.9562 -23.2175 5
      vertex -34.208 -19.75 0
      vertex -34.208 -19.75 5
    endloop
  endfacet
  facet normal 0.838671 0.544639 0
    outer loop
      vertex -34.208 -19.75 0
      vertex -31.9562 -23.2175 5
      vertex -31.9562 -23.2175 0
    endloop
  endfacet
  facet normal 0.933581 0.358368 0
    outer loop
      vertex -36.085 -16.0661 5
      vertex -37.5667 -12.2062 0
      vertex -37.5667 -12.2062 5
    endloop
  endfacet
  facet normal 0.933581 0.358368 0
    outer loop
      vertex -37.5667 -12.2062 0
      vertex -36.085 -16.0661 5
      vertex -36.085 -16.0661 0
    endloop
  endfacet
  facet normal 0.987688 0.156435 0
    outer loop
      vertex -38.6368 -8.21251 5
      vertex -39.2836 -4.12887 0
      vertex -39.2836 -4.12887 5
    endloop
  endfacet
  facet normal 0.987688 0.156435 0
    outer loop
      vertex -39.2836 -4.12887 0
      vertex -38.6368 -8.21251 5
      vertex -38.6368 -8.21251 0
    endloop
  endfacet
endsolid OpenSCAD_Model
